  0
SECTION
  2
HEADER
  9
$ACADVER
  1
AC1009
  9
$EXTMIN
 10
0.0
 20
0.0
 30
0.0
  9
$EXTMAX
 10
1000.0
 20
1000.0
 30
0.0
  9
$FILLMODE
 70
 0
  9
$SPLFRAME
 70
 1
  0
ENDSEC
  0
SECTION
  2
TABLES
  0
TABLE
  2
LAYER
 70
1
  0
LAYER
  2
0
 70
     0
 62
     7
  6
CONTINUOUS
  0
ENDTAB
  0
ENDSEC
  0
SECTION
  2
ENTITIES
  0
LINE
  8
0
 62
     0
 10
0.0937066
 20
109.343
 30
0.0
 11
318.895
 21
109.343
 31
0.0
  0
LINE
  8
0
 62
     0
 10
318.895
 20
109.343
 30
0.0
 11
318.895
 21
0.0937066
 31
0.0
  0
LINE
  8
0
 62
     0
 10
318.895
 20
0.0937066
 30
0.0
 11
0.0937066
 21
0.0937066
 31
0.0
  0
LINE
  8
0
 62
     0
 10
0.0937066
 20
0.0937066
 30
0.0
 11
0.0937066
 21
109.343
 31
0.0
  0
LINE
  8
0
 62
     0
 10
315.084
 20
4.54477
 30
0.0
 11
314.807
 21
4.40422
 31
0.0
  0
LINE
  8
0
 62
     0
 10
314.807
 20
4.40422
 30
0.0
 11
314.584
 21
4.17961
 31
0.0
  0
LINE
  8
0
 62
     0
 10
314.584
 20
4.17961
 30
0.0
 11
314.442
 21
3.90398
 31
0.0
  0
LINE
  8
0
 62
     0
 10
314.442
 20
3.90398
 30
0.0
 11
314.395
 21
3.59255
 31
0.0
  0
LINE
  8
0
 62
     0
 10
314.395
 20
3.59255
 30
0.0
 11
314.442
 21
3.28249
 31
0.0
  0
LINE
  8
0
 62
     0
 10
314.442
 20
3.28249
 30
0.0
 11
314.584
 21
3.0055
 31
0.0
  0
LINE
  8
0
 62
     0
 10
314.584
 20
3.0055
 30
0.0
 11
314.807
 21
2.78364
 31
0.0
  0
LINE
  8
0
 62
     0
 10
314.807
 20
2.78364
 30
0.0
 11
315.084
 21
2.6417
 31
0.0
  0
LINE
  8
0
 62
     0
 10
315.084
 20
2.6417
 30
0.0
 11
315.394
 21
2.59347
 31
0.0
  0
LINE
  8
0
 62
     0
 10
315.394
 20
2.59347
 30
0.0
 11
315.704
 21
2.6417
 31
0.0
  0
LINE
  8
0
 62
     0
 10
315.704
 20
2.6417
 30
0.0
 11
315.981
 21
2.78364
 31
0.0
  0
LINE
  8
0
 62
     0
 10
315.981
 20
2.78364
 30
0.0
 11
316.203
 21
3.0055
 31
0.0
  0
LINE
  8
0
 62
     0
 10
316.203
 20
3.0055
 30
0.0
 11
316.345
 21
3.28249
 31
0.0
  0
LINE
  8
0
 62
     0
 10
316.345
 20
3.28249
 30
0.0
 11
316.395
 21
3.59255
 31
0.0
  0
LINE
  8
0
 62
     0
 10
316.395
 20
3.59255
 30
0.0
 11
316.345
 21
3.90398
 31
0.0
  0
LINE
  8
0
 62
     0
 10
316.345
 20
3.90398
 30
0.0
 11
316.203
 21
4.17961
 31
0.0
  0
LINE
  8
0
 62
     0
 10
316.203
 20
4.17961
 30
0.0
 11
315.981
 21
4.40422
 31
0.0
  0
LINE
  8
0
 62
     0
 10
315.981
 20
4.40422
 30
0.0
 11
315.704
 21
4.54477
 31
0.0
  0
LINE
  8
0
 62
     0
 10
315.704
 20
4.54477
 30
0.0
 11
315.394
 21
4.59299
 31
0.0
  0
LINE
  8
0
 62
     0
 10
315.394
 20
4.59299
 30
0.0
 11
315.084
 21
4.54477
 31
0.0
  0
LINE
  8
0
 62
     0
 10
3.28249
 20
4.54477
 30
0.0
 11
3.0055
 21
4.40422
 31
0.0
  0
LINE
  8
0
 62
     0
 10
3.0055
 20
4.40422
 30
0.0
 11
2.78364
 21
4.17961
 31
0.0
  0
LINE
  8
0
 62
     0
 10
2.78364
 20
4.17961
 30
0.0
 11
2.6417
 21
3.90398
 31
0.0
  0
LINE
  8
0
 62
     0
 10
2.6417
 20
3.90398
 30
0.0
 11
2.59209
 21
3.59255
 31
0.0
  0
LINE
  8
0
 62
     0
 10
2.59209
 20
3.59255
 30
0.0
 11
2.6417
 21
3.28249
 31
0.0
  0
LINE
  8
0
 62
     0
 10
2.6417
 20
3.28249
 30
0.0
 11
2.78364
 21
3.0055
 31
0.0
  0
LINE
  8
0
 62
     0
 10
2.78364
 20
3.0055
 30
0.0
 11
3.0055
 21
2.78364
 31
0.0
  0
LINE
  8
0
 62
     0
 10
3.0055
 20
2.78364
 30
0.0
 11
3.28249
 21
2.6417
 31
0.0
  0
LINE
  8
0
 62
     0
 10
3.28249
 20
2.6417
 30
0.0
 11
3.59255
 21
2.59347
 31
0.0
  0
LINE
  8
0
 62
     0
 10
3.59255
 20
2.59347
 30
0.0
 11
3.9026
 21
2.6417
 31
0.0
  0
LINE
  8
0
 62
     0
 10
3.9026
 20
2.6417
 30
0.0
 11
4.18098
 21
2.78364
 31
0.0
  0
LINE
  8
0
 62
     0
 10
4.18098
 20
2.78364
 30
0.0
 11
4.40284
 21
3.0055
 31
0.0
  0
LINE
  8
0
 62
     0
 10
4.40284
 20
3.0055
 30
0.0
 11
4.54477
 21
3.28249
 31
0.0
  0
LINE
  8
0
 62
     0
 10
4.54477
 20
3.28249
 30
0.0
 11
4.59437
 21
3.59255
 31
0.0
  0
LINE
  8
0
 62
     0
 10
4.59437
 20
3.59255
 30
0.0
 11
4.54477
 21
3.90398
 31
0.0
  0
LINE
  8
0
 62
     0
 10
4.54477
 20
3.90398
 30
0.0
 11
4.40284
 21
4.17961
 31
0.0
  0
LINE
  8
0
 62
     0
 10
4.40284
 20
4.17961
 30
0.0
 11
4.18098
 21
4.40422
 31
0.0
  0
LINE
  8
0
 62
     0
 10
4.18098
 20
4.40422
 30
0.0
 11
3.9026
 21
4.54477
 31
0.0
  0
LINE
  8
0
 62
     0
 10
3.9026
 20
4.54477
 30
0.0
 11
3.59392
 21
4.59299
 31
0.0
  0
LINE
  8
0
 62
     0
 10
3.59392
 20
4.59299
 30
0.0
 11
3.28249
 21
4.54477
 31
0.0
  0
LINE
  8
0
 62
     0
 10
88.2001
 20
23.6182
 30
0.0
 11
88.2001
 21
22.6177
 31
0.0
  0
LINE
  8
0
 62
     0
 10
88.2001
 20
22.6177
 30
0.0
 11
87.3993
 21
22.6177
 31
0.0
  0
LINE
  8
0
 62
     0
 10
87.3993
 20
22.6177
 30
0.0
 11
87.3993
 21
19.5185
 31
0.0
  0
LINE
  8
0
 62
     0
 10
87.3993
 20
19.5185
 30
0.0
 11
88.2001
 21
19.5185
 31
0.0
  0
LINE
  8
0
 62
     0
 10
88.2001
 20
19.5185
 30
0.0
 11
88.2001
 21
18.9177
 31
0.0
  0
LINE
  8
0
 62
     0
 10
88.2001
 20
18.9177
 30
0.0
 11
86.6743
 21
18.9177
 31
0.0
  0
LINE
  8
0
 62
     0
 10
86.6743
 20
18.9177
 30
0.0
 11
86.6743
 21
22.1478
 31
0.0
  0
LINE
  8
0
 62
     0
 10
86.6743
 20
22.1478
 30
0.0
 11
79.925
 21
22.1478
 31
0.0
  0
LINE
  8
0
 62
     0
 10
79.925
 20
22.1478
 30
0.0
 11
79.925
 21
18.9177
 31
0.0
  0
LINE
  8
0
 62
     0
 10
79.925
 20
18.9177
 30
0.0
 11
79.0995
 21
18.9177
 31
0.0
  0
LINE
  8
0
 62
     0
 10
79.0995
 20
18.9177
 30
0.0
 11
79.0995
 21
16.1189
 31
0.0
  0
LINE
  8
0
 62
     0
 10
79.0995
 20
16.1189
 30
0.0
 11
79.925
 21
16.1189
 31
0.0
  0
LINE
  8
0
 62
     0
 10
79.925
 20
16.1189
 30
0.0
 11
79.925
 21
9.84885
 31
0.0
  0
LINE
  8
0
 62
     0
 10
79.925
 20
9.84885
 30
0.0
 11
81.6501
 21
9.84885
 31
0.0
  0
LINE
  8
0
 62
     0
 10
81.6501
 20
9.84885
 30
0.0
 11
81.6501
 21
8.64856
 31
0.0
  0
LINE
  8
0
 62
     0
 10
81.6501
 20
8.64856
 30
0.0
 11
84.9492
 21
8.64856
 31
0.0
  0
LINE
  8
0
 62
     0
 10
84.9492
 20
8.64856
 30
0.0
 11
84.9492
 21
9.84885
 31
0.0
  0
LINE
  8
0
 62
     0
 10
84.9492
 20
9.84885
 30
0.0
 11
86.6743
 21
9.84885
 31
0.0
  0
LINE
  8
0
 62
     0
 10
86.6743
 20
9.84885
 30
0.0
 11
86.6743
 21
14.3192
 31
0.0
  0
LINE
  8
0
 62
     0
 10
86.6743
 20
14.3192
 30
0.0
 11
88.2001
 21
14.3192
 31
0.0
  0
LINE
  8
0
 62
     0
 10
88.2001
 20
14.3192
 30
0.0
 11
88.2001
 21
13.7184
 31
0.0
  0
LINE
  8
0
 62
     0
 10
88.2001
 20
13.7184
 30
0.0
 11
87.3993
 21
13.7184
 31
0.0
  0
LINE
  8
0
 62
     0
 10
87.3993
 20
13.7184
 30
0.0
 11
87.3993
 21
10.6178
 31
0.0
  0
LINE
  8
0
 62
     0
 10
87.3993
 20
10.6178
 30
0.0
 11
88.2001
 21
10.6178
 31
0.0
  0
LINE
  8
0
 62
     0
 10
88.2001
 20
10.6178
 30
0.0
 11
88.2001
 21
9.6187
 31
0.0
  0
LINE
  8
0
 62
     0
 10
88.2001
 20
9.6187
 30
0.0
 11
102.199
 21
9.6187
 31
0.0
  0
LINE
  8
0
 62
     0
 10
102.199
 20
9.6187
 30
0.0
 11
102.199
 21
10.6178
 31
0.0
  0
LINE
  8
0
 62
     0
 10
102.199
 20
10.6178
 30
0.0
 11
103
 21
10.6178
 31
0.0
  0
LINE
  8
0
 62
     0
 10
103
 20
10.6178
 30
0.0
 11
103
 21
13.7184
 31
0.0
  0
LINE
  8
0
 62
     0
 10
103
 20
13.7184
 30
0.0
 11
102.199
 21
13.7184
 31
0.0
  0
LINE
  8
0
 62
     0
 10
102.199
 20
13.7184
 30
0.0
 11
102.199
 21
14.3192
 31
0.0
  0
LINE
  8
0
 62
     0
 10
102.199
 20
14.3192
 30
0.0
 11
103.725
 21
14.3192
 31
0.0
  0
LINE
  8
0
 62
     0
 10
103.725
 20
14.3192
 30
0.0
 11
103.725
 21
9.84885
 31
0.0
  0
LINE
  8
0
 62
     0
 10
103.725
 20
9.84885
 30
0.0
 11
105.45
 21
9.84885
 31
0.0
  0
LINE
  8
0
 62
     0
 10
105.45
 20
9.84885
 30
0.0
 11
105.45
 21
8.64856
 31
0.0
  0
LINE
  8
0
 62
     0
 10
105.45
 20
8.64856
 30
0.0
 11
108.749
 21
8.64856
 31
0.0
  0
LINE
  8
0
 62
     0
 10
108.749
 20
8.64856
 30
0.0
 11
108.749
 21
9.84885
 31
0.0
  0
LINE
  8
0
 62
     0
 10
108.749
 20
9.84885
 30
0.0
 11
110.474
 21
9.84885
 31
0.0
  0
LINE
  8
0
 62
     0
 10
110.474
 20
9.84885
 30
0.0
 11
110.474
 21
16.1189
 31
0.0
  0
LINE
  8
0
 62
     0
 10
110.474
 20
16.1189
 30
0.0
 11
111.3
 21
16.1189
 31
0.0
  0
LINE
  8
0
 62
     0
 10
111.3
 20
16.1189
 30
0.0
 11
111.3
 21
18.9177
 31
0.0
  0
LINE
  8
0
 62
     0
 10
111.3
 20
18.9177
 30
0.0
 11
110.474
 21
18.9177
 31
0.0
  0
LINE
  8
0
 62
     0
 10
110.474
 20
18.9177
 30
0.0
 11
110.474
 21
22.1478
 31
0.0
  0
LINE
  8
0
 62
     0
 10
110.474
 20
22.1478
 30
0.0
 11
103.725
 21
22.1478
 31
0.0
  0
LINE
  8
0
 62
     0
 10
103.725
 20
22.1478
 30
0.0
 11
103.725
 21
18.9177
 31
0.0
  0
LINE
  8
0
 62
     0
 10
103.725
 20
18.9177
 30
0.0
 11
102.199
 21
18.9177
 31
0.0
  0
LINE
  8
0
 62
     0
 10
102.199
 20
18.9177
 30
0.0
 11
102.199
 21
19.5185
 31
0.0
  0
LINE
  8
0
 62
     0
 10
102.199
 20
19.5185
 30
0.0
 11
103
 21
19.5185
 31
0.0
  0
LINE
  8
0
 62
     0
 10
103
 20
19.5185
 30
0.0
 11
103
 21
22.6177
 31
0.0
  0
LINE
  8
0
 62
     0
 10
103
 20
22.6177
 30
0.0
 11
102.199
 21
22.6177
 31
0.0
  0
LINE
  8
0
 62
     0
 10
102.199
 20
22.6177
 30
0.0
 11
102.199
 21
23.6182
 31
0.0
  0
LINE
  8
0
 62
     0
 10
102.199
 20
23.6182
 30
0.0
 11
88.2001
 21
23.6182
 31
0.0
  0
LINE
  8
0
 62
     0
 10
169.161
 20
23.6182
 30
0.0
 11
169.161
 21
22.6177
 31
0.0
  0
LINE
  8
0
 62
     0
 10
169.161
 20
22.6177
 30
0.0
 11
168.362
 21
22.6177
 31
0.0
  0
LINE
  8
0
 62
     0
 10
168.362
 20
22.6177
 30
0.0
 11
168.362
 21
19.5185
 31
0.0
  0
LINE
  8
0
 62
     0
 10
168.362
 20
19.5185
 30
0.0
 11
169.161
 21
19.5185
 31
0.0
  0
LINE
  8
0
 62
     0
 10
169.161
 20
19.5185
 30
0.0
 11
169.161
 21
18.9177
 31
0.0
  0
LINE
  8
0
 62
     0
 10
169.161
 20
18.9177
 30
0.0
 11
167.637
 21
18.9177
 31
0.0
  0
LINE
  8
0
 62
     0
 10
167.637
 20
18.9177
 30
0.0
 11
167.637
 21
22.1478
 31
0.0
  0
LINE
  8
0
 62
     0
 10
167.637
 20
22.1478
 30
0.0
 11
160.887
 21
22.1478
 31
0.0
  0
LINE
  8
0
 62
     0
 10
160.887
 20
22.1478
 30
0.0
 11
160.887
 21
18.9177
 31
0.0
  0
LINE
  8
0
 62
     0
 10
160.887
 20
18.9177
 30
0.0
 11
160.062
 21
18.9177
 31
0.0
  0
LINE
  8
0
 62
     0
 10
160.062
 20
18.9177
 30
0.0
 11
160.062
 21
16.1189
 31
0.0
  0
LINE
  8
0
 62
     0
 10
160.062
 20
16.1189
 30
0.0
 11
160.887
 21
16.1189
 31
0.0
  0
LINE
  8
0
 62
     0
 10
160.887
 20
16.1189
 30
0.0
 11
160.887
 21
9.84885
 31
0.0
  0
LINE
  8
0
 62
     0
 10
160.887
 20
9.84885
 30
0.0
 11
162.611
 21
9.84885
 31
0.0
  0
LINE
  8
0
 62
     0
 10
162.611
 20
9.84885
 30
0.0
 11
162.611
 21
8.64856
 31
0.0
  0
LINE
  8
0
 62
     0
 10
162.611
 20
8.64856
 30
0.0
 11
165.912
 21
8.64856
 31
0.0
  0
LINE
  8
0
 62
     0
 10
165.912
 20
8.64856
 30
0.0
 11
165.912
 21
9.84885
 31
0.0
  0
LINE
  8
0
 62
     0
 10
165.912
 20
9.84885
 30
0.0
 11
167.637
 21
9.84885
 31
0.0
  0
LINE
  8
0
 62
     0
 10
167.637
 20
9.84885
 30
0.0
 11
167.637
 21
14.3192
 31
0.0
  0
LINE
  8
0
 62
     0
 10
167.637
 20
14.3192
 30
0.0
 11
169.161
 21
14.3192
 31
0.0
  0
LINE
  8
0
 62
     0
 10
169.161
 20
14.3192
 30
0.0
 11
169.161
 21
13.7184
 31
0.0
  0
LINE
  8
0
 62
     0
 10
169.161
 20
13.7184
 30
0.0
 11
168.362
 21
13.7184
 31
0.0
  0
LINE
  8
0
 62
     0
 10
168.362
 20
13.7184
 30
0.0
 11
168.362
 21
10.6178
 31
0.0
  0
LINE
  8
0
 62
     0
 10
168.362
 20
10.6178
 30
0.0
 11
169.161
 21
10.6178
 31
0.0
  0
LINE
  8
0
 62
     0
 10
169.161
 20
10.6178
 30
0.0
 11
169.161
 21
9.6187
 31
0.0
  0
LINE
  8
0
 62
     0
 10
169.161
 20
9.6187
 30
0.0
 11
183.162
 21
9.6187
 31
0.0
  0
LINE
  8
0
 62
     0
 10
183.162
 20
9.6187
 30
0.0
 11
183.162
 21
10.6178
 31
0.0
  0
LINE
  8
0
 62
     0
 10
183.162
 20
10.6178
 30
0.0
 11
183.961
 21
10.6178
 31
0.0
  0
LINE
  8
0
 62
     0
 10
183.961
 20
10.6178
 30
0.0
 11
183.961
 21
13.7184
 31
0.0
  0
LINE
  8
0
 62
     0
 10
183.961
 20
13.7184
 30
0.0
 11
183.162
 21
13.7184
 31
0.0
  0
LINE
  8
0
 62
     0
 10
183.162
 20
13.7184
 30
0.0
 11
183.162
 21
14.3192
 31
0.0
  0
LINE
  8
0
 62
     0
 10
183.162
 20
14.3192
 30
0.0
 11
184.686
 21
14.3192
 31
0.0
  0
LINE
  8
0
 62
     0
 10
184.686
 20
14.3192
 30
0.0
 11
184.686
 21
9.84885
 31
0.0
  0
LINE
  8
0
 62
     0
 10
184.686
 20
9.84885
 30
0.0
 11
186.411
 21
9.84885
 31
0.0
  0
LINE
  8
0
 62
     0
 10
186.411
 20
9.84885
 30
0.0
 11
186.411
 21
8.64856
 31
0.0
  0
LINE
  8
0
 62
     0
 10
186.411
 20
8.64856
 30
0.0
 11
189.712
 21
8.64856
 31
0.0
  0
LINE
  8
0
 62
     0
 10
189.712
 20
8.64856
 30
0.0
 11
189.712
 21
9.84885
 31
0.0
  0
LINE
  8
0
 62
     0
 10
189.712
 20
9.84885
 30
0.0
 11
191.437
 21
9.84885
 31
0.0
  0
LINE
  8
0
 62
     0
 10
191.437
 20
9.84885
 30
0.0
 11
191.437
 21
16.1189
 31
0.0
  0
LINE
  8
0
 62
     0
 10
191.437
 20
16.1189
 30
0.0
 11
192.261
 21
16.1189
 31
0.0
  0
LINE
  8
0
 62
     0
 10
192.261
 20
16.1189
 30
0.0
 11
192.261
 21
18.9177
 31
0.0
  0
LINE
  8
0
 62
     0
 10
192.261
 20
18.9177
 30
0.0
 11
191.437
 21
18.9177
 31
0.0
  0
LINE
  8
0
 62
     0
 10
191.437
 20
18.9177
 30
0.0
 11
191.437
 21
22.1478
 31
0.0
  0
LINE
  8
0
 62
     0
 10
191.437
 20
22.1478
 30
0.0
 11
184.686
 21
22.1478
 31
0.0
  0
LINE
  8
0
 62
     0
 10
184.686
 20
22.1478
 30
0.0
 11
184.686
 21
18.9177
 31
0.0
  0
LINE
  8
0
 62
     0
 10
184.686
 20
18.9177
 30
0.0
 11
183.162
 21
18.9177
 31
0.0
  0
LINE
  8
0
 62
     0
 10
183.162
 20
18.9177
 30
0.0
 11
183.162
 21
19.5185
 31
0.0
  0
LINE
  8
0
 62
     0
 10
183.162
 20
19.5185
 30
0.0
 11
183.961
 21
19.5185
 31
0.0
  0
LINE
  8
0
 62
     0
 10
183.961
 20
19.5185
 30
0.0
 11
183.961
 21
22.6177
 31
0.0
  0
LINE
  8
0
 62
     0
 10
183.961
 20
22.6177
 30
0.0
 11
183.162
 21
22.6177
 31
0.0
  0
LINE
  8
0
 62
     0
 10
183.162
 20
22.6177
 30
0.0
 11
183.162
 21
23.6182
 31
0.0
  0
LINE
  8
0
 62
     0
 10
183.162
 20
23.6182
 30
0.0
 11
169.161
 21
23.6182
 31
0.0
  0
LINE
  8
0
 62
     0
 10
11.9999
 20
23.6182
 30
0.0
 11
11.9999
 21
22.6177
 31
0.0
  0
LINE
  8
0
 62
     0
 10
11.9999
 20
22.6177
 30
0.0
 11
11.1993
 21
22.6177
 31
0.0
  0
LINE
  8
0
 62
     0
 10
11.1993
 20
22.6177
 30
0.0
 11
11.1993
 21
19.5185
 31
0.0
  0
LINE
  8
0
 62
     0
 10
11.1993
 20
19.5185
 30
0.0
 11
11.9999
 21
19.5185
 31
0.0
  0
LINE
  8
0
 62
     0
 10
11.9999
 20
19.5185
 30
0.0
 11
11.9999
 21
13.7184
 31
0.0
  0
LINE
  8
0
 62
     0
 10
11.9999
 20
13.7184
 30
0.0
 11
11.1993
 21
13.7184
 31
0.0
  0
LINE
  8
0
 62
     0
 10
11.1993
 20
13.7184
 30
0.0
 11
11.1993
 21
10.6178
 31
0.0
  0
LINE
  8
0
 62
     0
 10
11.1993
 20
10.6178
 30
0.0
 11
11.9999
 21
10.6178
 31
0.0
  0
LINE
  8
0
 62
     0
 10
11.9999
 20
10.6178
 30
0.0
 11
11.9999
 21
9.6187
 31
0.0
  0
LINE
  8
0
 62
     0
 10
11.9999
 20
9.6187
 30
0.0
 11
25.9994
 21
9.6187
 31
0.0
  0
LINE
  8
0
 62
     0
 10
25.9994
 20
9.6187
 30
0.0
 11
25.9994
 21
10.6178
 31
0.0
  0
LINE
  8
0
 62
     0
 10
25.9994
 20
10.6178
 30
0.0
 11
26.8001
 21
10.6178
 31
0.0
  0
LINE
  8
0
 62
     0
 10
26.8001
 20
10.6178
 30
0.0
 11
26.8001
 21
13.7184
 31
0.0
  0
LINE
  8
0
 62
     0
 10
26.8001
 20
13.7184
 30
0.0
 11
25.9994
 21
13.7184
 31
0.0
  0
LINE
  8
0
 62
     0
 10
25.9994
 20
13.7184
 30
0.0
 11
25.9994
 21
19.5185
 31
0.0
  0
LINE
  8
0
 62
     0
 10
25.9994
 20
19.5185
 30
0.0
 11
26.8001
 21
19.5185
 31
0.0
  0
LINE
  8
0
 62
     0
 10
26.8001
 20
19.5185
 30
0.0
 11
26.8001
 21
22.6177
 31
0.0
  0
LINE
  8
0
 62
     0
 10
26.8001
 20
22.6177
 30
0.0
 11
25.9994
 21
22.6177
 31
0.0
  0
LINE
  8
0
 62
     0
 10
25.9994
 20
22.6177
 30
0.0
 11
25.9994
 21
23.6182
 31
0.0
  0
LINE
  8
0
 62
     0
 10
25.9994
 20
23.6182
 30
0.0
 11
11.9999
 21
23.6182
 31
0.0
  0
LINE
  8
0
 62
     0
 10
33.4312
 20
23.6182
 30
0.0
 11
33.4312
 21
22.6177
 31
0.0
  0
LINE
  8
0
 62
     0
 10
33.4312
 20
22.6177
 30
0.0
 11
32.6306
 21
22.6177
 31
0.0
  0
LINE
  8
0
 62
     0
 10
32.6306
 20
22.6177
 30
0.0
 11
32.6306
 21
19.5185
 31
0.0
  0
LINE
  8
0
 62
     0
 10
32.6306
 20
19.5185
 30
0.0
 11
33.4312
 21
19.5185
 31
0.0
  0
LINE
  8
0
 62
     0
 10
33.4312
 20
19.5185
 30
0.0
 11
33.4312
 21
13.7184
 31
0.0
  0
LINE
  8
0
 62
     0
 10
33.4312
 20
13.7184
 30
0.0
 11
32.6306
 21
13.7184
 31
0.0
  0
LINE
  8
0
 62
     0
 10
32.6306
 20
13.7184
 30
0.0
 11
32.6306
 21
10.6178
 31
0.0
  0
LINE
  8
0
 62
     0
 10
32.6306
 20
10.6178
 30
0.0
 11
33.4312
 21
10.6178
 31
0.0
  0
LINE
  8
0
 62
     0
 10
33.4312
 20
10.6178
 30
0.0
 11
33.4312
 21
9.6187
 31
0.0
  0
LINE
  8
0
 62
     0
 10
33.4312
 20
9.6187
 30
0.0
 11
47.4306
 21
9.6187
 31
0.0
  0
LINE
  8
0
 62
     0
 10
47.4306
 20
9.6187
 30
0.0
 11
47.4306
 21
10.6178
 31
0.0
  0
LINE
  8
0
 62
     0
 10
47.4306
 20
10.6178
 30
0.0
 11
48.2314
 21
10.6178
 31
0.0
  0
LINE
  8
0
 62
     0
 10
48.2314
 20
10.6178
 30
0.0
 11
48.2314
 21
13.7184
 31
0.0
  0
LINE
  8
0
 62
     0
 10
48.2314
 20
13.7184
 30
0.0
 11
47.4306
 21
13.7184
 31
0.0
  0
LINE
  8
0
 62
     0
 10
47.4306
 20
13.7184
 30
0.0
 11
47.4306
 21
19.5185
 31
0.0
  0
LINE
  8
0
 62
     0
 10
47.4306
 20
19.5185
 30
0.0
 11
48.2314
 21
19.5185
 31
0.0
  0
LINE
  8
0
 62
     0
 10
48.2314
 20
19.5185
 30
0.0
 11
48.2314
 21
22.6177
 31
0.0
  0
LINE
  8
0
 62
     0
 10
48.2314
 20
22.6177
 30
0.0
 11
47.4306
 21
22.6177
 31
0.0
  0
LINE
  8
0
 62
     0
 10
47.4306
 20
22.6177
 30
0.0
 11
47.4306
 21
23.6182
 31
0.0
  0
LINE
  8
0
 62
     0
 10
47.4306
 20
23.6182
 30
0.0
 11
33.4312
 21
23.6182
 31
0.0
  0
LINE
  8
0
 62
     0
 10
54.8612
 20
23.6182
 30
0.0
 11
54.8612
 21
22.6177
 31
0.0
  0
LINE
  8
0
 62
     0
 10
54.8612
 20
22.6177
 30
0.0
 11
54.0618
 21
22.6177
 31
0.0
  0
LINE
  8
0
 62
     0
 10
54.0618
 20
22.6177
 30
0.0
 11
54.0618
 21
19.5185
 31
0.0
  0
LINE
  8
0
 62
     0
 10
54.0618
 20
19.5185
 30
0.0
 11
54.8612
 21
19.5185
 31
0.0
  0
LINE
  8
0
 62
     0
 10
54.8612
 20
19.5185
 30
0.0
 11
54.8612
 21
13.7184
 31
0.0
  0
LINE
  8
0
 62
     0
 10
54.8612
 20
13.7184
 30
0.0
 11
54.0618
 21
13.7184
 31
0.0
  0
LINE
  8
0
 62
     0
 10
54.0618
 20
13.7184
 30
0.0
 11
54.0618
 21
10.6178
 31
0.0
  0
LINE
  8
0
 62
     0
 10
54.0618
 20
10.6178
 30
0.0
 11
54.8612
 21
10.6178
 31
0.0
  0
LINE
  8
0
 62
     0
 10
54.8612
 20
10.6178
 30
0.0
 11
54.8612
 21
9.6187
 31
0.0
  0
LINE
  8
0
 62
     0
 10
54.8612
 20
9.6187
 30
0.0
 11
68.8619
 21
9.6187
 31
0.0
  0
LINE
  8
0
 62
     0
 10
68.8619
 20
9.6187
 30
0.0
 11
68.8619
 21
10.6178
 31
0.0
  0
LINE
  8
0
 62
     0
 10
68.8619
 20
10.6178
 30
0.0
 11
69.6613
 21
10.6178
 31
0.0
  0
LINE
  8
0
 62
     0
 10
69.6613
 20
10.6178
 30
0.0
 11
69.6613
 21
13.7184
 31
0.0
  0
LINE
  8
0
 62
     0
 10
69.6613
 20
13.7184
 30
0.0
 11
68.8619
 21
13.7184
 31
0.0
  0
LINE
  8
0
 62
     0
 10
68.8619
 20
13.7184
 30
0.0
 11
68.8619
 21
19.5185
 31
0.0
  0
LINE
  8
0
 62
     0
 10
68.8619
 20
19.5185
 30
0.0
 11
69.6613
 21
19.5185
 31
0.0
  0
LINE
  8
0
 62
     0
 10
69.6613
 20
19.5185
 30
0.0
 11
69.6613
 21
22.6177
 31
0.0
  0
LINE
  8
0
 62
     0
 10
69.6613
 20
22.6177
 30
0.0
 11
68.8619
 21
22.6177
 31
0.0
  0
LINE
  8
0
 62
     0
 10
68.8619
 20
22.6177
 30
0.0
 11
68.8619
 21
23.6182
 31
0.0
  0
LINE
  8
0
 62
     0
 10
68.8619
 20
23.6182
 30
0.0
 11
54.8612
 21
23.6182
 31
0.0
  0
LINE
  8
0
 62
     0
 10
119.156
 20
23.6182
 30
0.0
 11
119.156
 21
22.6177
 31
0.0
  0
LINE
  8
0
 62
     0
 10
119.156
 20
22.6177
 30
0.0
 11
118.356
 21
22.6177
 31
0.0
  0
LINE
  8
0
 62
     0
 10
118.356
 20
22.6177
 30
0.0
 11
118.356
 21
19.5185
 31
0.0
  0
LINE
  8
0
 62
     0
 10
118.356
 20
19.5185
 30
0.0
 11
119.156
 21
19.5185
 31
0.0
  0
LINE
  8
0
 62
     0
 10
119.156
 20
19.5185
 30
0.0
 11
119.156
 21
13.7184
 31
0.0
  0
LINE
  8
0
 62
     0
 10
119.156
 20
13.7184
 30
0.0
 11
118.356
 21
13.7184
 31
0.0
  0
LINE
  8
0
 62
     0
 10
118.356
 20
13.7184
 30
0.0
 11
118.356
 21
10.6178
 31
0.0
  0
LINE
  8
0
 62
     0
 10
118.356
 20
10.6178
 30
0.0
 11
119.156
 21
10.6178
 31
0.0
  0
LINE
  8
0
 62
     0
 10
119.156
 20
10.6178
 30
0.0
 11
119.156
 21
9.6187
 31
0.0
  0
LINE
  8
0
 62
     0
 10
119.156
 20
9.6187
 30
0.0
 11
133.156
 21
9.6187
 31
0.0
  0
LINE
  8
0
 62
     0
 10
133.156
 20
9.6187
 30
0.0
 11
133.156
 21
10.6178
 31
0.0
  0
LINE
  8
0
 62
     0
 10
133.156
 20
10.6178
 30
0.0
 11
133.956
 21
10.6178
 31
0.0
  0
LINE
  8
0
 62
     0
 10
133.956
 20
10.6178
 30
0.0
 11
133.956
 21
13.7184
 31
0.0
  0
LINE
  8
0
 62
     0
 10
133.956
 20
13.7184
 30
0.0
 11
133.156
 21
13.7184
 31
0.0
  0
LINE
  8
0
 62
     0
 10
133.156
 20
13.7184
 30
0.0
 11
133.156
 21
19.5185
 31
0.0
  0
LINE
  8
0
 62
     0
 10
133.156
 20
19.5185
 30
0.0
 11
133.956
 21
19.5185
 31
0.0
  0
LINE
  8
0
 62
     0
 10
133.956
 20
19.5185
 30
0.0
 11
133.956
 21
22.6177
 31
0.0
  0
LINE
  8
0
 62
     0
 10
133.956
 20
22.6177
 30
0.0
 11
133.156
 21
22.6177
 31
0.0
  0
LINE
  8
0
 62
     0
 10
133.156
 20
22.6177
 30
0.0
 11
133.156
 21
23.6182
 31
0.0
  0
LINE
  8
0
 62
     0
 10
133.156
 20
23.6182
 30
0.0
 11
119.156
 21
23.6182
 31
0.0
  0
LINE
  8
0
 62
     0
 10
138.206
 20
23.6182
 30
0.0
 11
138.206
 21
22.6177
 31
0.0
  0
LINE
  8
0
 62
     0
 10
138.206
 20
22.6177
 30
0.0
 11
137.406
 21
22.6177
 31
0.0
  0
LINE
  8
0
 62
     0
 10
137.406
 20
22.6177
 30
0.0
 11
137.406
 21
19.5185
 31
0.0
  0
LINE
  8
0
 62
     0
 10
137.406
 20
19.5185
 30
0.0
 11
138.206
 21
19.5185
 31
0.0
  0
LINE
  8
0
 62
     0
 10
138.206
 20
19.5185
 30
0.0
 11
138.206
 21
13.7184
 31
0.0
  0
LINE
  8
0
 62
     0
 10
138.206
 20
13.7184
 30
0.0
 11
137.406
 21
13.7184
 31
0.0
  0
LINE
  8
0
 62
     0
 10
137.406
 20
13.7184
 30
0.0
 11
137.406
 21
10.6178
 31
0.0
  0
LINE
  8
0
 62
     0
 10
137.406
 20
10.6178
 30
0.0
 11
138.206
 21
10.6178
 31
0.0
  0
LINE
  8
0
 62
     0
 10
138.206
 20
10.6178
 30
0.0
 11
138.206
 21
9.6187
 31
0.0
  0
LINE
  8
0
 62
     0
 10
138.206
 20
9.6187
 30
0.0
 11
152.206
 21
9.6187
 31
0.0
  0
LINE
  8
0
 62
     0
 10
152.206
 20
9.6187
 30
0.0
 11
152.206
 21
10.6178
 31
0.0
  0
LINE
  8
0
 62
     0
 10
152.206
 20
10.6178
 30
0.0
 11
153.006
 21
10.6178
 31
0.0
  0
LINE
  8
0
 62
     0
 10
153.006
 20
10.6178
 30
0.0
 11
153.006
 21
13.7184
 31
0.0
  0
LINE
  8
0
 62
     0
 10
153.006
 20
13.7184
 30
0.0
 11
152.206
 21
13.7184
 31
0.0
  0
LINE
  8
0
 62
     0
 10
152.206
 20
13.7184
 30
0.0
 11
152.206
 21
19.5185
 31
0.0
  0
LINE
  8
0
 62
     0
 10
152.206
 20
19.5185
 30
0.0
 11
153.006
 21
19.5185
 31
0.0
  0
LINE
  8
0
 62
     0
 10
153.006
 20
19.5185
 30
0.0
 11
153.006
 21
22.6177
 31
0.0
  0
LINE
  8
0
 62
     0
 10
153.006
 20
22.6177
 30
0.0
 11
152.206
 21
22.6177
 31
0.0
  0
LINE
  8
0
 62
     0
 10
152.206
 20
22.6177
 30
0.0
 11
152.206
 21
23.6182
 31
0.0
  0
LINE
  8
0
 62
     0
 10
152.206
 20
23.6182
 30
0.0
 11
138.206
 21
23.6182
 31
0.0
  0
LINE
  8
0
 62
     0
 10
200.119
 20
23.6182
 30
0.0
 11
200.119
 21
22.6177
 31
0.0
  0
LINE
  8
0
 62
     0
 10
200.119
 20
22.6177
 30
0.0
 11
199.318
 21
22.6177
 31
0.0
  0
LINE
  8
0
 62
     0
 10
199.318
 20
22.6177
 30
0.0
 11
199.318
 21
19.5185
 31
0.0
  0
LINE
  8
0
 62
     0
 10
199.318
 20
19.5185
 30
0.0
 11
200.119
 21
19.5185
 31
0.0
  0
LINE
  8
0
 62
     0
 10
200.119
 20
19.5185
 30
0.0
 11
200.119
 21
13.7184
 31
0.0
  0
LINE
  8
0
 62
     0
 10
200.119
 20
13.7184
 30
0.0
 11
199.318
 21
13.7184
 31
0.0
  0
LINE
  8
0
 62
     0
 10
199.318
 20
13.7184
 30
0.0
 11
199.318
 21
10.6178
 31
0.0
  0
LINE
  8
0
 62
     0
 10
199.318
 20
10.6178
 30
0.0
 11
200.119
 21
10.6178
 31
0.0
  0
LINE
  8
0
 62
     0
 10
200.119
 20
10.6178
 30
0.0
 11
200.119
 21
9.6187
 31
0.0
  0
LINE
  8
0
 62
     0
 10
200.119
 20
9.6187
 30
0.0
 11
214.118
 21
9.6187
 31
0.0
  0
LINE
  8
0
 62
     0
 10
214.118
 20
9.6187
 30
0.0
 11
214.118
 21
10.6178
 31
0.0
  0
LINE
  8
0
 62
     0
 10
214.118
 20
10.6178
 30
0.0
 11
214.919
 21
10.6178
 31
0.0
  0
LINE
  8
0
 62
     0
 10
214.919
 20
10.6178
 30
0.0
 11
214.919
 21
13.7184
 31
0.0
  0
LINE
  8
0
 62
     0
 10
214.919
 20
13.7184
 30
0.0
 11
214.118
 21
13.7184
 31
0.0
  0
LINE
  8
0
 62
     0
 10
214.118
 20
13.7184
 30
0.0
 11
214.118
 21
19.5185
 31
0.0
  0
LINE
  8
0
 62
     0
 10
214.118
 20
19.5185
 30
0.0
 11
214.919
 21
19.5185
 31
0.0
  0
LINE
  8
0
 62
     0
 10
214.919
 20
19.5185
 30
0.0
 11
214.919
 21
22.6177
 31
0.0
  0
LINE
  8
0
 62
     0
 10
214.919
 20
22.6177
 30
0.0
 11
214.118
 21
22.6177
 31
0.0
  0
LINE
  8
0
 62
     0
 10
214.118
 20
22.6177
 30
0.0
 11
214.118
 21
23.6182
 31
0.0
  0
LINE
  8
0
 62
     0
 10
214.118
 20
23.6182
 30
0.0
 11
200.119
 21
23.6182
 31
0.0
  0
LINE
  8
0
 62
     0
 10
219.169
 20
23.6182
 30
0.0
 11
219.169
 21
22.6177
 31
0.0
  0
LINE
  8
0
 62
     0
 10
219.169
 20
22.6177
 30
0.0
 11
218.368
 21
22.6177
 31
0.0
  0
LINE
  8
0
 62
     0
 10
218.368
 20
22.6177
 30
0.0
 11
218.368
 21
19.5185
 31
0.0
  0
LINE
  8
0
 62
     0
 10
218.368
 20
19.5185
 30
0.0
 11
219.169
 21
19.5185
 31
0.0
  0
LINE
  8
0
 62
     0
 10
219.169
 20
19.5185
 30
0.0
 11
219.169
 21
13.7184
 31
0.0
  0
LINE
  8
0
 62
     0
 10
219.169
 20
13.7184
 30
0.0
 11
218.368
 21
13.7184
 31
0.0
  0
LINE
  8
0
 62
     0
 10
218.368
 20
13.7184
 30
0.0
 11
218.368
 21
10.6178
 31
0.0
  0
LINE
  8
0
 62
     0
 10
218.368
 20
10.6178
 30
0.0
 11
219.169
 21
10.6178
 31
0.0
  0
LINE
  8
0
 62
     0
 10
219.169
 20
10.6178
 30
0.0
 11
219.169
 21
9.6187
 31
0.0
  0
LINE
  8
0
 62
     0
 10
219.169
 20
9.6187
 30
0.0
 11
233.168
 21
9.6187
 31
0.0
  0
LINE
  8
0
 62
     0
 10
233.168
 20
9.6187
 30
0.0
 11
233.168
 21
10.6178
 31
0.0
  0
LINE
  8
0
 62
     0
 10
233.168
 20
10.6178
 30
0.0
 11
233.969
 21
10.6178
 31
0.0
  0
LINE
  8
0
 62
     0
 10
233.969
 20
10.6178
 30
0.0
 11
233.969
 21
13.7184
 31
0.0
  0
LINE
  8
0
 62
     0
 10
233.969
 20
13.7184
 30
0.0
 11
233.168
 21
13.7184
 31
0.0
  0
LINE
  8
0
 62
     0
 10
233.168
 20
13.7184
 30
0.0
 11
233.168
 21
19.5185
 31
0.0
  0
LINE
  8
0
 62
     0
 10
233.168
 20
19.5185
 30
0.0
 11
233.969
 21
19.5185
 31
0.0
  0
LINE
  8
0
 62
     0
 10
233.969
 20
19.5185
 30
0.0
 11
233.969
 21
22.6177
 31
0.0
  0
LINE
  8
0
 62
     0
 10
233.969
 20
22.6177
 30
0.0
 11
233.168
 21
22.6177
 31
0.0
  0
LINE
  8
0
 62
     0
 10
233.168
 20
22.6177
 30
0.0
 11
233.168
 21
23.6182
 31
0.0
  0
LINE
  8
0
 62
     0
 10
233.168
 20
23.6182
 30
0.0
 11
219.169
 21
23.6182
 31
0.0
  0
LINE
  8
0
 62
     0
 10
238.219
 20
23.6182
 30
0.0
 11
238.219
 21
22.6177
 31
0.0
  0
LINE
  8
0
 62
     0
 10
238.219
 20
22.6177
 30
0.0
 11
237.418
 21
22.6177
 31
0.0
  0
LINE
  8
0
 62
     0
 10
237.418
 20
22.6177
 30
0.0
 11
237.418
 21
19.5185
 31
0.0
  0
LINE
  8
0
 62
     0
 10
237.418
 20
19.5185
 30
0.0
 11
238.219
 21
19.5185
 31
0.0
  0
LINE
  8
0
 62
     0
 10
238.219
 20
19.5185
 30
0.0
 11
238.219
 21
13.7184
 31
0.0
  0
LINE
  8
0
 62
     0
 10
238.219
 20
13.7184
 30
0.0
 11
237.418
 21
13.7184
 31
0.0
  0
LINE
  8
0
 62
     0
 10
237.418
 20
13.7184
 30
0.0
 11
237.418
 21
10.6178
 31
0.0
  0
LINE
  8
0
 62
     0
 10
237.418
 20
10.6178
 30
0.0
 11
238.219
 21
10.6178
 31
0.0
  0
LINE
  8
0
 62
     0
 10
238.219
 20
10.6178
 30
0.0
 11
238.219
 21
9.6187
 31
0.0
  0
LINE
  8
0
 62
     0
 10
238.219
 20
9.6187
 30
0.0
 11
252.218
 21
9.6187
 31
0.0
  0
LINE
  8
0
 62
     0
 10
252.218
 20
9.6187
 30
0.0
 11
252.218
 21
10.6178
 31
0.0
  0
LINE
  8
0
 62
     0
 10
252.218
 20
10.6178
 30
0.0
 11
253.019
 21
10.6178
 31
0.0
  0
LINE
  8
0
 62
     0
 10
253.019
 20
10.6178
 30
0.0
 11
253.019
 21
13.7184
 31
0.0
  0
LINE
  8
0
 62
     0
 10
253.019
 20
13.7184
 30
0.0
 11
252.218
 21
13.7184
 31
0.0
  0
LINE
  8
0
 62
     0
 10
252.218
 20
13.7184
 30
0.0
 11
252.218
 21
19.5185
 31
0.0
  0
LINE
  8
0
 62
     0
 10
252.218
 20
19.5185
 30
0.0
 11
253.019
 21
19.5185
 31
0.0
  0
LINE
  8
0
 62
     0
 10
253.019
 20
19.5185
 30
0.0
 11
253.019
 21
22.6177
 31
0.0
  0
LINE
  8
0
 62
     0
 10
253.019
 20
22.6177
 30
0.0
 11
252.218
 21
22.6177
 31
0.0
  0
LINE
  8
0
 62
     0
 10
252.218
 20
22.6177
 30
0.0
 11
252.218
 21
23.6182
 31
0.0
  0
LINE
  8
0
 62
     0
 10
252.218
 20
23.6182
 30
0.0
 11
238.219
 21
23.6182
 31
0.0
  0
LINE
  8
0
 62
     0
 10
257.269
 20
23.6182
 30
0.0
 11
257.269
 21
22.6177
 31
0.0
  0
LINE
  8
0
 62
     0
 10
257.269
 20
22.6177
 30
0.0
 11
256.468
 21
22.6177
 31
0.0
  0
LINE
  8
0
 62
     0
 10
256.468
 20
22.6177
 30
0.0
 11
256.468
 21
19.5185
 31
0.0
  0
LINE
  8
0
 62
     0
 10
256.468
 20
19.5185
 30
0.0
 11
257.269
 21
19.5185
 31
0.0
  0
LINE
  8
0
 62
     0
 10
257.269
 20
19.5185
 30
0.0
 11
257.269
 21
13.7184
 31
0.0
  0
LINE
  8
0
 62
     0
 10
257.269
 20
13.7184
 30
0.0
 11
256.468
 21
13.7184
 31
0.0
  0
LINE
  8
0
 62
     0
 10
256.468
 20
13.7184
 30
0.0
 11
256.468
 21
10.6178
 31
0.0
  0
LINE
  8
0
 62
     0
 10
256.468
 20
10.6178
 30
0.0
 11
257.269
 21
10.6178
 31
0.0
  0
LINE
  8
0
 62
     0
 10
257.269
 20
10.6178
 30
0.0
 11
257.269
 21
9.6187
 31
0.0
  0
LINE
  8
0
 62
     0
 10
257.269
 20
9.6187
 30
0.0
 11
271.268
 21
9.6187
 31
0.0
  0
LINE
  8
0
 62
     0
 10
271.268
 20
9.6187
 30
0.0
 11
271.268
 21
10.6178
 31
0.0
  0
LINE
  8
0
 62
     0
 10
271.268
 20
10.6178
 30
0.0
 11
272.069
 21
10.6178
 31
0.0
  0
LINE
  8
0
 62
     0
 10
272.069
 20
10.6178
 30
0.0
 11
272.069
 21
13.7184
 31
0.0
  0
LINE
  8
0
 62
     0
 10
272.069
 20
13.7184
 30
0.0
 11
271.268
 21
13.7184
 31
0.0
  0
LINE
  8
0
 62
     0
 10
271.268
 20
13.7184
 30
0.0
 11
271.268
 21
19.5185
 31
0.0
  0
LINE
  8
0
 62
     0
 10
271.268
 20
19.5185
 30
0.0
 11
272.069
 21
19.5185
 31
0.0
  0
LINE
  8
0
 62
     0
 10
272.069
 20
19.5185
 30
0.0
 11
272.069
 21
22.6177
 31
0.0
  0
LINE
  8
0
 62
     0
 10
272.069
 20
22.6177
 30
0.0
 11
271.268
 21
22.6177
 31
0.0
  0
LINE
  8
0
 62
     0
 10
271.268
 20
22.6177
 30
0.0
 11
271.268
 21
23.6182
 31
0.0
  0
LINE
  8
0
 62
     0
 10
271.268
 20
23.6182
 30
0.0
 11
257.269
 21
23.6182
 31
0.0
  0
LINE
  8
0
 62
     0
 10
276.319
 20
23.6182
 30
0.0
 11
276.319
 21
22.6177
 31
0.0
  0
LINE
  8
0
 62
     0
 10
276.319
 20
22.6177
 30
0.0
 11
275.518
 21
22.6177
 31
0.0
  0
LINE
  8
0
 62
     0
 10
275.518
 20
22.6177
 30
0.0
 11
275.518
 21
19.5185
 31
0.0
  0
LINE
  8
0
 62
     0
 10
275.518
 20
19.5185
 30
0.0
 11
276.319
 21
19.5185
 31
0.0
  0
LINE
  8
0
 62
     0
 10
276.319
 20
19.5185
 30
0.0
 11
276.319
 21
13.7184
 31
0.0
  0
LINE
  8
0
 62
     0
 10
276.319
 20
13.7184
 30
0.0
 11
275.518
 21
13.7184
 31
0.0
  0
LINE
  8
0
 62
     0
 10
275.518
 20
13.7184
 30
0.0
 11
275.518
 21
10.6178
 31
0.0
  0
LINE
  8
0
 62
     0
 10
275.518
 20
10.6178
 30
0.0
 11
276.319
 21
10.6178
 31
0.0
  0
LINE
  8
0
 62
     0
 10
276.319
 20
10.6178
 30
0.0
 11
276.319
 21
9.6187
 31
0.0
  0
LINE
  8
0
 62
     0
 10
276.319
 20
9.6187
 30
0.0
 11
290.318
 21
9.6187
 31
0.0
  0
LINE
  8
0
 62
     0
 10
290.318
 20
9.6187
 30
0.0
 11
290.318
 21
10.6178
 31
0.0
  0
LINE
  8
0
 62
     0
 10
290.318
 20
10.6178
 30
0.0
 11
291.119
 21
10.6178
 31
0.0
  0
LINE
  8
0
 62
     0
 10
291.119
 20
10.6178
 30
0.0
 11
291.119
 21
13.7184
 31
0.0
  0
LINE
  8
0
 62
     0
 10
291.119
 20
13.7184
 30
0.0
 11
290.318
 21
13.7184
 31
0.0
  0
LINE
  8
0
 62
     0
 10
290.318
 20
13.7184
 30
0.0
 11
290.318
 21
19.5185
 31
0.0
  0
LINE
  8
0
 62
     0
 10
290.318
 20
19.5185
 30
0.0
 11
291.119
 21
19.5185
 31
0.0
  0
LINE
  8
0
 62
     0
 10
291.119
 20
19.5185
 30
0.0
 11
291.119
 21
22.6177
 31
0.0
  0
LINE
  8
0
 62
     0
 10
291.119
 20
22.6177
 30
0.0
 11
290.318
 21
22.6177
 31
0.0
  0
LINE
  8
0
 62
     0
 10
290.318
 20
22.6177
 30
0.0
 11
290.318
 21
23.6182
 31
0.0
  0
LINE
  8
0
 62
     0
 10
290.318
 20
23.6182
 30
0.0
 11
276.319
 21
23.6182
 31
0.0
  0
LINE
  8
0
 62
     0
 10
295.369
 20
23.6182
 30
0.0
 11
295.369
 21
22.6177
 31
0.0
  0
LINE
  8
0
 62
     0
 10
295.369
 20
22.6177
 30
0.0
 11
294.568
 21
22.6177
 31
0.0
  0
LINE
  8
0
 62
     0
 10
294.568
 20
22.6177
 30
0.0
 11
294.568
 21
19.5185
 31
0.0
  0
LINE
  8
0
 62
     0
 10
294.568
 20
19.5185
 30
0.0
 11
295.369
 21
19.5185
 31
0.0
  0
LINE
  8
0
 62
     0
 10
295.369
 20
19.5185
 30
0.0
 11
295.369
 21
13.7184
 31
0.0
  0
LINE
  8
0
 62
     0
 10
295.369
 20
13.7184
 30
0.0
 11
294.568
 21
13.7184
 31
0.0
  0
LINE
  8
0
 62
     0
 10
294.568
 20
13.7184
 30
0.0
 11
294.568
 21
10.6178
 31
0.0
  0
LINE
  8
0
 62
     0
 10
294.568
 20
10.6178
 30
0.0
 11
295.369
 21
10.6178
 31
0.0
  0
LINE
  8
0
 62
     0
 10
295.369
 20
10.6178
 30
0.0
 11
295.369
 21
9.6187
 31
0.0
  0
LINE
  8
0
 62
     0
 10
295.369
 20
9.6187
 30
0.0
 11
309.368
 21
9.6187
 31
0.0
  0
LINE
  8
0
 62
     0
 10
309.368
 20
9.6187
 30
0.0
 11
309.368
 21
10.6178
 31
0.0
  0
LINE
  8
0
 62
     0
 10
309.368
 20
10.6178
 30
0.0
 11
310.169
 21
10.6178
 31
0.0
  0
LINE
  8
0
 62
     0
 10
310.169
 20
10.6178
 30
0.0
 11
310.169
 21
13.7184
 31
0.0
  0
LINE
  8
0
 62
     0
 10
310.169
 20
13.7184
 30
0.0
 11
309.368
 21
13.7184
 31
0.0
  0
LINE
  8
0
 62
     0
 10
309.368
 20
13.7184
 30
0.0
 11
309.368
 21
19.5185
 31
0.0
  0
LINE
  8
0
 62
     0
 10
309.368
 20
19.5185
 30
0.0
 11
310.169
 21
19.5185
 31
0.0
  0
LINE
  8
0
 62
     0
 10
310.169
 20
19.5185
 30
0.0
 11
310.169
 21
22.6177
 31
0.0
  0
LINE
  8
0
 62
     0
 10
310.169
 20
22.6177
 30
0.0
 11
309.368
 21
22.6177
 31
0.0
  0
LINE
  8
0
 62
     0
 10
309.368
 20
22.6177
 30
0.0
 11
309.368
 21
23.6182
 31
0.0
  0
LINE
  8
0
 62
     0
 10
309.368
 20
23.6182
 30
0.0
 11
295.369
 21
23.6182
 31
0.0
  0
LINE
  8
0
 62
     0
 10
21.5249
 20
42.6681
 30
0.0
 11
21.5249
 21
41.6676
 31
0.0
  0
LINE
  8
0
 62
     0
 10
21.5249
 20
41.6676
 30
0.0
 11
20.7243
 21
41.6676
 31
0.0
  0
LINE
  8
0
 62
     0
 10
20.7243
 20
41.6676
 30
0.0
 11
20.7243
 21
38.5685
 31
0.0
  0
LINE
  8
0
 62
     0
 10
20.7243
 20
38.5685
 30
0.0
 11
21.5249
 21
38.5685
 31
0.0
  0
LINE
  8
0
 62
     0
 10
21.5249
 20
38.5685
 30
0.0
 11
21.5249
 21
37.9677
 31
0.0
  0
LINE
  8
0
 62
     0
 10
21.5249
 20
37.9677
 30
0.0
 11
19.9995
 21
37.9677
 31
0.0
  0
LINE
  8
0
 62
     0
 10
19.9995
 20
37.9677
 30
0.0
 11
19.9995
 21
41.1977
 31
0.0
  0
LINE
  8
0
 62
     0
 10
19.9995
 20
41.1977
 30
0.0
 11
13.2498
 21
41.1977
 31
0.0
  0
LINE
  8
0
 62
     0
 10
13.2498
 20
41.1977
 30
0.0
 11
13.2498
 21
37.9677
 31
0.0
  0
LINE
  8
0
 62
     0
 10
13.2498
 20
37.9677
 30
0.0
 11
12.4244
 21
37.9677
 31
0.0
  0
LINE
  8
0
 62
     0
 10
12.4244
 20
37.9677
 30
0.0
 11
12.4244
 21
35.1689
 31
0.0
  0
LINE
  8
0
 62
     0
 10
12.4244
 20
35.1689
 30
0.0
 11
13.2498
 21
35.1689
 31
0.0
  0
LINE
  8
0
 62
     0
 10
13.2498
 20
35.1689
 30
0.0
 11
13.2498
 21
28.8988
 31
0.0
  0
LINE
  8
0
 62
     0
 10
13.2498
 20
28.8988
 30
0.0
 11
14.9751
 21
28.8988
 31
0.0
  0
LINE
  8
0
 62
     0
 10
14.9751
 20
28.8988
 30
0.0
 11
14.9751
 21
27.6986
 31
0.0
  0
LINE
  8
0
 62
     0
 10
14.9751
 20
27.6986
 30
0.0
 11
18.2742
 21
27.6986
 31
0.0
  0
LINE
  8
0
 62
     0
 10
18.2742
 20
27.6986
 30
0.0
 11
18.2742
 21
28.8988
 31
0.0
  0
LINE
  8
0
 62
     0
 10
18.2742
 20
28.8988
 30
0.0
 11
19.9995
 21
28.8988
 31
0.0
  0
LINE
  8
0
 62
     0
 10
19.9995
 20
28.8988
 30
0.0
 11
19.9995
 21
33.3678
 31
0.0
  0
LINE
  8
0
 62
     0
 10
19.9995
 20
33.3678
 30
0.0
 11
21.5249
 21
33.3678
 31
0.0
  0
LINE
  8
0
 62
     0
 10
21.5249
 20
33.3678
 30
0.0
 11
21.5249
 21
32.7684
 31
0.0
  0
LINE
  8
0
 62
     0
 10
21.5249
 20
32.7684
 30
0.0
 11
20.7243
 21
32.7684
 31
0.0
  0
LINE
  8
0
 62
     0
 10
20.7243
 20
32.7684
 30
0.0
 11
20.7243
 21
29.6678
 31
0.0
  0
LINE
  8
0
 62
     0
 10
20.7243
 20
29.6678
 30
0.0
 11
21.5249
 21
29.6678
 31
0.0
  0
LINE
  8
0
 62
     0
 10
21.5249
 20
29.6678
 30
0.0
 11
21.5249
 21
28.6687
 31
0.0
  0
LINE
  8
0
 62
     0
 10
21.5249
 20
28.6687
 30
0.0
 11
35.5244
 21
28.6687
 31
0.0
  0
LINE
  8
0
 62
     0
 10
35.5244
 20
28.6687
 30
0.0
 11
35.5244
 21
29.6678
 31
0.0
  0
LINE
  8
0
 62
     0
 10
35.5244
 20
29.6678
 30
0.0
 11
36.3252
 21
29.6678
 31
0.0
  0
LINE
  8
0
 62
     0
 10
36.3252
 20
29.6678
 30
0.0
 11
36.3252
 21
32.7684
 31
0.0
  0
LINE
  8
0
 62
     0
 10
36.3252
 20
32.7684
 30
0.0
 11
35.5244
 21
32.7684
 31
0.0
  0
LINE
  8
0
 62
     0
 10
35.5244
 20
32.7684
 30
0.0
 11
35.5244
 21
33.3678
 31
0.0
  0
LINE
  8
0
 62
     0
 10
35.5244
 20
33.3678
 30
0.0
 11
37.0498
 21
33.3678
 31
0.0
  0
LINE
  8
0
 62
     0
 10
37.0498
 20
33.3678
 30
0.0
 11
37.0498
 21
28.8988
 31
0.0
  0
LINE
  8
0
 62
     0
 10
37.0498
 20
28.8988
 30
0.0
 11
38.7752
 21
28.8988
 31
0.0
  0
LINE
  8
0
 62
     0
 10
38.7752
 20
28.8988
 30
0.0
 11
38.7752
 21
27.6986
 31
0.0
  0
LINE
  8
0
 62
     0
 10
38.7752
 20
27.6986
 30
0.0
 11
42.0744
 21
27.6986
 31
0.0
  0
LINE
  8
0
 62
     0
 10
42.0744
 20
27.6986
 30
0.0
 11
42.0744
 21
28.8988
 31
0.0
  0
LINE
  8
0
 62
     0
 10
42.0744
 20
28.8988
 30
0.0
 11
43.7995
 21
28.8988
 31
0.0
  0
LINE
  8
0
 62
     0
 10
43.7995
 20
28.8988
 30
0.0
 11
43.7995
 21
35.1689
 31
0.0
  0
LINE
  8
0
 62
     0
 10
43.7995
 20
35.1689
 30
0.0
 11
44.625
 21
35.1689
 31
0.0
  0
LINE
  8
0
 62
     0
 10
44.625
 20
35.1689
 30
0.0
 11
44.625
 21
37.9677
 31
0.0
  0
LINE
  8
0
 62
     0
 10
44.625
 20
37.9677
 30
0.0
 11
43.7995
 21
37.9677
 31
0.0
  0
LINE
  8
0
 62
     0
 10
43.7995
 20
37.9677
 30
0.0
 11
43.7995
 21
41.1977
 31
0.0
  0
LINE
  8
0
 62
     0
 10
43.7995
 20
41.1977
 30
0.0
 11
37.0498
 21
41.1977
 31
0.0
  0
LINE
  8
0
 62
     0
 10
37.0498
 20
41.1977
 30
0.0
 11
37.0498
 21
37.9677
 31
0.0
  0
LINE
  8
0
 62
     0
 10
37.0498
 20
37.9677
 30
0.0
 11
35.5244
 21
37.9677
 31
0.0
  0
LINE
  8
0
 62
     0
 10
35.5244
 20
37.9677
 30
0.0
 11
35.5244
 21
38.5685
 31
0.0
  0
LINE
  8
0
 62
     0
 10
35.5244
 20
38.5685
 30
0.0
 11
36.3252
 21
38.5685
 31
0.0
  0
LINE
  8
0
 62
     0
 10
36.3252
 20
38.5685
 30
0.0
 11
36.3252
 21
41.6676
 31
0.0
  0
LINE
  8
0
 62
     0
 10
36.3252
 20
41.6676
 30
0.0
 11
35.5244
 21
41.6676
 31
0.0
  0
LINE
  8
0
 62
     0
 10
35.5244
 20
41.6676
 30
0.0
 11
35.5244
 21
42.6681
 31
0.0
  0
LINE
  8
0
 62
     0
 10
35.5244
 20
42.6681
 30
0.0
 11
21.5249
 21
42.6681
 31
0.0
  0
LINE
  8
0
 62
     0
 10
52.4813
 20
42.6681
 30
0.0
 11
52.4813
 21
41.6676
 31
0.0
  0
LINE
  8
0
 62
     0
 10
52.4813
 20
41.6676
 30
0.0
 11
51.6805
 21
41.6676
 31
0.0
  0
LINE
  8
0
 62
     0
 10
51.6805
 20
41.6676
 30
0.0
 11
51.6805
 21
38.5685
 31
0.0
  0
LINE
  8
0
 62
     0
 10
51.6805
 20
38.5685
 30
0.0
 11
52.4813
 21
38.5685
 31
0.0
  0
LINE
  8
0
 62
     0
 10
52.4813
 20
38.5685
 30
0.0
 11
52.4813
 21
32.7684
 31
0.0
  0
LINE
  8
0
 62
     0
 10
52.4813
 20
32.7684
 30
0.0
 11
51.6805
 21
32.7684
 31
0.0
  0
LINE
  8
0
 62
     0
 10
51.6805
 20
32.7684
 30
0.0
 11
51.6805
 21
29.6678
 31
0.0
  0
LINE
  8
0
 62
     0
 10
51.6805
 20
29.6678
 30
0.0
 11
52.4813
 21
29.6678
 31
0.0
  0
LINE
  8
0
 62
     0
 10
52.4813
 20
29.6678
 30
0.0
 11
52.4813
 21
28.6687
 31
0.0
  0
LINE
  8
0
 62
     0
 10
52.4813
 20
28.6687
 30
0.0
 11
66.4806
 21
28.6687
 31
0.0
  0
LINE
  8
0
 62
     0
 10
66.4806
 20
28.6687
 30
0.0
 11
66.4806
 21
29.6678
 31
0.0
  0
LINE
  8
0
 62
     0
 10
66.4806
 20
29.6678
 30
0.0
 11
67.2814
 21
29.6678
 31
0.0
  0
LINE
  8
0
 62
     0
 10
67.2814
 20
29.6678
 30
0.0
 11
67.2814
 21
32.7684
 31
0.0
  0
LINE
  8
0
 62
     0
 10
67.2814
 20
32.7684
 30
0.0
 11
66.4806
 21
32.7684
 31
0.0
  0
LINE
  8
0
 62
     0
 10
66.4806
 20
32.7684
 30
0.0
 11
66.4806
 21
38.5685
 31
0.0
  0
LINE
  8
0
 62
     0
 10
66.4806
 20
38.5685
 30
0.0
 11
67.2814
 21
38.5685
 31
0.0
  0
LINE
  8
0
 62
     0
 10
67.2814
 20
38.5685
 30
0.0
 11
67.2814
 21
41.6676
 31
0.0
  0
LINE
  8
0
 62
     0
 10
67.2814
 20
41.6676
 30
0.0
 11
66.4806
 21
41.6676
 31
0.0
  0
LINE
  8
0
 62
     0
 10
66.4806
 20
41.6676
 30
0.0
 11
66.4806
 21
42.6681
 31
0.0
  0
LINE
  8
0
 62
     0
 10
66.4806
 20
42.6681
 30
0.0
 11
52.4813
 21
42.6681
 31
0.0
  0
LINE
  8
0
 62
     0
 10
71.5313
 20
42.6681
 30
0.0
 11
71.5313
 21
41.6676
 31
0.0
  0
LINE
  8
0
 62
     0
 10
71.5313
 20
41.6676
 30
0.0
 11
70.7305
 21
41.6676
 31
0.0
  0
LINE
  8
0
 62
     0
 10
70.7305
 20
41.6676
 30
0.0
 11
70.7305
 21
38.5685
 31
0.0
  0
LINE
  8
0
 62
     0
 10
70.7305
 20
38.5685
 30
0.0
 11
71.5313
 21
38.5685
 31
0.0
  0
LINE
  8
0
 62
     0
 10
71.5313
 20
38.5685
 30
0.0
 11
71.5313
 21
32.7684
 31
0.0
  0
LINE
  8
0
 62
     0
 10
71.5313
 20
32.7684
 30
0.0
 11
70.7305
 21
32.7684
 31
0.0
  0
LINE
  8
0
 62
     0
 10
70.7305
 20
32.7684
 30
0.0
 11
70.7305
 21
29.6678
 31
0.0
  0
LINE
  8
0
 62
     0
 10
70.7305
 20
29.6678
 30
0.0
 11
71.5313
 21
29.6678
 31
0.0
  0
LINE
  8
0
 62
     0
 10
71.5313
 20
29.6678
 30
0.0
 11
71.5313
 21
28.6687
 31
0.0
  0
LINE
  8
0
 62
     0
 10
71.5313
 20
28.6687
 30
0.0
 11
85.5306
 21
28.6687
 31
0.0
  0
LINE
  8
0
 62
     0
 10
85.5306
 20
28.6687
 30
0.0
 11
85.5306
 21
29.6678
 31
0.0
  0
LINE
  8
0
 62
     0
 10
85.5306
 20
29.6678
 30
0.0
 11
86.3314
 21
29.6678
 31
0.0
  0
LINE
  8
0
 62
     0
 10
86.3314
 20
29.6678
 30
0.0
 11
86.3314
 21
32.7684
 31
0.0
  0
LINE
  8
0
 62
     0
 10
86.3314
 20
32.7684
 30
0.0
 11
85.5306
 21
32.7684
 31
0.0
  0
LINE
  8
0
 62
     0
 10
85.5306
 20
32.7684
 30
0.0
 11
85.5306
 21
38.5685
 31
0.0
  0
LINE
  8
0
 62
     0
 10
85.5306
 20
38.5685
 30
0.0
 11
86.3314
 21
38.5685
 31
0.0
  0
LINE
  8
0
 62
     0
 10
86.3314
 20
38.5685
 30
0.0
 11
86.3314
 21
41.6676
 31
0.0
  0
LINE
  8
0
 62
     0
 10
86.3314
 20
41.6676
 30
0.0
 11
85.5306
 21
41.6676
 31
0.0
  0
LINE
  8
0
 62
     0
 10
85.5306
 20
41.6676
 30
0.0
 11
85.5306
 21
42.6681
 31
0.0
  0
LINE
  8
0
 62
     0
 10
85.5306
 20
42.6681
 30
0.0
 11
71.5313
 21
42.6681
 31
0.0
  0
LINE
  8
0
 62
     0
 10
90.5813
 20
42.6681
 30
0.0
 11
90.5813
 21
41.6676
 31
0.0
  0
LINE
  8
0
 62
     0
 10
90.5813
 20
41.6676
 30
0.0
 11
89.7805
 21
41.6676
 31
0.0
  0
LINE
  8
0
 62
     0
 10
89.7805
 20
41.6676
 30
0.0
 11
89.7805
 21
38.5685
 31
0.0
  0
LINE
  8
0
 62
     0
 10
89.7805
 20
38.5685
 30
0.0
 11
90.5813
 21
38.5685
 31
0.0
  0
LINE
  8
0
 62
     0
 10
90.5813
 20
38.5685
 30
0.0
 11
90.5813
 21
32.7684
 31
0.0
  0
LINE
  8
0
 62
     0
 10
90.5813
 20
32.7684
 30
0.0
 11
89.7805
 21
32.7684
 31
0.0
  0
LINE
  8
0
 62
     0
 10
89.7805
 20
32.7684
 30
0.0
 11
89.7805
 21
29.6678
 31
0.0
  0
LINE
  8
0
 62
     0
 10
89.7805
 20
29.6678
 30
0.0
 11
90.5813
 21
29.6678
 31
0.0
  0
LINE
  8
0
 62
     0
 10
90.5813
 20
29.6678
 30
0.0
 11
90.5813
 21
28.6687
 31
0.0
  0
LINE
  8
0
 62
     0
 10
90.5813
 20
28.6687
 30
0.0
 11
104.581
 21
28.6687
 31
0.0
  0
LINE
  8
0
 62
     0
 10
104.581
 20
28.6687
 30
0.0
 11
104.581
 21
29.6678
 31
0.0
  0
LINE
  8
0
 62
     0
 10
104.581
 20
29.6678
 30
0.0
 11
105.381
 21
29.6678
 31
0.0
  0
LINE
  8
0
 62
     0
 10
105.381
 20
29.6678
 30
0.0
 11
105.381
 21
32.7684
 31
0.0
  0
LINE
  8
0
 62
     0
 10
105.381
 20
32.7684
 30
0.0
 11
104.581
 21
32.7684
 31
0.0
  0
LINE
  8
0
 62
     0
 10
104.581
 20
32.7684
 30
0.0
 11
104.581
 21
38.5685
 31
0.0
  0
LINE
  8
0
 62
     0
 10
104.581
 20
38.5685
 30
0.0
 11
105.381
 21
38.5685
 31
0.0
  0
LINE
  8
0
 62
     0
 10
105.381
 20
38.5685
 30
0.0
 11
105.381
 21
41.6676
 31
0.0
  0
LINE
  8
0
 62
     0
 10
105.381
 20
41.6676
 30
0.0
 11
104.581
 21
41.6676
 31
0.0
  0
LINE
  8
0
 62
     0
 10
104.581
 20
41.6676
 30
0.0
 11
104.581
 21
42.6681
 31
0.0
  0
LINE
  8
0
 62
     0
 10
104.581
 20
42.6681
 30
0.0
 11
90.5813
 21
42.6681
 31
0.0
  0
LINE
  8
0
 62
     0
 10
109.631
 20
42.6681
 30
0.0
 11
109.631
 21
41.6676
 31
0.0
  0
LINE
  8
0
 62
     0
 10
109.631
 20
41.6676
 30
0.0
 11
108.831
 21
41.6676
 31
0.0
  0
LINE
  8
0
 62
     0
 10
108.831
 20
41.6676
 30
0.0
 11
108.831
 21
38.5685
 31
0.0
  0
LINE
  8
0
 62
     0
 10
108.831
 20
38.5685
 30
0.0
 11
109.631
 21
38.5685
 31
0.0
  0
LINE
  8
0
 62
     0
 10
109.631
 20
38.5685
 30
0.0
 11
109.631
 21
32.7684
 31
0.0
  0
LINE
  8
0
 62
     0
 10
109.631
 20
32.7684
 30
0.0
 11
108.831
 21
32.7684
 31
0.0
  0
LINE
  8
0
 62
     0
 10
108.831
 20
32.7684
 30
0.0
 11
108.831
 21
29.6678
 31
0.0
  0
LINE
  8
0
 62
     0
 10
108.831
 20
29.6678
 30
0.0
 11
109.631
 21
29.6678
 31
0.0
  0
LINE
  8
0
 62
     0
 10
109.631
 20
29.6678
 30
0.0
 11
109.631
 21
28.6687
 31
0.0
  0
LINE
  8
0
 62
     0
 10
109.631
 20
28.6687
 30
0.0
 11
123.631
 21
28.6687
 31
0.0
  0
LINE
  8
0
 62
     0
 10
123.631
 20
28.6687
 30
0.0
 11
123.631
 21
29.6678
 31
0.0
  0
LINE
  8
0
 62
     0
 10
123.631
 20
29.6678
 30
0.0
 11
124.43
 21
29.6678
 31
0.0
  0
LINE
  8
0
 62
     0
 10
124.43
 20
29.6678
 30
0.0
 11
124.43
 21
32.7684
 31
0.0
  0
LINE
  8
0
 62
     0
 10
124.43
 20
32.7684
 30
0.0
 11
123.631
 21
32.7684
 31
0.0
  0
LINE
  8
0
 62
     0
 10
123.631
 20
32.7684
 30
0.0
 11
123.631
 21
38.5685
 31
0.0
  0
LINE
  8
0
 62
     0
 10
123.631
 20
38.5685
 30
0.0
 11
124.43
 21
38.5685
 31
0.0
  0
LINE
  8
0
 62
     0
 10
124.43
 20
38.5685
 30
0.0
 11
124.43
 21
41.6676
 31
0.0
  0
LINE
  8
0
 62
     0
 10
124.43
 20
41.6676
 30
0.0
 11
123.631
 21
41.6676
 31
0.0
  0
LINE
  8
0
 62
     0
 10
123.631
 20
41.6676
 30
0.0
 11
123.631
 21
42.6681
 31
0.0
  0
LINE
  8
0
 62
     0
 10
123.631
 20
42.6681
 30
0.0
 11
109.631
 21
42.6681
 31
0.0
  0
LINE
  8
0
 62
     0
 10
128.681
 20
42.6681
 30
0.0
 11
128.681
 21
41.6676
 31
0.0
  0
LINE
  8
0
 62
     0
 10
128.681
 20
41.6676
 30
0.0
 11
127.881
 21
41.6676
 31
0.0
  0
LINE
  8
0
 62
     0
 10
127.881
 20
41.6676
 30
0.0
 11
127.881
 21
38.5685
 31
0.0
  0
LINE
  8
0
 62
     0
 10
127.881
 20
38.5685
 30
0.0
 11
128.681
 21
38.5685
 31
0.0
  0
LINE
  8
0
 62
     0
 10
128.681
 20
38.5685
 30
0.0
 11
128.681
 21
32.7684
 31
0.0
  0
LINE
  8
0
 62
     0
 10
128.681
 20
32.7684
 30
0.0
 11
127.881
 21
32.7684
 31
0.0
  0
LINE
  8
0
 62
     0
 10
127.881
 20
32.7684
 30
0.0
 11
127.881
 21
29.6678
 31
0.0
  0
LINE
  8
0
 62
     0
 10
127.881
 20
29.6678
 30
0.0
 11
128.681
 21
29.6678
 31
0.0
  0
LINE
  8
0
 62
     0
 10
128.681
 20
29.6678
 30
0.0
 11
128.681
 21
28.6687
 31
0.0
  0
LINE
  8
0
 62
     0
 10
128.681
 20
28.6687
 30
0.0
 11
142.681
 21
28.6687
 31
0.0
  0
LINE
  8
0
 62
     0
 10
142.681
 20
28.6687
 30
0.0
 11
142.681
 21
29.6678
 31
0.0
  0
LINE
  8
0
 62
     0
 10
142.681
 20
29.6678
 30
0.0
 11
143.481
 21
29.6678
 31
0.0
  0
LINE
  8
0
 62
     0
 10
143.481
 20
29.6678
 30
0.0
 11
143.481
 21
32.7684
 31
0.0
  0
LINE
  8
0
 62
     0
 10
143.481
 20
32.7684
 30
0.0
 11
142.681
 21
32.7684
 31
0.0
  0
LINE
  8
0
 62
     0
 10
142.681
 20
32.7684
 30
0.0
 11
142.681
 21
38.5685
 31
0.0
  0
LINE
  8
0
 62
     0
 10
142.681
 20
38.5685
 30
0.0
 11
143.481
 21
38.5685
 31
0.0
  0
LINE
  8
0
 62
     0
 10
143.481
 20
38.5685
 30
0.0
 11
143.481
 21
41.6676
 31
0.0
  0
LINE
  8
0
 62
     0
 10
143.481
 20
41.6676
 30
0.0
 11
142.681
 21
41.6676
 31
0.0
  0
LINE
  8
0
 62
     0
 10
142.681
 20
41.6676
 30
0.0
 11
142.681
 21
42.6681
 31
0.0
  0
LINE
  8
0
 62
     0
 10
142.681
 20
42.6681
 30
0.0
 11
128.681
 21
42.6681
 31
0.0
  0
LINE
  8
0
 62
     0
 10
147.731
 20
42.6681
 30
0.0
 11
147.731
 21
41.6676
 31
0.0
  0
LINE
  8
0
 62
     0
 10
147.731
 20
41.6676
 30
0.0
 11
146.931
 21
41.6676
 31
0.0
  0
LINE
  8
0
 62
     0
 10
146.931
 20
41.6676
 30
0.0
 11
146.931
 21
38.5685
 31
0.0
  0
LINE
  8
0
 62
     0
 10
146.931
 20
38.5685
 30
0.0
 11
147.731
 21
38.5685
 31
0.0
  0
LINE
  8
0
 62
     0
 10
147.731
 20
38.5685
 30
0.0
 11
147.731
 21
32.7684
 31
0.0
  0
LINE
  8
0
 62
     0
 10
147.731
 20
32.7684
 30
0.0
 11
146.931
 21
32.7684
 31
0.0
  0
LINE
  8
0
 62
     0
 10
146.931
 20
32.7684
 30
0.0
 11
146.931
 21
29.6678
 31
0.0
  0
LINE
  8
0
 62
     0
 10
146.931
 20
29.6678
 30
0.0
 11
147.731
 21
29.6678
 31
0.0
  0
LINE
  8
0
 62
     0
 10
147.731
 20
29.6678
 30
0.0
 11
147.731
 21
28.6687
 31
0.0
  0
LINE
  8
0
 62
     0
 10
147.731
 20
28.6687
 30
0.0
 11
161.731
 21
28.6687
 31
0.0
  0
LINE
  8
0
 62
     0
 10
161.731
 20
28.6687
 30
0.0
 11
161.731
 21
29.6678
 31
0.0
  0
LINE
  8
0
 62
     0
 10
161.731
 20
29.6678
 30
0.0
 11
162.531
 21
29.6678
 31
0.0
  0
LINE
  8
0
 62
     0
 10
162.531
 20
29.6678
 30
0.0
 11
162.531
 21
32.7684
 31
0.0
  0
LINE
  8
0
 62
     0
 10
162.531
 20
32.7684
 30
0.0
 11
161.731
 21
32.7684
 31
0.0
  0
LINE
  8
0
 62
     0
 10
161.731
 20
32.7684
 30
0.0
 11
161.731
 21
38.5685
 31
0.0
  0
LINE
  8
0
 62
     0
 10
161.731
 20
38.5685
 30
0.0
 11
162.531
 21
38.5685
 31
0.0
  0
LINE
  8
0
 62
     0
 10
162.531
 20
38.5685
 30
0.0
 11
162.531
 21
41.6676
 31
0.0
  0
LINE
  8
0
 62
     0
 10
162.531
 20
41.6676
 30
0.0
 11
161.731
 21
41.6676
 31
0.0
  0
LINE
  8
0
 62
     0
 10
161.731
 20
41.6676
 30
0.0
 11
161.731
 21
42.6681
 31
0.0
  0
LINE
  8
0
 62
     0
 10
161.731
 20
42.6681
 30
0.0
 11
147.731
 21
42.6681
 31
0.0
  0
LINE
  8
0
 62
     0
 10
166.781
 20
42.6681
 30
0.0
 11
166.781
 21
41.6676
 31
0.0
  0
LINE
  8
0
 62
     0
 10
166.781
 20
41.6676
 30
0.0
 11
165.981
 21
41.6676
 31
0.0
  0
LINE
  8
0
 62
     0
 10
165.981
 20
41.6676
 30
0.0
 11
165.981
 21
38.5685
 31
0.0
  0
LINE
  8
0
 62
     0
 10
165.981
 20
38.5685
 30
0.0
 11
166.781
 21
38.5685
 31
0.0
  0
LINE
  8
0
 62
     0
 10
166.781
 20
38.5685
 30
0.0
 11
166.781
 21
32.7684
 31
0.0
  0
LINE
  8
0
 62
     0
 10
166.781
 20
32.7684
 30
0.0
 11
165.981
 21
32.7684
 31
0.0
  0
LINE
  8
0
 62
     0
 10
165.981
 20
32.7684
 30
0.0
 11
165.981
 21
29.6678
 31
0.0
  0
LINE
  8
0
 62
     0
 10
165.981
 20
29.6678
 30
0.0
 11
166.781
 21
29.6678
 31
0.0
  0
LINE
  8
0
 62
     0
 10
166.781
 20
29.6678
 30
0.0
 11
166.781
 21
28.6687
 31
0.0
  0
LINE
  8
0
 62
     0
 10
166.781
 20
28.6687
 30
0.0
 11
180.781
 21
28.6687
 31
0.0
  0
LINE
  8
0
 62
     0
 10
180.781
 20
28.6687
 30
0.0
 11
180.781
 21
29.6678
 31
0.0
  0
LINE
  8
0
 62
     0
 10
180.781
 20
29.6678
 30
0.0
 11
181.581
 21
29.6678
 31
0.0
  0
LINE
  8
0
 62
     0
 10
181.581
 20
29.6678
 30
0.0
 11
181.581
 21
32.7684
 31
0.0
  0
LINE
  8
0
 62
     0
 10
181.581
 20
32.7684
 30
0.0
 11
180.781
 21
32.7684
 31
0.0
  0
LINE
  8
0
 62
     0
 10
180.781
 20
32.7684
 30
0.0
 11
180.781
 21
38.5685
 31
0.0
  0
LINE
  8
0
 62
     0
 10
180.781
 20
38.5685
 30
0.0
 11
181.581
 21
38.5685
 31
0.0
  0
LINE
  8
0
 62
     0
 10
181.581
 20
38.5685
 30
0.0
 11
181.581
 21
41.6676
 31
0.0
  0
LINE
  8
0
 62
     0
 10
181.581
 20
41.6676
 30
0.0
 11
180.781
 21
41.6676
 31
0.0
  0
LINE
  8
0
 62
     0
 10
180.781
 20
41.6676
 30
0.0
 11
180.781
 21
42.6681
 31
0.0
  0
LINE
  8
0
 62
     0
 10
180.781
 20
42.6681
 30
0.0
 11
166.781
 21
42.6681
 31
0.0
  0
LINE
  8
0
 62
     0
 10
185.831
 20
42.6681
 30
0.0
 11
185.831
 21
41.6676
 31
0.0
  0
LINE
  8
0
 62
     0
 10
185.831
 20
41.6676
 30
0.0
 11
185.031
 21
41.6676
 31
0.0
  0
LINE
  8
0
 62
     0
 10
185.031
 20
41.6676
 30
0.0
 11
185.031
 21
38.5685
 31
0.0
  0
LINE
  8
0
 62
     0
 10
185.031
 20
38.5685
 30
0.0
 11
185.831
 21
38.5685
 31
0.0
  0
LINE
  8
0
 62
     0
 10
185.831
 20
38.5685
 30
0.0
 11
185.831
 21
32.7684
 31
0.0
  0
LINE
  8
0
 62
     0
 10
185.831
 20
32.7684
 30
0.0
 11
185.031
 21
32.7684
 31
0.0
  0
LINE
  8
0
 62
     0
 10
185.031
 20
32.7684
 30
0.0
 11
185.031
 21
29.6678
 31
0.0
  0
LINE
  8
0
 62
     0
 10
185.031
 20
29.6678
 30
0.0
 11
185.831
 21
29.6678
 31
0.0
  0
LINE
  8
0
 62
     0
 10
185.831
 20
29.6678
 30
0.0
 11
185.831
 21
28.6687
 31
0.0
  0
LINE
  8
0
 62
     0
 10
185.831
 20
28.6687
 30
0.0
 11
199.831
 21
28.6687
 31
0.0
  0
LINE
  8
0
 62
     0
 10
199.831
 20
28.6687
 30
0.0
 11
199.831
 21
29.6678
 31
0.0
  0
LINE
  8
0
 62
     0
 10
199.831
 20
29.6678
 30
0.0
 11
200.631
 21
29.6678
 31
0.0
  0
LINE
  8
0
 62
     0
 10
200.631
 20
29.6678
 30
0.0
 11
200.631
 21
32.7684
 31
0.0
  0
LINE
  8
0
 62
     0
 10
200.631
 20
32.7684
 30
0.0
 11
199.831
 21
32.7684
 31
0.0
  0
LINE
  8
0
 62
     0
 10
199.831
 20
32.7684
 30
0.0
 11
199.831
 21
38.5685
 31
0.0
  0
LINE
  8
0
 62
     0
 10
199.831
 20
38.5685
 30
0.0
 11
200.631
 21
38.5685
 31
0.0
  0
LINE
  8
0
 62
     0
 10
200.631
 20
38.5685
 30
0.0
 11
200.631
 21
41.6676
 31
0.0
  0
LINE
  8
0
 62
     0
 10
200.631
 20
41.6676
 30
0.0
 11
199.831
 21
41.6676
 31
0.0
  0
LINE
  8
0
 62
     0
 10
199.831
 20
41.6676
 30
0.0
 11
199.831
 21
42.6681
 31
0.0
  0
LINE
  8
0
 62
     0
 10
199.831
 20
42.6681
 30
0.0
 11
185.831
 21
42.6681
 31
0.0
  0
LINE
  8
0
 62
     0
 10
204.881
 20
42.6681
 30
0.0
 11
204.881
 21
41.6676
 31
0.0
  0
LINE
  8
0
 62
     0
 10
204.881
 20
41.6676
 30
0.0
 11
204.081
 21
41.6676
 31
0.0
  0
LINE
  8
0
 62
     0
 10
204.081
 20
41.6676
 30
0.0
 11
204.081
 21
38.5685
 31
0.0
  0
LINE
  8
0
 62
     0
 10
204.081
 20
38.5685
 30
0.0
 11
204.881
 21
38.5685
 31
0.0
  0
LINE
  8
0
 62
     0
 10
204.881
 20
38.5685
 30
0.0
 11
204.881
 21
32.7684
 31
0.0
  0
LINE
  8
0
 62
     0
 10
204.881
 20
32.7684
 30
0.0
 11
204.081
 21
32.7684
 31
0.0
  0
LINE
  8
0
 62
     0
 10
204.081
 20
32.7684
 30
0.0
 11
204.081
 21
29.6678
 31
0.0
  0
LINE
  8
0
 62
     0
 10
204.081
 20
29.6678
 30
0.0
 11
204.881
 21
29.6678
 31
0.0
  0
LINE
  8
0
 62
     0
 10
204.881
 20
29.6678
 30
0.0
 11
204.881
 21
28.6687
 31
0.0
  0
LINE
  8
0
 62
     0
 10
204.881
 20
28.6687
 30
0.0
 11
218.881
 21
28.6687
 31
0.0
  0
LINE
  8
0
 62
     0
 10
218.881
 20
28.6687
 30
0.0
 11
218.881
 21
29.6678
 31
0.0
  0
LINE
  8
0
 62
     0
 10
218.881
 20
29.6678
 30
0.0
 11
219.681
 21
29.6678
 31
0.0
  0
LINE
  8
0
 62
     0
 10
219.681
 20
29.6678
 30
0.0
 11
219.681
 21
32.7684
 31
0.0
  0
LINE
  8
0
 62
     0
 10
219.681
 20
32.7684
 30
0.0
 11
218.881
 21
32.7684
 31
0.0
  0
LINE
  8
0
 62
     0
 10
218.881
 20
32.7684
 30
0.0
 11
218.881
 21
38.5685
 31
0.0
  0
LINE
  8
0
 62
     0
 10
218.881
 20
38.5685
 30
0.0
 11
219.681
 21
38.5685
 31
0.0
  0
LINE
  8
0
 62
     0
 10
219.681
 20
38.5685
 30
0.0
 11
219.681
 21
41.6676
 31
0.0
  0
LINE
  8
0
 62
     0
 10
219.681
 20
41.6676
 30
0.0
 11
218.881
 21
41.6676
 31
0.0
  0
LINE
  8
0
 62
     0
 10
218.881
 20
41.6676
 30
0.0
 11
218.881
 21
42.6681
 31
0.0
  0
LINE
  8
0
 62
     0
 10
218.881
 20
42.6681
 30
0.0
 11
204.881
 21
42.6681
 31
0.0
  0
LINE
  8
0
 62
     0
 10
223.931
 20
42.6681
 30
0.0
 11
223.931
 21
41.6676
 31
0.0
  0
LINE
  8
0
 62
     0
 10
223.931
 20
41.6676
 30
0.0
 11
223.131
 21
41.6676
 31
0.0
  0
LINE
  8
0
 62
     0
 10
223.131
 20
41.6676
 30
0.0
 11
223.131
 21
38.5685
 31
0.0
  0
LINE
  8
0
 62
     0
 10
223.131
 20
38.5685
 30
0.0
 11
223.931
 21
38.5685
 31
0.0
  0
LINE
  8
0
 62
     0
 10
223.931
 20
38.5685
 30
0.0
 11
223.931
 21
32.7684
 31
0.0
  0
LINE
  8
0
 62
     0
 10
223.931
 20
32.7684
 30
0.0
 11
223.131
 21
32.7684
 31
0.0
  0
LINE
  8
0
 62
     0
 10
223.131
 20
32.7684
 30
0.0
 11
223.131
 21
29.6678
 31
0.0
  0
LINE
  8
0
 62
     0
 10
223.131
 20
29.6678
 30
0.0
 11
223.931
 21
29.6678
 31
0.0
  0
LINE
  8
0
 62
     0
 10
223.931
 20
29.6678
 30
0.0
 11
223.931
 21
28.6687
 31
0.0
  0
LINE
  8
0
 62
     0
 10
223.931
 20
28.6687
 30
0.0
 11
237.931
 21
28.6687
 31
0.0
  0
LINE
  8
0
 62
     0
 10
237.931
 20
28.6687
 30
0.0
 11
237.931
 21
29.6678
 31
0.0
  0
LINE
  8
0
 62
     0
 10
237.931
 20
29.6678
 30
0.0
 11
238.731
 21
29.6678
 31
0.0
  0
LINE
  8
0
 62
     0
 10
238.731
 20
29.6678
 30
0.0
 11
238.731
 21
32.7684
 31
0.0
  0
LINE
  8
0
 62
     0
 10
238.731
 20
32.7684
 30
0.0
 11
237.931
 21
32.7684
 31
0.0
  0
LINE
  8
0
 62
     0
 10
237.931
 20
32.7684
 30
0.0
 11
237.931
 21
38.5685
 31
0.0
  0
LINE
  8
0
 62
     0
 10
237.931
 20
38.5685
 30
0.0
 11
238.731
 21
38.5685
 31
0.0
  0
LINE
  8
0
 62
     0
 10
238.731
 20
38.5685
 30
0.0
 11
238.731
 21
41.6676
 31
0.0
  0
LINE
  8
0
 62
     0
 10
238.731
 20
41.6676
 30
0.0
 11
237.931
 21
41.6676
 31
0.0
  0
LINE
  8
0
 62
     0
 10
237.931
 20
41.6676
 30
0.0
 11
237.931
 21
42.6681
 31
0.0
  0
LINE
  8
0
 62
     0
 10
237.931
 20
42.6681
 30
0.0
 11
223.931
 21
42.6681
 31
0.0
  0
LINE
  8
0
 62
     0
 10
250.125
 20
42.6681
 30
0.0
 11
250.125
 21
41.6676
 31
0.0
  0
LINE
  8
0
 62
     0
 10
250.125
 20
41.6676
 30
0.0
 11
249.324
 21
41.6676
 31
0.0
  0
LINE
  8
0
 62
     0
 10
249.324
 20
41.6676
 30
0.0
 11
249.324
 21
38.5685
 31
0.0
  0
LINE
  8
0
 62
     0
 10
249.324
 20
38.5685
 30
0.0
 11
250.125
 21
38.5685
 31
0.0
  0
LINE
  8
0
 62
     0
 10
250.125
 20
38.5685
 30
0.0
 11
250.125
 21
32.7684
 31
0.0
  0
LINE
  8
0
 62
     0
 10
250.125
 20
32.7684
 30
0.0
 11
249.324
 21
32.7684
 31
0.0
  0
LINE
  8
0
 62
     0
 10
249.324
 20
32.7684
 30
0.0
 11
249.324
 21
29.6678
 31
0.0
  0
LINE
  8
0
 62
     0
 10
249.324
 20
29.6678
 30
0.0
 11
250.125
 21
29.6678
 31
0.0
  0
LINE
  8
0
 62
     0
 10
250.125
 20
29.6678
 30
0.0
 11
250.125
 21
28.6687
 31
0.0
  0
LINE
  8
0
 62
     0
 10
250.125
 20
28.6687
 30
0.0
 11
264.124
 21
28.6687
 31
0.0
  0
LINE
  8
0
 62
     0
 10
264.124
 20
28.6687
 30
0.0
 11
264.124
 21
29.6678
 31
0.0
  0
LINE
  8
0
 62
     0
 10
264.124
 20
29.6678
 30
0.0
 11
264.925
 21
29.6678
 31
0.0
  0
LINE
  8
0
 62
     0
 10
264.925
 20
29.6678
 30
0.0
 11
264.925
 21
32.7684
 31
0.0
  0
LINE
  8
0
 62
     0
 10
264.925
 20
32.7684
 30
0.0
 11
264.124
 21
32.7684
 31
0.0
  0
LINE
  8
0
 62
     0
 10
264.124
 20
32.7684
 30
0.0
 11
264.124
 21
38.5685
 31
0.0
  0
LINE
  8
0
 62
     0
 10
264.124
 20
38.5685
 30
0.0
 11
264.925
 21
38.5685
 31
0.0
  0
LINE
  8
0
 62
     0
 10
264.925
 20
38.5685
 30
0.0
 11
264.925
 21
41.6676
 31
0.0
  0
LINE
  8
0
 62
     0
 10
264.925
 20
41.6676
 30
0.0
 11
264.124
 21
41.6676
 31
0.0
  0
LINE
  8
0
 62
     0
 10
264.124
 20
41.6676
 30
0.0
 11
264.124
 21
42.6681
 31
0.0
  0
LINE
  8
0
 62
     0
 10
264.124
 20
42.6681
 30
0.0
 11
250.125
 21
42.6681
 31
0.0
  0
LINE
  8
0
 62
     0
 10
276.319
 20
42.6681
 30
0.0
 11
276.319
 21
41.6676
 31
0.0
  0
LINE
  8
0
 62
     0
 10
276.319
 20
41.6676
 30
0.0
 11
275.518
 21
41.6676
 31
0.0
  0
LINE
  8
0
 62
     0
 10
275.518
 20
41.6676
 30
0.0
 11
275.518
 21
38.5685
 31
0.0
  0
LINE
  8
0
 62
     0
 10
275.518
 20
38.5685
 30
0.0
 11
276.319
 21
38.5685
 31
0.0
  0
LINE
  8
0
 62
     0
 10
276.319
 20
38.5685
 30
0.0
 11
276.319
 21
32.7684
 31
0.0
  0
LINE
  8
0
 62
     0
 10
276.319
 20
32.7684
 30
0.0
 11
275.518
 21
32.7684
 31
0.0
  0
LINE
  8
0
 62
     0
 10
275.518
 20
32.7684
 30
0.0
 11
275.518
 21
29.6678
 31
0.0
  0
LINE
  8
0
 62
     0
 10
275.518
 20
29.6678
 30
0.0
 11
276.319
 21
29.6678
 31
0.0
  0
LINE
  8
0
 62
     0
 10
276.319
 20
29.6678
 30
0.0
 11
276.319
 21
28.6687
 31
0.0
  0
LINE
  8
0
 62
     0
 10
276.319
 20
28.6687
 30
0.0
 11
290.318
 21
28.6687
 31
0.0
  0
LINE
  8
0
 62
     0
 10
290.318
 20
28.6687
 30
0.0
 11
290.318
 21
29.6678
 31
0.0
  0
LINE
  8
0
 62
     0
 10
290.318
 20
29.6678
 30
0.0
 11
291.119
 21
29.6678
 31
0.0
  0
LINE
  8
0
 62
     0
 10
291.119
 20
29.6678
 30
0.0
 11
291.119
 21
32.7684
 31
0.0
  0
LINE
  8
0
 62
     0
 10
291.119
 20
32.7684
 30
0.0
 11
290.318
 21
32.7684
 31
0.0
  0
LINE
  8
0
 62
     0
 10
290.318
 20
32.7684
 30
0.0
 11
290.318
 21
38.5685
 31
0.0
  0
LINE
  8
0
 62
     0
 10
290.318
 20
38.5685
 30
0.0
 11
291.119
 21
38.5685
 31
0.0
  0
LINE
  8
0
 62
     0
 10
291.119
 20
38.5685
 30
0.0
 11
291.119
 21
41.6676
 31
0.0
  0
LINE
  8
0
 62
     0
 10
291.119
 20
41.6676
 30
0.0
 11
290.318
 21
41.6676
 31
0.0
  0
LINE
  8
0
 62
     0
 10
290.318
 20
41.6676
 30
0.0
 11
290.318
 21
42.6681
 31
0.0
  0
LINE
  8
0
 62
     0
 10
290.318
 20
42.6681
 30
0.0
 11
276.319
 21
42.6681
 31
0.0
  0
LINE
  8
0
 62
     0
 10
295.369
 20
42.6681
 30
0.0
 11
295.369
 21
41.6676
 31
0.0
  0
LINE
  8
0
 62
     0
 10
295.369
 20
41.6676
 30
0.0
 11
294.568
 21
41.6676
 31
0.0
  0
LINE
  8
0
 62
     0
 10
294.568
 20
41.6676
 30
0.0
 11
294.568
 21
38.5685
 31
0.0
  0
LINE
  8
0
 62
     0
 10
294.568
 20
38.5685
 30
0.0
 11
295.369
 21
38.5685
 31
0.0
  0
LINE
  8
0
 62
     0
 10
295.369
 20
38.5685
 30
0.0
 11
295.369
 21
32.7684
 31
0.0
  0
LINE
  8
0
 62
     0
 10
295.369
 20
32.7684
 30
0.0
 11
294.568
 21
32.7684
 31
0.0
  0
LINE
  8
0
 62
     0
 10
294.568
 20
32.7684
 30
0.0
 11
294.568
 21
29.6678
 31
0.0
  0
LINE
  8
0
 62
     0
 10
294.568
 20
29.6678
 30
0.0
 11
295.369
 21
29.6678
 31
0.0
  0
LINE
  8
0
 62
     0
 10
295.369
 20
29.6678
 30
0.0
 11
295.369
 21
28.6687
 31
0.0
  0
LINE
  8
0
 62
     0
 10
295.369
 20
28.6687
 30
0.0
 11
309.368
 21
28.6687
 31
0.0
  0
LINE
  8
0
 62
     0
 10
309.368
 20
28.6687
 30
0.0
 11
309.368
 21
29.6678
 31
0.0
  0
LINE
  8
0
 62
     0
 10
309.368
 20
29.6678
 30
0.0
 11
310.169
 21
29.6678
 31
0.0
  0
LINE
  8
0
 62
     0
 10
310.169
 20
29.6678
 30
0.0
 11
310.169
 21
32.7684
 31
0.0
  0
LINE
  8
0
 62
     0
 10
310.169
 20
32.7684
 30
0.0
 11
309.368
 21
32.7684
 31
0.0
  0
LINE
  8
0
 62
     0
 10
309.368
 20
32.7684
 30
0.0
 11
309.368
 21
38.5685
 31
0.0
  0
LINE
  8
0
 62
     0
 10
309.368
 20
38.5685
 30
0.0
 11
310.169
 21
38.5685
 31
0.0
  0
LINE
  8
0
 62
     0
 10
310.169
 20
38.5685
 30
0.0
 11
310.169
 21
41.6676
 31
0.0
  0
LINE
  8
0
 62
     0
 10
310.169
 20
41.6676
 30
0.0
 11
309.368
 21
41.6676
 31
0.0
  0
LINE
  8
0
 62
     0
 10
309.368
 20
41.6676
 30
0.0
 11
309.368
 21
42.6681
 31
0.0
  0
LINE
  8
0
 62
     0
 10
309.368
 20
42.6681
 30
0.0
 11
295.369
 21
42.6681
 31
0.0
  0
LINE
  8
0
 62
     0
 10
264.411
 20
61.7181
 30
0.0
 11
264.411
 21
60.7176
 31
0.0
  0
LINE
  8
0
 62
     0
 10
264.411
 20
60.7176
 30
0.0
 11
263.612
 21
60.7176
 31
0.0
  0
LINE
  8
0
 62
     0
 10
263.612
 20
60.7176
 30
0.0
 11
263.612
 21
57.6185
 31
0.0
  0
LINE
  8
0
 62
     0
 10
263.612
 20
57.6185
 30
0.0
 11
264.411
 21
57.6185
 31
0.0
  0
LINE
  8
0
 62
     0
 10
264.411
 20
57.6185
 30
0.0
 11
264.411
 21
57.0177
 31
0.0
  0
LINE
  8
0
 62
     0
 10
264.411
 20
57.0177
 30
0.0
 11
262.887
 21
57.0177
 31
0.0
  0
LINE
  8
0
 62
     0
 10
262.887
 20
57.0177
 30
0.0
 11
262.887
 21
60.2477
 31
0.0
  0
LINE
  8
0
 62
     0
 10
262.887
 20
60.2477
 30
0.0
 11
256.137
 21
60.2477
 31
0.0
  0
LINE
  8
0
 62
     0
 10
256.137
 20
60.2477
 30
0.0
 11
256.137
 21
57.0177
 31
0.0
  0
LINE
  8
0
 62
     0
 10
256.137
 20
57.0177
 30
0.0
 11
255.312
 21
57.0177
 31
0.0
  0
LINE
  8
0
 62
     0
 10
255.312
 20
57.0177
 30
0.0
 11
255.312
 21
54.2188
 31
0.0
  0
LINE
  8
0
 62
     0
 10
255.312
 20
54.2188
 30
0.0
 11
256.137
 21
54.2188
 31
0.0
  0
LINE
  8
0
 62
     0
 10
256.137
 20
54.2188
 30
0.0
 11
256.137
 21
47.9488
 31
0.0
  0
LINE
  8
0
 62
     0
 10
256.137
 20
47.9488
 30
0.0
 11
257.861
 21
47.9488
 31
0.0
  0
LINE
  8
0
 62
     0
 10
257.861
 20
47.9488
 30
0.0
 11
257.861
 21
46.7487
 31
0.0
  0
LINE
  8
0
 62
     0
 10
257.861
 20
46.7487
 30
0.0
 11
261.162
 21
46.7487
 31
0.0
  0
LINE
  8
0
 62
     0
 10
261.162
 20
46.7487
 30
0.0
 11
261.162
 21
47.9488
 31
0.0
  0
LINE
  8
0
 62
     0
 10
261.162
 20
47.9488
 30
0.0
 11
262.887
 21
47.9488
 31
0.0
  0
LINE
  8
0
 62
     0
 10
262.887
 20
47.9488
 30
0.0
 11
262.887
 21
52.4178
 31
0.0
  0
LINE
  8
0
 62
     0
 10
262.887
 20
52.4178
 30
0.0
 11
264.411
 21
52.4178
 31
0.0
  0
LINE
  8
0
 62
     0
 10
264.411
 20
52.4178
 30
0.0
 11
264.411
 21
51.8185
 31
0.0
  0
LINE
  8
0
 62
     0
 10
264.411
 20
51.8185
 30
0.0
 11
263.612
 21
51.8185
 31
0.0
  0
LINE
  8
0
 62
     0
 10
263.612
 20
51.8185
 30
0.0
 11
263.612
 21
48.7179
 31
0.0
  0
LINE
  8
0
 62
     0
 10
263.612
 20
48.7179
 30
0.0
 11
264.411
 21
48.7179
 31
0.0
  0
LINE
  8
0
 62
     0
 10
264.411
 20
48.7179
 30
0.0
 11
264.411
 21
47.7188
 31
0.0
  0
LINE
  8
0
 62
     0
 10
264.411
 20
47.7188
 30
0.0
 11
278.412
 21
47.7188
 31
0.0
  0
LINE
  8
0
 62
     0
 10
278.412
 20
47.7188
 30
0.0
 11
278.412
 21
48.7179
 31
0.0
  0
LINE
  8
0
 62
     0
 10
278.412
 20
48.7179
 30
0.0
 11
279.211
 21
48.7179
 31
0.0
  0
LINE
  8
0
 62
     0
 10
279.211
 20
48.7179
 30
0.0
 11
279.211
 21
51.8185
 31
0.0
  0
LINE
  8
0
 62
     0
 10
279.211
 20
51.8185
 30
0.0
 11
278.412
 21
51.8185
 31
0.0
  0
LINE
  8
0
 62
     0
 10
278.412
 20
51.8185
 30
0.0
 11
278.412
 21
52.4178
 31
0.0
  0
LINE
  8
0
 62
     0
 10
278.412
 20
52.4178
 30
0.0
 11
279.936
 21
52.4178
 31
0.0
  0
LINE
  8
0
 62
     0
 10
279.936
 20
52.4178
 30
0.0
 11
279.936
 21
47.9488
 31
0.0
  0
LINE
  8
0
 62
     0
 10
279.936
 20
47.9488
 30
0.0
 11
281.661
 21
47.9488
 31
0.0
  0
LINE
  8
0
 62
     0
 10
281.661
 20
47.9488
 30
0.0
 11
281.661
 21
46.7487
 31
0.0
  0
LINE
  8
0
 62
     0
 10
281.661
 20
46.7487
 30
0.0
 11
284.962
 21
46.7487
 31
0.0
  0
LINE
  8
0
 62
     0
 10
284.962
 20
46.7487
 30
0.0
 11
284.962
 21
47.9488
 31
0.0
  0
LINE
  8
0
 62
     0
 10
284.962
 20
47.9488
 30
0.0
 11
286.687
 21
47.9488
 31
0.0
  0
LINE
  8
0
 62
     0
 10
286.687
 20
47.9488
 30
0.0
 11
286.687
 21
54.2188
 31
0.0
  0
LINE
  8
0
 62
     0
 10
286.687
 20
54.2188
 30
0.0
 11
287.511
 21
54.2188
 31
0.0
  0
LINE
  8
0
 62
     0
 10
287.511
 20
54.2188
 30
0.0
 11
287.511
 21
57.0177
 31
0.0
  0
LINE
  8
0
 62
     0
 10
287.511
 20
57.0177
 30
0.0
 11
286.687
 21
57.0177
 31
0.0
  0
LINE
  8
0
 62
     0
 10
286.687
 20
57.0177
 30
0.0
 11
286.687
 21
60.2477
 31
0.0
  0
LINE
  8
0
 62
     0
 10
286.687
 20
60.2477
 30
0.0
 11
279.936
 21
60.2477
 31
0.0
  0
LINE
  8
0
 62
     0
 10
279.936
 20
60.2477
 30
0.0
 11
279.936
 21
57.0177
 31
0.0
  0
LINE
  8
0
 62
     0
 10
279.936
 20
57.0177
 30
0.0
 11
278.412
 21
57.0177
 31
0.0
  0
LINE
  8
0
 62
     0
 10
278.412
 20
57.0177
 30
0.0
 11
278.412
 21
57.6185
 31
0.0
  0
LINE
  8
0
 62
     0
 10
278.412
 20
57.6185
 30
0.0
 11
279.211
 21
57.6185
 31
0.0
  0
LINE
  8
0
 62
     0
 10
279.211
 20
57.6185
 30
0.0
 11
279.211
 21
60.7176
 31
0.0
  0
LINE
  8
0
 62
     0
 10
279.211
 20
60.7176
 30
0.0
 11
278.412
 21
60.7176
 31
0.0
  0
LINE
  8
0
 62
     0
 10
278.412
 20
60.7176
 30
0.0
 11
278.412
 21
61.7181
 31
0.0
  0
LINE
  8
0
 62
     0
 10
278.412
 20
61.7181
 30
0.0
 11
264.411
 21
61.7181
 31
0.0
  0
LINE
  8
0
 62
     0
 10
16.7611
 20
61.7181
 30
0.0
 11
16.7611
 21
60.7176
 31
0.0
  0
LINE
  8
0
 62
     0
 10
16.7611
 20
60.7176
 30
0.0
 11
15.9618
 21
60.7176
 31
0.0
  0
LINE
  8
0
 62
     0
 10
15.9618
 20
60.7176
 30
0.0
 11
15.9618
 21
57.6185
 31
0.0
  0
LINE
  8
0
 62
     0
 10
15.9618
 20
57.6185
 30
0.0
 11
16.7611
 21
57.6185
 31
0.0
  0
LINE
  8
0
 62
     0
 10
16.7611
 20
57.6185
 30
0.0
 11
16.7611
 21
51.8185
 31
0.0
  0
LINE
  8
0
 62
     0
 10
16.7611
 20
51.8185
 30
0.0
 11
15.9618
 21
51.8185
 31
0.0
  0
LINE
  8
0
 62
     0
 10
15.9618
 20
51.8185
 30
0.0
 11
15.9618
 21
48.7179
 31
0.0
  0
LINE
  8
0
 62
     0
 10
15.9618
 20
48.7179
 30
0.0
 11
16.7611
 21
48.7179
 31
0.0
  0
LINE
  8
0
 62
     0
 10
16.7611
 20
48.7179
 30
0.0
 11
16.7611
 21
47.7188
 31
0.0
  0
LINE
  8
0
 62
     0
 10
16.7611
 20
47.7188
 30
0.0
 11
30.7619
 21
47.7188
 31
0.0
  0
LINE
  8
0
 62
     0
 10
30.7619
 20
47.7188
 30
0.0
 11
30.7619
 21
48.7179
 31
0.0
  0
LINE
  8
0
 62
     0
 10
30.7619
 20
48.7179
 30
0.0
 11
31.5612
 21
48.7179
 31
0.0
  0
LINE
  8
0
 62
     0
 10
31.5612
 20
48.7179
 30
0.0
 11
31.5612
 21
51.8185
 31
0.0
  0
LINE
  8
0
 62
     0
 10
31.5612
 20
51.8185
 30
0.0
 11
30.7619
 21
51.8185
 31
0.0
  0
LINE
  8
0
 62
     0
 10
30.7619
 20
51.8185
 30
0.0
 11
30.7619
 21
57.6185
 31
0.0
  0
LINE
  8
0
 62
     0
 10
30.7619
 20
57.6185
 30
0.0
 11
31.5612
 21
57.6185
 31
0.0
  0
LINE
  8
0
 62
     0
 10
31.5612
 20
57.6185
 30
0.0
 11
31.5612
 21
60.7176
 31
0.0
  0
LINE
  8
0
 62
     0
 10
31.5612
 20
60.7176
 30
0.0
 11
30.7619
 21
60.7176
 31
0.0
  0
LINE
  8
0
 62
     0
 10
30.7619
 20
60.7176
 30
0.0
 11
30.7619
 21
61.7181
 31
0.0
  0
LINE
  8
0
 62
     0
 10
30.7619
 20
61.7181
 30
0.0
 11
16.7611
 21
61.7181
 31
0.0
  0
LINE
  8
0
 62
     0
 10
42.9563
 20
61.7181
 30
0.0
 11
42.9563
 21
60.7176
 31
0.0
  0
LINE
  8
0
 62
     0
 10
42.9563
 20
60.7176
 30
0.0
 11
42.1555
 21
60.7176
 31
0.0
  0
LINE
  8
0
 62
     0
 10
42.1555
 20
60.7176
 30
0.0
 11
42.1555
 21
57.6185
 31
0.0
  0
LINE
  8
0
 62
     0
 10
42.1555
 20
57.6185
 30
0.0
 11
42.9563
 21
57.6185
 31
0.0
  0
LINE
  8
0
 62
     0
 10
42.9563
 20
57.6185
 30
0.0
 11
42.9563
 21
51.8185
 31
0.0
  0
LINE
  8
0
 62
     0
 10
42.9563
 20
51.8185
 30
0.0
 11
42.1555
 21
51.8185
 31
0.0
  0
LINE
  8
0
 62
     0
 10
42.1555
 20
51.8185
 30
0.0
 11
42.1555
 21
48.7179
 31
0.0
  0
LINE
  8
0
 62
     0
 10
42.1555
 20
48.7179
 30
0.0
 11
42.9563
 21
48.7179
 31
0.0
  0
LINE
  8
0
 62
     0
 10
42.9563
 20
48.7179
 30
0.0
 11
42.9563
 21
47.7188
 31
0.0
  0
LINE
  8
0
 62
     0
 10
42.9563
 20
47.7188
 30
0.0
 11
56.9556
 21
47.7188
 31
0.0
  0
LINE
  8
0
 62
     0
 10
56.9556
 20
47.7188
 30
0.0
 11
56.9556
 21
48.7179
 31
0.0
  0
LINE
  8
0
 62
     0
 10
56.9556
 20
48.7179
 30
0.0
 11
57.7564
 21
48.7179
 31
0.0
  0
LINE
  8
0
 62
     0
 10
57.7564
 20
48.7179
 30
0.0
 11
57.7564
 21
51.8185
 31
0.0
  0
LINE
  8
0
 62
     0
 10
57.7564
 20
51.8185
 30
0.0
 11
56.9556
 21
51.8185
 31
0.0
  0
LINE
  8
0
 62
     0
 10
56.9556
 20
51.8185
 30
0.0
 11
56.9556
 21
57.6185
 31
0.0
  0
LINE
  8
0
 62
     0
 10
56.9556
 20
57.6185
 30
0.0
 11
57.7564
 21
57.6185
 31
0.0
  0
LINE
  8
0
 62
     0
 10
57.7564
 20
57.6185
 30
0.0
 11
57.7564
 21
60.7176
 31
0.0
  0
LINE
  8
0
 62
     0
 10
57.7564
 20
60.7176
 30
0.0
 11
56.9556
 21
60.7176
 31
0.0
  0
LINE
  8
0
 62
     0
 10
56.9556
 20
60.7176
 30
0.0
 11
56.9556
 21
61.7181
 31
0.0
  0
LINE
  8
0
 62
     0
 10
56.9556
 20
61.7181
 30
0.0
 11
42.9563
 21
61.7181
 31
0.0
  0
LINE
  8
0
 62
     0
 10
62.0063
 20
61.7181
 30
0.0
 11
62.0063
 21
60.7176
 31
0.0
  0
LINE
  8
0
 62
     0
 10
62.0063
 20
60.7176
 30
0.0
 11
61.2055
 21
60.7176
 31
0.0
  0
LINE
  8
0
 62
     0
 10
61.2055
 20
60.7176
 30
0.0
 11
61.2055
 21
57.6185
 31
0.0
  0
LINE
  8
0
 62
     0
 10
61.2055
 20
57.6185
 30
0.0
 11
62.0063
 21
57.6185
 31
0.0
  0
LINE
  8
0
 62
     0
 10
62.0063
 20
57.6185
 30
0.0
 11
62.0063
 21
51.8185
 31
0.0
  0
LINE
  8
0
 62
     0
 10
62.0063
 20
51.8185
 30
0.0
 11
61.2055
 21
51.8185
 31
0.0
  0
LINE
  8
0
 62
     0
 10
61.2055
 20
51.8185
 30
0.0
 11
61.2055
 21
48.7179
 31
0.0
  0
LINE
  8
0
 62
     0
 10
61.2055
 20
48.7179
 30
0.0
 11
62.0063
 21
48.7179
 31
0.0
  0
LINE
  8
0
 62
     0
 10
62.0063
 20
48.7179
 30
0.0
 11
62.0063
 21
47.7188
 31
0.0
  0
LINE
  8
0
 62
     0
 10
62.0063
 20
47.7188
 30
0.0
 11
76.0056
 21
47.7188
 31
0.0
  0
LINE
  8
0
 62
     0
 10
76.0056
 20
47.7188
 30
0.0
 11
76.0056
 21
48.7179
 31
0.0
  0
LINE
  8
0
 62
     0
 10
76.0056
 20
48.7179
 30
0.0
 11
76.8064
 21
48.7179
 31
0.0
  0
LINE
  8
0
 62
     0
 10
76.8064
 20
48.7179
 30
0.0
 11
76.8064
 21
51.8185
 31
0.0
  0
LINE
  8
0
 62
     0
 10
76.8064
 20
51.8185
 30
0.0
 11
76.0056
 21
51.8185
 31
0.0
  0
LINE
  8
0
 62
     0
 10
76.0056
 20
51.8185
 30
0.0
 11
76.0056
 21
57.6185
 31
0.0
  0
LINE
  8
0
 62
     0
 10
76.0056
 20
57.6185
 30
0.0
 11
76.8064
 21
57.6185
 31
0.0
  0
LINE
  8
0
 62
     0
 10
76.8064
 20
57.6185
 30
0.0
 11
76.8064
 21
60.7176
 31
0.0
  0
LINE
  8
0
 62
     0
 10
76.8064
 20
60.7176
 30
0.0
 11
76.0056
 21
60.7176
 31
0.0
  0
LINE
  8
0
 62
     0
 10
76.0056
 20
60.7176
 30
0.0
 11
76.0056
 21
61.7181
 31
0.0
  0
LINE
  8
0
 62
     0
 10
76.0056
 20
61.7181
 30
0.0
 11
62.0063
 21
61.7181
 31
0.0
  0
LINE
  8
0
 62
     0
 10
81.0563
 20
61.7181
 30
0.0
 11
81.0563
 21
60.7176
 31
0.0
  0
LINE
  8
0
 62
     0
 10
81.0563
 20
60.7176
 30
0.0
 11
80.2555
 21
60.7176
 31
0.0
  0
LINE
  8
0
 62
     0
 10
80.2555
 20
60.7176
 30
0.0
 11
80.2555
 21
57.6185
 31
0.0
  0
LINE
  8
0
 62
     0
 10
80.2555
 20
57.6185
 30
0.0
 11
81.0563
 21
57.6185
 31
0.0
  0
LINE
  8
0
 62
     0
 10
81.0563
 20
57.6185
 30
0.0
 11
81.0563
 21
51.8185
 31
0.0
  0
LINE
  8
0
 62
     0
 10
81.0563
 20
51.8185
 30
0.0
 11
80.2555
 21
51.8185
 31
0.0
  0
LINE
  8
0
 62
     0
 10
80.2555
 20
51.8185
 30
0.0
 11
80.2555
 21
48.7179
 31
0.0
  0
LINE
  8
0
 62
     0
 10
80.2555
 20
48.7179
 30
0.0
 11
81.0563
 21
48.7179
 31
0.0
  0
LINE
  8
0
 62
     0
 10
81.0563
 20
48.7179
 30
0.0
 11
81.0563
 21
47.7188
 31
0.0
  0
LINE
  8
0
 62
     0
 10
81.0563
 20
47.7188
 30
0.0
 11
95.0556
 21
47.7188
 31
0.0
  0
LINE
  8
0
 62
     0
 10
95.0556
 20
47.7188
 30
0.0
 11
95.0556
 21
48.7179
 31
0.0
  0
LINE
  8
0
 62
     0
 10
95.0556
 20
48.7179
 30
0.0
 11
95.8564
 21
48.7179
 31
0.0
  0
LINE
  8
0
 62
     0
 10
95.8564
 20
48.7179
 30
0.0
 11
95.8564
 21
51.8185
 31
0.0
  0
LINE
  8
0
 62
     0
 10
95.8564
 20
51.8185
 30
0.0
 11
95.0556
 21
51.8185
 31
0.0
  0
LINE
  8
0
 62
     0
 10
95.0556
 20
51.8185
 30
0.0
 11
95.0556
 21
57.6185
 31
0.0
  0
LINE
  8
0
 62
     0
 10
95.0556
 20
57.6185
 30
0.0
 11
95.8564
 21
57.6185
 31
0.0
  0
LINE
  8
0
 62
     0
 10
95.8564
 20
57.6185
 30
0.0
 11
95.8564
 21
60.7176
 31
0.0
  0
LINE
  8
0
 62
     0
 10
95.8564
 20
60.7176
 30
0.0
 11
95.0556
 21
60.7176
 31
0.0
  0
LINE
  8
0
 62
     0
 10
95.0556
 20
60.7176
 30
0.0
 11
95.0556
 21
61.7181
 31
0.0
  0
LINE
  8
0
 62
     0
 10
95.0556
 20
61.7181
 30
0.0
 11
81.0563
 21
61.7181
 31
0.0
  0
LINE
  8
0
 62
     0
 10
100.106
 20
61.7181
 30
0.0
 11
100.106
 21
60.7176
 31
0.0
  0
LINE
  8
0
 62
     0
 10
100.106
 20
60.7176
 30
0.0
 11
99.3055
 21
60.7176
 31
0.0
  0
LINE
  8
0
 62
     0
 10
99.3055
 20
60.7176
 30
0.0
 11
99.3055
 21
57.6185
 31
0.0
  0
LINE
  8
0
 62
     0
 10
99.3055
 20
57.6185
 30
0.0
 11
100.106
 21
57.6185
 31
0.0
  0
LINE
  8
0
 62
     0
 10
100.106
 20
57.6185
 30
0.0
 11
100.106
 21
51.8185
 31
0.0
  0
LINE
  8
0
 62
     0
 10
100.106
 20
51.8185
 30
0.0
 11
99.3055
 21
51.8185
 31
0.0
  0
LINE
  8
0
 62
     0
 10
99.3055
 20
51.8185
 30
0.0
 11
99.3055
 21
48.7179
 31
0.0
  0
LINE
  8
0
 62
     0
 10
99.3055
 20
48.7179
 30
0.0
 11
100.106
 21
48.7179
 31
0.0
  0
LINE
  8
0
 62
     0
 10
100.106
 20
48.7179
 30
0.0
 11
100.106
 21
47.7188
 31
0.0
  0
LINE
  8
0
 62
     0
 10
100.106
 20
47.7188
 30
0.0
 11
114.106
 21
47.7188
 31
0.0
  0
LINE
  8
0
 62
     0
 10
114.106
 20
47.7188
 30
0.0
 11
114.106
 21
48.7179
 31
0.0
  0
LINE
  8
0
 62
     0
 10
114.106
 20
48.7179
 30
0.0
 11
114.906
 21
48.7179
 31
0.0
  0
LINE
  8
0
 62
     0
 10
114.906
 20
48.7179
 30
0.0
 11
114.906
 21
51.8185
 31
0.0
  0
LINE
  8
0
 62
     0
 10
114.906
 20
51.8185
 30
0.0
 11
114.106
 21
51.8185
 31
0.0
  0
LINE
  8
0
 62
     0
 10
114.106
 20
51.8185
 30
0.0
 11
114.106
 21
57.6185
 31
0.0
  0
LINE
  8
0
 62
     0
 10
114.106
 20
57.6185
 30
0.0
 11
114.906
 21
57.6185
 31
0.0
  0
LINE
  8
0
 62
     0
 10
114.906
 20
57.6185
 30
0.0
 11
114.906
 21
60.7176
 31
0.0
  0
LINE
  8
0
 62
     0
 10
114.906
 20
60.7176
 30
0.0
 11
114.106
 21
60.7176
 31
0.0
  0
LINE
  8
0
 62
     0
 10
114.106
 20
60.7176
 30
0.0
 11
114.106
 21
61.7181
 31
0.0
  0
LINE
  8
0
 62
     0
 10
114.106
 20
61.7181
 30
0.0
 11
100.106
 21
61.7181
 31
0.0
  0
LINE
  8
0
 62
     0
 10
119.156
 20
61.7181
 30
0.0
 11
119.156
 21
60.7176
 31
0.0
  0
LINE
  8
0
 62
     0
 10
119.156
 20
60.7176
 30
0.0
 11
118.356
 21
60.7176
 31
0.0
  0
LINE
  8
0
 62
     0
 10
118.356
 20
60.7176
 30
0.0
 11
118.356
 21
57.6185
 31
0.0
  0
LINE
  8
0
 62
     0
 10
118.356
 20
57.6185
 30
0.0
 11
119.156
 21
57.6185
 31
0.0
  0
LINE
  8
0
 62
     0
 10
119.156
 20
57.6185
 30
0.0
 11
119.156
 21
51.8185
 31
0.0
  0
LINE
  8
0
 62
     0
 10
119.156
 20
51.8185
 30
0.0
 11
118.356
 21
51.8185
 31
0.0
  0
LINE
  8
0
 62
     0
 10
118.356
 20
51.8185
 30
0.0
 11
118.356
 21
48.7179
 31
0.0
  0
LINE
  8
0
 62
     0
 10
118.356
 20
48.7179
 30
0.0
 11
119.156
 21
48.7179
 31
0.0
  0
LINE
  8
0
 62
     0
 10
119.156
 20
48.7179
 30
0.0
 11
119.156
 21
47.7188
 31
0.0
  0
LINE
  8
0
 62
     0
 10
119.156
 20
47.7188
 30
0.0
 11
133.156
 21
47.7188
 31
0.0
  0
LINE
  8
0
 62
     0
 10
133.156
 20
47.7188
 30
0.0
 11
133.156
 21
48.7179
 31
0.0
  0
LINE
  8
0
 62
     0
 10
133.156
 20
48.7179
 30
0.0
 11
133.956
 21
48.7179
 31
0.0
  0
LINE
  8
0
 62
     0
 10
133.956
 20
48.7179
 30
0.0
 11
133.956
 21
51.8185
 31
0.0
  0
LINE
  8
0
 62
     0
 10
133.956
 20
51.8185
 30
0.0
 11
133.156
 21
51.8185
 31
0.0
  0
LINE
  8
0
 62
     0
 10
133.156
 20
51.8185
 30
0.0
 11
133.156
 21
57.6185
 31
0.0
  0
LINE
  8
0
 62
     0
 10
133.156
 20
57.6185
 30
0.0
 11
133.956
 21
57.6185
 31
0.0
  0
LINE
  8
0
 62
     0
 10
133.956
 20
57.6185
 30
0.0
 11
133.956
 21
60.7176
 31
0.0
  0
LINE
  8
0
 62
     0
 10
133.956
 20
60.7176
 30
0.0
 11
133.156
 21
60.7176
 31
0.0
  0
LINE
  8
0
 62
     0
 10
133.156
 20
60.7176
 30
0.0
 11
133.156
 21
61.7181
 31
0.0
  0
LINE
  8
0
 62
     0
 10
133.156
 20
61.7181
 30
0.0
 11
119.156
 21
61.7181
 31
0.0
  0
LINE
  8
0
 62
     0
 10
138.206
 20
61.7181
 30
0.0
 11
138.206
 21
60.7176
 31
0.0
  0
LINE
  8
0
 62
     0
 10
138.206
 20
60.7176
 30
0.0
 11
137.406
 21
60.7176
 31
0.0
  0
LINE
  8
0
 62
     0
 10
137.406
 20
60.7176
 30
0.0
 11
137.406
 21
57.6185
 31
0.0
  0
LINE
  8
0
 62
     0
 10
137.406
 20
57.6185
 30
0.0
 11
138.206
 21
57.6185
 31
0.0
  0
LINE
  8
0
 62
     0
 10
138.206
 20
57.6185
 30
0.0
 11
138.206
 21
51.8185
 31
0.0
  0
LINE
  8
0
 62
     0
 10
138.206
 20
51.8185
 30
0.0
 11
137.406
 21
51.8185
 31
0.0
  0
LINE
  8
0
 62
     0
 10
137.406
 20
51.8185
 30
0.0
 11
137.406
 21
48.7179
 31
0.0
  0
LINE
  8
0
 62
     0
 10
137.406
 20
48.7179
 30
0.0
 11
138.206
 21
48.7179
 31
0.0
  0
LINE
  8
0
 62
     0
 10
138.206
 20
48.7179
 30
0.0
 11
138.206
 21
47.7188
 31
0.0
  0
LINE
  8
0
 62
     0
 10
138.206
 20
47.7188
 30
0.0
 11
152.206
 21
47.7188
 31
0.0
  0
LINE
  8
0
 62
     0
 10
152.206
 20
47.7188
 30
0.0
 11
152.206
 21
48.7179
 31
0.0
  0
LINE
  8
0
 62
     0
 10
152.206
 20
48.7179
 30
0.0
 11
153.006
 21
48.7179
 31
0.0
  0
LINE
  8
0
 62
     0
 10
153.006
 20
48.7179
 30
0.0
 11
153.006
 21
51.8185
 31
0.0
  0
LINE
  8
0
 62
     0
 10
153.006
 20
51.8185
 30
0.0
 11
152.206
 21
51.8185
 31
0.0
  0
LINE
  8
0
 62
     0
 10
152.206
 20
51.8185
 30
0.0
 11
152.206
 21
57.6185
 31
0.0
  0
LINE
  8
0
 62
     0
 10
152.206
 20
57.6185
 30
0.0
 11
153.006
 21
57.6185
 31
0.0
  0
LINE
  8
0
 62
     0
 10
153.006
 20
57.6185
 30
0.0
 11
153.006
 21
60.7176
 31
0.0
  0
LINE
  8
0
 62
     0
 10
153.006
 20
60.7176
 30
0.0
 11
152.206
 21
60.7176
 31
0.0
  0
LINE
  8
0
 62
     0
 10
152.206
 20
60.7176
 30
0.0
 11
152.206
 21
61.7181
 31
0.0
  0
LINE
  8
0
 62
     0
 10
152.206
 20
61.7181
 30
0.0
 11
138.206
 21
61.7181
 31
0.0
  0
LINE
  8
0
 62
     0
 10
157.256
 20
61.7181
 30
0.0
 11
157.256
 21
60.7176
 31
0.0
  0
LINE
  8
0
 62
     0
 10
157.256
 20
60.7176
 30
0.0
 11
156.456
 21
60.7176
 31
0.0
  0
LINE
  8
0
 62
     0
 10
156.456
 20
60.7176
 30
0.0
 11
156.456
 21
57.6185
 31
0.0
  0
LINE
  8
0
 62
     0
 10
156.456
 20
57.6185
 30
0.0
 11
157.256
 21
57.6185
 31
0.0
  0
LINE
  8
0
 62
     0
 10
157.256
 20
57.6185
 30
0.0
 11
157.256
 21
51.8185
 31
0.0
  0
LINE
  8
0
 62
     0
 10
157.256
 20
51.8185
 30
0.0
 11
156.456
 21
51.8185
 31
0.0
  0
LINE
  8
0
 62
     0
 10
156.456
 20
51.8185
 30
0.0
 11
156.456
 21
48.7179
 31
0.0
  0
LINE
  8
0
 62
     0
 10
156.456
 20
48.7179
 30
0.0
 11
157.256
 21
48.7179
 31
0.0
  0
LINE
  8
0
 62
     0
 10
157.256
 20
48.7179
 30
0.0
 11
157.256
 21
47.7188
 31
0.0
  0
LINE
  8
0
 62
     0
 10
157.256
 20
47.7188
 30
0.0
 11
171.256
 21
47.7188
 31
0.0
  0
LINE
  8
0
 62
     0
 10
171.256
 20
47.7188
 30
0.0
 11
171.256
 21
48.7179
 31
0.0
  0
LINE
  8
0
 62
     0
 10
171.256
 20
48.7179
 30
0.0
 11
172.056
 21
48.7179
 31
0.0
  0
LINE
  8
0
 62
     0
 10
172.056
 20
48.7179
 30
0.0
 11
172.056
 21
51.8185
 31
0.0
  0
LINE
  8
0
 62
     0
 10
172.056
 20
51.8185
 30
0.0
 11
171.256
 21
51.8185
 31
0.0
  0
LINE
  8
0
 62
     0
 10
171.256
 20
51.8185
 30
0.0
 11
171.256
 21
57.6185
 31
0.0
  0
LINE
  8
0
 62
     0
 10
171.256
 20
57.6185
 30
0.0
 11
172.056
 21
57.6185
 31
0.0
  0
LINE
  8
0
 62
     0
 10
172.056
 20
57.6185
 30
0.0
 11
172.056
 21
60.7176
 31
0.0
  0
LINE
  8
0
 62
     0
 10
172.056
 20
60.7176
 30
0.0
 11
171.256
 21
60.7176
 31
0.0
  0
LINE
  8
0
 62
     0
 10
171.256
 20
60.7176
 30
0.0
 11
171.256
 21
61.7181
 31
0.0
  0
LINE
  8
0
 62
     0
 10
171.256
 20
61.7181
 30
0.0
 11
157.256
 21
61.7181
 31
0.0
  0
LINE
  8
0
 62
     0
 10
176.306
 20
61.7181
 30
0.0
 11
176.306
 21
60.7176
 31
0.0
  0
LINE
  8
0
 62
     0
 10
176.306
 20
60.7176
 30
0.0
 11
175.506
 21
60.7176
 31
0.0
  0
LINE
  8
0
 62
     0
 10
175.506
 20
60.7176
 30
0.0
 11
175.506
 21
57.6185
 31
0.0
  0
LINE
  8
0
 62
     0
 10
175.506
 20
57.6185
 30
0.0
 11
176.306
 21
57.6185
 31
0.0
  0
LINE
  8
0
 62
     0
 10
176.306
 20
57.6185
 30
0.0
 11
176.306
 21
51.8185
 31
0.0
  0
LINE
  8
0
 62
     0
 10
176.306
 20
51.8185
 30
0.0
 11
175.506
 21
51.8185
 31
0.0
  0
LINE
  8
0
 62
     0
 10
175.506
 20
51.8185
 30
0.0
 11
175.506
 21
48.7179
 31
0.0
  0
LINE
  8
0
 62
     0
 10
175.506
 20
48.7179
 30
0.0
 11
176.306
 21
48.7179
 31
0.0
  0
LINE
  8
0
 62
     0
 10
176.306
 20
48.7179
 30
0.0
 11
176.306
 21
47.7188
 31
0.0
  0
LINE
  8
0
 62
     0
 10
176.306
 20
47.7188
 30
0.0
 11
190.306
 21
47.7188
 31
0.0
  0
LINE
  8
0
 62
     0
 10
190.306
 20
47.7188
 30
0.0
 11
190.306
 21
48.7179
 31
0.0
  0
LINE
  8
0
 62
     0
 10
190.306
 20
48.7179
 30
0.0
 11
191.106
 21
48.7179
 31
0.0
  0
LINE
  8
0
 62
     0
 10
191.106
 20
48.7179
 30
0.0
 11
191.106
 21
51.8185
 31
0.0
  0
LINE
  8
0
 62
     0
 10
191.106
 20
51.8185
 30
0.0
 11
190.306
 21
51.8185
 31
0.0
  0
LINE
  8
0
 62
     0
 10
190.306
 20
51.8185
 30
0.0
 11
190.306
 21
57.6185
 31
0.0
  0
LINE
  8
0
 62
     0
 10
190.306
 20
57.6185
 30
0.0
 11
191.106
 21
57.6185
 31
0.0
  0
LINE
  8
0
 62
     0
 10
191.106
 20
57.6185
 30
0.0
 11
191.106
 21
60.7176
 31
0.0
  0
LINE
  8
0
 62
     0
 10
191.106
 20
60.7176
 30
0.0
 11
190.306
 21
60.7176
 31
0.0
  0
LINE
  8
0
 62
     0
 10
190.306
 20
60.7176
 30
0.0
 11
190.306
 21
61.7181
 31
0.0
  0
LINE
  8
0
 62
     0
 10
190.306
 20
61.7181
 30
0.0
 11
176.306
 21
61.7181
 31
0.0
  0
LINE
  8
0
 62
     0
 10
195.356
 20
61.7181
 30
0.0
 11
195.356
 21
60.7176
 31
0.0
  0
LINE
  8
0
 62
     0
 10
195.356
 20
60.7176
 30
0.0
 11
194.556
 21
60.7176
 31
0.0
  0
LINE
  8
0
 62
     0
 10
194.556
 20
60.7176
 30
0.0
 11
194.556
 21
57.6185
 31
0.0
  0
LINE
  8
0
 62
     0
 10
194.556
 20
57.6185
 30
0.0
 11
195.356
 21
57.6185
 31
0.0
  0
LINE
  8
0
 62
     0
 10
195.356
 20
57.6185
 30
0.0
 11
195.356
 21
51.8185
 31
0.0
  0
LINE
  8
0
 62
     0
 10
195.356
 20
51.8185
 30
0.0
 11
194.556
 21
51.8185
 31
0.0
  0
LINE
  8
0
 62
     0
 10
194.556
 20
51.8185
 30
0.0
 11
194.556
 21
48.7179
 31
0.0
  0
LINE
  8
0
 62
     0
 10
194.556
 20
48.7179
 30
0.0
 11
195.356
 21
48.7179
 31
0.0
  0
LINE
  8
0
 62
     0
 10
195.356
 20
48.7179
 30
0.0
 11
195.356
 21
47.7188
 31
0.0
  0
LINE
  8
0
 62
     0
 10
195.356
 20
47.7188
 30
0.0
 11
209.356
 21
47.7188
 31
0.0
  0
LINE
  8
0
 62
     0
 10
209.356
 20
47.7188
 30
0.0
 11
209.356
 21
48.7179
 31
0.0
  0
LINE
  8
0
 62
     0
 10
209.356
 20
48.7179
 30
0.0
 11
210.156
 21
48.7179
 31
0.0
  0
LINE
  8
0
 62
     0
 10
210.156
 20
48.7179
 30
0.0
 11
210.156
 21
51.8185
 31
0.0
  0
LINE
  8
0
 62
     0
 10
210.156
 20
51.8185
 30
0.0
 11
209.356
 21
51.8185
 31
0.0
  0
LINE
  8
0
 62
     0
 10
209.356
 20
51.8185
 30
0.0
 11
209.356
 21
57.6185
 31
0.0
  0
LINE
  8
0
 62
     0
 10
209.356
 20
57.6185
 30
0.0
 11
210.156
 21
57.6185
 31
0.0
  0
LINE
  8
0
 62
     0
 10
210.156
 20
57.6185
 30
0.0
 11
210.156
 21
60.7176
 31
0.0
  0
LINE
  8
0
 62
     0
 10
210.156
 20
60.7176
 30
0.0
 11
209.356
 21
60.7176
 31
0.0
  0
LINE
  8
0
 62
     0
 10
209.356
 20
60.7176
 30
0.0
 11
209.356
 21
61.7181
 31
0.0
  0
LINE
  8
0
 62
     0
 10
209.356
 20
61.7181
 30
0.0
 11
195.356
 21
61.7181
 31
0.0
  0
LINE
  8
0
 62
     0
 10
214.406
 20
61.7181
 30
0.0
 11
214.406
 21
60.7176
 31
0.0
  0
LINE
  8
0
 62
     0
 10
214.406
 20
60.7176
 30
0.0
 11
213.606
 21
60.7176
 31
0.0
  0
LINE
  8
0
 62
     0
 10
213.606
 20
60.7176
 30
0.0
 11
213.606
 21
57.6185
 31
0.0
  0
LINE
  8
0
 62
     0
 10
213.606
 20
57.6185
 30
0.0
 11
214.406
 21
57.6185
 31
0.0
  0
LINE
  8
0
 62
     0
 10
214.406
 20
57.6185
 30
0.0
 11
214.406
 21
51.8185
 31
0.0
  0
LINE
  8
0
 62
     0
 10
214.406
 20
51.8185
 30
0.0
 11
213.606
 21
51.8185
 31
0.0
  0
LINE
  8
0
 62
     0
 10
213.606
 20
51.8185
 30
0.0
 11
213.606
 21
48.7179
 31
0.0
  0
LINE
  8
0
 62
     0
 10
213.606
 20
48.7179
 30
0.0
 11
214.406
 21
48.7179
 31
0.0
  0
LINE
  8
0
 62
     0
 10
214.406
 20
48.7179
 30
0.0
 11
214.406
 21
47.7188
 31
0.0
  0
LINE
  8
0
 62
     0
 10
214.406
 20
47.7188
 30
0.0
 11
228.406
 21
47.7188
 31
0.0
  0
LINE
  8
0
 62
     0
 10
228.406
 20
47.7188
 30
0.0
 11
228.406
 21
48.7179
 31
0.0
  0
LINE
  8
0
 62
     0
 10
228.406
 20
48.7179
 30
0.0
 11
229.206
 21
48.7179
 31
0.0
  0
LINE
  8
0
 62
     0
 10
229.206
 20
48.7179
 30
0.0
 11
229.206
 21
51.8185
 31
0.0
  0
LINE
  8
0
 62
     0
 10
229.206
 20
51.8185
 30
0.0
 11
228.406
 21
51.8185
 31
0.0
  0
LINE
  8
0
 62
     0
 10
228.406
 20
51.8185
 30
0.0
 11
228.406
 21
57.6185
 31
0.0
  0
LINE
  8
0
 62
     0
 10
228.406
 20
57.6185
 30
0.0
 11
229.206
 21
57.6185
 31
0.0
  0
LINE
  8
0
 62
     0
 10
229.206
 20
57.6185
 30
0.0
 11
229.206
 21
60.7176
 31
0.0
  0
LINE
  8
0
 62
     0
 10
229.206
 20
60.7176
 30
0.0
 11
228.406
 21
60.7176
 31
0.0
  0
LINE
  8
0
 62
     0
 10
228.406
 20
60.7176
 30
0.0
 11
228.406
 21
61.7181
 31
0.0
  0
LINE
  8
0
 62
     0
 10
228.406
 20
61.7181
 30
0.0
 11
214.406
 21
61.7181
 31
0.0
  0
LINE
  8
0
 62
     0
 10
233.456
 20
61.7181
 30
0.0
 11
233.456
 21
60.7176
 31
0.0
  0
LINE
  8
0
 62
     0
 10
233.456
 20
60.7176
 30
0.0
 11
232.656
 21
60.7176
 31
0.0
  0
LINE
  8
0
 62
     0
 10
232.656
 20
60.7176
 30
0.0
 11
232.656
 21
57.6185
 31
0.0
  0
LINE
  8
0
 62
     0
 10
232.656
 20
57.6185
 30
0.0
 11
233.456
 21
57.6185
 31
0.0
  0
LINE
  8
0
 62
     0
 10
233.456
 20
57.6185
 30
0.0
 11
233.456
 21
51.8185
 31
0.0
  0
LINE
  8
0
 62
     0
 10
233.456
 20
51.8185
 30
0.0
 11
232.656
 21
51.8185
 31
0.0
  0
LINE
  8
0
 62
     0
 10
232.656
 20
51.8185
 30
0.0
 11
232.656
 21
48.7179
 31
0.0
  0
LINE
  8
0
 62
     0
 10
232.656
 20
48.7179
 30
0.0
 11
233.456
 21
48.7179
 31
0.0
  0
LINE
  8
0
 62
     0
 10
233.456
 20
48.7179
 30
0.0
 11
233.456
 21
47.7188
 31
0.0
  0
LINE
  8
0
 62
     0
 10
233.456
 20
47.7188
 30
0.0
 11
247.456
 21
47.7188
 31
0.0
  0
LINE
  8
0
 62
     0
 10
247.456
 20
47.7188
 30
0.0
 11
247.456
 21
48.7179
 31
0.0
  0
LINE
  8
0
 62
     0
 10
247.456
 20
48.7179
 30
0.0
 11
248.256
 21
48.7179
 31
0.0
  0
LINE
  8
0
 62
     0
 10
248.256
 20
48.7179
 30
0.0
 11
248.256
 21
51.8185
 31
0.0
  0
LINE
  8
0
 62
     0
 10
248.256
 20
51.8185
 30
0.0
 11
247.456
 21
51.8185
 31
0.0
  0
LINE
  8
0
 62
     0
 10
247.456
 20
51.8185
 30
0.0
 11
247.456
 21
57.6185
 31
0.0
  0
LINE
  8
0
 62
     0
 10
247.456
 20
57.6185
 30
0.0
 11
248.256
 21
57.6185
 31
0.0
  0
LINE
  8
0
 62
     0
 10
248.256
 20
57.6185
 30
0.0
 11
248.256
 21
60.7176
 31
0.0
  0
LINE
  8
0
 62
     0
 10
248.256
 20
60.7176
 30
0.0
 11
247.456
 21
60.7176
 31
0.0
  0
LINE
  8
0
 62
     0
 10
247.456
 20
60.7176
 30
0.0
 11
247.456
 21
61.7181
 31
0.0
  0
LINE
  8
0
 62
     0
 10
247.456
 20
61.7181
 30
0.0
 11
233.456
 21
61.7181
 31
0.0
  0
LINE
  8
0
 62
     0
 10
295.369
 20
61.7181
 30
0.0
 11
295.369
 21
60.7176
 31
0.0
  0
LINE
  8
0
 62
     0
 10
295.369
 20
60.7176
 30
0.0
 11
294.568
 21
60.7176
 31
0.0
  0
LINE
  8
0
 62
     0
 10
294.568
 20
60.7176
 30
0.0
 11
294.568
 21
57.6185
 31
0.0
  0
LINE
  8
0
 62
     0
 10
294.568
 20
57.6185
 30
0.0
 11
295.369
 21
57.6185
 31
0.0
  0
LINE
  8
0
 62
     0
 10
295.369
 20
57.6185
 30
0.0
 11
295.369
 21
51.8185
 31
0.0
  0
LINE
  8
0
 62
     0
 10
295.369
 20
51.8185
 30
0.0
 11
294.568
 21
51.8185
 31
0.0
  0
LINE
  8
0
 62
     0
 10
294.568
 20
51.8185
 30
0.0
 11
294.568
 21
48.7179
 31
0.0
  0
LINE
  8
0
 62
     0
 10
294.568
 20
48.7179
 30
0.0
 11
295.369
 21
48.7179
 31
0.0
  0
LINE
  8
0
 62
     0
 10
295.369
 20
48.7179
 30
0.0
 11
295.369
 21
47.7188
 31
0.0
  0
LINE
  8
0
 62
     0
 10
295.369
 20
47.7188
 30
0.0
 11
309.368
 21
47.7188
 31
0.0
  0
LINE
  8
0
 62
     0
 10
309.368
 20
47.7188
 30
0.0
 11
309.368
 21
48.7179
 31
0.0
  0
LINE
  8
0
 62
     0
 10
309.368
 20
48.7179
 30
0.0
 11
310.169
 21
48.7179
 31
0.0
  0
LINE
  8
0
 62
     0
 10
310.169
 20
48.7179
 30
0.0
 11
310.169
 21
51.8185
 31
0.0
  0
LINE
  8
0
 62
     0
 10
310.169
 20
51.8185
 30
0.0
 11
309.368
 21
51.8185
 31
0.0
  0
LINE
  8
0
 62
     0
 10
309.368
 20
51.8185
 30
0.0
 11
309.368
 21
57.6185
 31
0.0
  0
LINE
  8
0
 62
     0
 10
309.368
 20
57.6185
 30
0.0
 11
310.169
 21
57.6185
 31
0.0
  0
LINE
  8
0
 62
     0
 10
310.169
 20
57.6185
 30
0.0
 11
310.169
 21
60.7176
 31
0.0
  0
LINE
  8
0
 62
     0
 10
310.169
 20
60.7176
 30
0.0
 11
309.368
 21
60.7176
 31
0.0
  0
LINE
  8
0
 62
     0
 10
309.368
 20
60.7176
 30
0.0
 11
309.368
 21
61.7181
 31
0.0
  0
LINE
  8
0
 62
     0
 10
309.368
 20
61.7181
 30
0.0
 11
295.369
 21
61.7181
 31
0.0
  0
LINE
  8
0
 62
     0
 10
14.3812
 20
80.7681
 30
0.0
 11
14.3812
 21
79.7676
 31
0.0
  0
LINE
  8
0
 62
     0
 10
14.3812
 20
79.7676
 30
0.0
 11
13.5806
 21
79.7676
 31
0.0
  0
LINE
  8
0
 62
     0
 10
13.5806
 20
79.7676
 30
0.0
 11
13.5806
 21
76.6685
 31
0.0
  0
LINE
  8
0
 62
     0
 10
13.5806
 20
76.6685
 30
0.0
 11
14.3812
 21
76.6685
 31
0.0
  0
LINE
  8
0
 62
     0
 10
14.3812
 20
76.6685
 30
0.0
 11
14.3812
 21
70.8685
 31
0.0
  0
LINE
  8
0
 62
     0
 10
14.3812
 20
70.8685
 30
0.0
 11
13.5806
 21
70.8685
 31
0.0
  0
LINE
  8
0
 62
     0
 10
13.5806
 20
70.8685
 30
0.0
 11
13.5806
 21
67.7679
 31
0.0
  0
LINE
  8
0
 62
     0
 10
13.5806
 20
67.7679
 30
0.0
 11
14.3812
 21
67.7679
 31
0.0
  0
LINE
  8
0
 62
     0
 10
14.3812
 20
67.7679
 30
0.0
 11
14.3812
 21
66.7688
 31
0.0
  0
LINE
  8
0
 62
     0
 10
14.3812
 20
66.7688
 30
0.0
 11
28.3807
 21
66.7688
 31
0.0
  0
LINE
  8
0
 62
     0
 10
28.3807
 20
66.7688
 30
0.0
 11
28.3807
 21
67.7679
 31
0.0
  0
LINE
  8
0
 62
     0
 10
28.3807
 20
67.7679
 30
0.0
 11
29.1814
 21
67.7679
 31
0.0
  0
LINE
  8
0
 62
     0
 10
29.1814
 20
67.7679
 30
0.0
 11
29.1814
 21
70.8685
 31
0.0
  0
LINE
  8
0
 62
     0
 10
29.1814
 20
70.8685
 30
0.0
 11
28.3807
 21
70.8685
 31
0.0
  0
LINE
  8
0
 62
     0
 10
28.3807
 20
70.8685
 30
0.0
 11
28.3807
 21
76.6685
 31
0.0
  0
LINE
  8
0
 62
     0
 10
28.3807
 20
76.6685
 30
0.0
 11
29.1814
 21
76.6685
 31
0.0
  0
LINE
  8
0
 62
     0
 10
29.1814
 20
76.6685
 30
0.0
 11
29.1814
 21
79.7676
 31
0.0
  0
LINE
  8
0
 62
     0
 10
29.1814
 20
79.7676
 30
0.0
 11
28.3807
 21
79.7676
 31
0.0
  0
LINE
  8
0
 62
     0
 10
28.3807
 20
79.7676
 30
0.0
 11
28.3807
 21
80.7681
 31
0.0
  0
LINE
  8
0
 62
     0
 10
28.3807
 20
80.7681
 30
0.0
 11
14.3812
 21
80.7681
 31
0.0
  0
LINE
  8
0
 62
     0
 10
38.1938
 20
80.7681
 30
0.0
 11
38.1938
 21
79.7676
 31
0.0
  0
LINE
  8
0
 62
     0
 10
38.1938
 20
79.7676
 30
0.0
 11
37.393
 21
79.7676
 31
0.0
  0
LINE
  8
0
 62
     0
 10
37.393
 20
79.7676
 30
0.0
 11
37.393
 21
76.6685
 31
0.0
  0
LINE
  8
0
 62
     0
 10
37.393
 20
76.6685
 30
0.0
 11
38.1938
 21
76.6685
 31
0.0
  0
LINE
  8
0
 62
     0
 10
38.1938
 20
76.6685
 30
0.0
 11
38.1938
 21
70.8685
 31
0.0
  0
LINE
  8
0
 62
     0
 10
38.1938
 20
70.8685
 30
0.0
 11
37.393
 21
70.8685
 31
0.0
  0
LINE
  8
0
 62
     0
 10
37.393
 20
70.8685
 30
0.0
 11
37.393
 21
67.7679
 31
0.0
  0
LINE
  8
0
 62
     0
 10
37.393
 20
67.7679
 30
0.0
 11
38.1938
 21
67.7679
 31
0.0
  0
LINE
  8
0
 62
     0
 10
38.1938
 20
67.7679
 30
0.0
 11
38.1938
 21
66.7688
 31
0.0
  0
LINE
  8
0
 62
     0
 10
38.1938
 20
66.7688
 30
0.0
 11
52.1931
 21
66.7688
 31
0.0
  0
LINE
  8
0
 62
     0
 10
52.1931
 20
66.7688
 30
0.0
 11
52.1931
 21
67.7679
 31
0.0
  0
LINE
  8
0
 62
     0
 10
52.1931
 20
67.7679
 30
0.0
 11
52.9939
 21
67.7679
 31
0.0
  0
LINE
  8
0
 62
     0
 10
52.9939
 20
67.7679
 30
0.0
 11
52.9939
 21
70.8685
 31
0.0
  0
LINE
  8
0
 62
     0
 10
52.9939
 20
70.8685
 30
0.0
 11
52.1931
 21
70.8685
 31
0.0
  0
LINE
  8
0
 62
     0
 10
52.1931
 20
70.8685
 30
0.0
 11
52.1931
 21
76.6685
 31
0.0
  0
LINE
  8
0
 62
     0
 10
52.1931
 20
76.6685
 30
0.0
 11
52.9939
 21
76.6685
 31
0.0
  0
LINE
  8
0
 62
     0
 10
52.9939
 20
76.6685
 30
0.0
 11
52.9939
 21
79.7676
 31
0.0
  0
LINE
  8
0
 62
     0
 10
52.9939
 20
79.7676
 30
0.0
 11
52.1931
 21
79.7676
 31
0.0
  0
LINE
  8
0
 62
     0
 10
52.1931
 20
79.7676
 30
0.0
 11
52.1931
 21
80.7681
 31
0.0
  0
LINE
  8
0
 62
     0
 10
52.1931
 20
80.7681
 30
0.0
 11
38.1938
 21
80.7681
 31
0.0
  0
LINE
  8
0
 62
     0
 10
57.2438
 20
80.7681
 30
0.0
 11
57.2438
 21
79.7676
 31
0.0
  0
LINE
  8
0
 62
     0
 10
57.2438
 20
79.7676
 30
0.0
 11
56.443
 21
79.7676
 31
0.0
  0
LINE
  8
0
 62
     0
 10
56.443
 20
79.7676
 30
0.0
 11
56.443
 21
76.6685
 31
0.0
  0
LINE
  8
0
 62
     0
 10
56.443
 20
76.6685
 30
0.0
 11
57.2438
 21
76.6685
 31
0.0
  0
LINE
  8
0
 62
     0
 10
57.2438
 20
76.6685
 30
0.0
 11
57.2438
 21
70.8685
 31
0.0
  0
LINE
  8
0
 62
     0
 10
57.2438
 20
70.8685
 30
0.0
 11
56.443
 21
70.8685
 31
0.0
  0
LINE
  8
0
 62
     0
 10
56.443
 20
70.8685
 30
0.0
 11
56.443
 21
67.7679
 31
0.0
  0
LINE
  8
0
 62
     0
 10
56.443
 20
67.7679
 30
0.0
 11
57.2438
 21
67.7679
 31
0.0
  0
LINE
  8
0
 62
     0
 10
57.2438
 20
67.7679
 30
0.0
 11
57.2438
 21
66.7688
 31
0.0
  0
LINE
  8
0
 62
     0
 10
57.2438
 20
66.7688
 30
0.0
 11
71.2431
 21
66.7688
 31
0.0
  0
LINE
  8
0
 62
     0
 10
71.2431
 20
66.7688
 30
0.0
 11
71.2431
 21
67.7679
 31
0.0
  0
LINE
  8
0
 62
     0
 10
71.2431
 20
67.7679
 30
0.0
 11
72.0439
 21
67.7679
 31
0.0
  0
LINE
  8
0
 62
     0
 10
72.0439
 20
67.7679
 30
0.0
 11
72.0439
 21
70.8685
 31
0.0
  0
LINE
  8
0
 62
     0
 10
72.0439
 20
70.8685
 30
0.0
 11
71.2431
 21
70.8685
 31
0.0
  0
LINE
  8
0
 62
     0
 10
71.2431
 20
70.8685
 30
0.0
 11
71.2431
 21
76.6685
 31
0.0
  0
LINE
  8
0
 62
     0
 10
71.2431
 20
76.6685
 30
0.0
 11
72.0439
 21
76.6685
 31
0.0
  0
LINE
  8
0
 62
     0
 10
72.0439
 20
76.6685
 30
0.0
 11
72.0439
 21
79.7676
 31
0.0
  0
LINE
  8
0
 62
     0
 10
72.0439
 20
79.7676
 30
0.0
 11
71.2431
 21
79.7676
 31
0.0
  0
LINE
  8
0
 62
     0
 10
71.2431
 20
79.7676
 30
0.0
 11
71.2431
 21
80.7681
 31
0.0
  0
LINE
  8
0
 62
     0
 10
71.2431
 20
80.7681
 30
0.0
 11
57.2438
 21
80.7681
 31
0.0
  0
LINE
  8
0
 62
     0
 10
76.2938
 20
80.7681
 30
0.0
 11
76.2938
 21
79.7676
 31
0.0
  0
LINE
  8
0
 62
     0
 10
76.2938
 20
79.7676
 30
0.0
 11
75.493
 21
79.7676
 31
0.0
  0
LINE
  8
0
 62
     0
 10
75.493
 20
79.7676
 30
0.0
 11
75.493
 21
76.6685
 31
0.0
  0
LINE
  8
0
 62
     0
 10
75.493
 20
76.6685
 30
0.0
 11
76.2938
 21
76.6685
 31
0.0
  0
LINE
  8
0
 62
     0
 10
76.2938
 20
76.6685
 30
0.0
 11
76.2938
 21
70.8685
 31
0.0
  0
LINE
  8
0
 62
     0
 10
76.2938
 20
70.8685
 30
0.0
 11
75.493
 21
70.8685
 31
0.0
  0
LINE
  8
0
 62
     0
 10
75.493
 20
70.8685
 30
0.0
 11
75.493
 21
67.7679
 31
0.0
  0
LINE
  8
0
 62
     0
 10
75.493
 20
67.7679
 30
0.0
 11
76.2938
 21
67.7679
 31
0.0
  0
LINE
  8
0
 62
     0
 10
76.2938
 20
67.7679
 30
0.0
 11
76.2938
 21
66.7688
 31
0.0
  0
LINE
  8
0
 62
     0
 10
76.2938
 20
66.7688
 30
0.0
 11
90.2931
 21
66.7688
 31
0.0
  0
LINE
  8
0
 62
     0
 10
90.2931
 20
66.7688
 30
0.0
 11
90.2931
 21
67.7679
 31
0.0
  0
LINE
  8
0
 62
     0
 10
90.2931
 20
67.7679
 30
0.0
 11
91.0939
 21
67.7679
 31
0.0
  0
LINE
  8
0
 62
     0
 10
91.0939
 20
67.7679
 30
0.0
 11
91.0939
 21
70.8685
 31
0.0
  0
LINE
  8
0
 62
     0
 10
91.0939
 20
70.8685
 30
0.0
 11
90.2931
 21
70.8685
 31
0.0
  0
LINE
  8
0
 62
     0
 10
90.2931
 20
70.8685
 30
0.0
 11
90.2931
 21
76.6685
 31
0.0
  0
LINE
  8
0
 62
     0
 10
90.2931
 20
76.6685
 30
0.0
 11
91.0939
 21
76.6685
 31
0.0
  0
LINE
  8
0
 62
     0
 10
91.0939
 20
76.6685
 30
0.0
 11
91.0939
 21
79.7676
 31
0.0
  0
LINE
  8
0
 62
     0
 10
91.0939
 20
79.7676
 30
0.0
 11
90.2931
 21
79.7676
 31
0.0
  0
LINE
  8
0
 62
     0
 10
90.2931
 20
79.7676
 30
0.0
 11
90.2931
 21
80.7681
 31
0.0
  0
LINE
  8
0
 62
     0
 10
90.2931
 20
80.7681
 30
0.0
 11
76.2938
 21
80.7681
 31
0.0
  0
LINE
  8
0
 62
     0
 10
95.3438
 20
80.7681
 30
0.0
 11
95.3438
 21
79.7676
 31
0.0
  0
LINE
  8
0
 62
     0
 10
95.3438
 20
79.7676
 30
0.0
 11
94.543
 21
79.7676
 31
0.0
  0
LINE
  8
0
 62
     0
 10
94.543
 20
79.7676
 30
0.0
 11
94.543
 21
76.6685
 31
0.0
  0
LINE
  8
0
 62
     0
 10
94.543
 20
76.6685
 30
0.0
 11
95.3438
 21
76.6685
 31
0.0
  0
LINE
  8
0
 62
     0
 10
95.3438
 20
76.6685
 30
0.0
 11
95.3438
 21
70.8685
 31
0.0
  0
LINE
  8
0
 62
     0
 10
95.3438
 20
70.8685
 30
0.0
 11
94.543
 21
70.8685
 31
0.0
  0
LINE
  8
0
 62
     0
 10
94.543
 20
70.8685
 30
0.0
 11
94.543
 21
67.7679
 31
0.0
  0
LINE
  8
0
 62
     0
 10
94.543
 20
67.7679
 30
0.0
 11
95.3438
 21
67.7679
 31
0.0
  0
LINE
  8
0
 62
     0
 10
95.3438
 20
67.7679
 30
0.0
 11
95.3438
 21
66.7688
 31
0.0
  0
LINE
  8
0
 62
     0
 10
95.3438
 20
66.7688
 30
0.0
 11
109.343
 21
66.7688
 31
0.0
  0
LINE
  8
0
 62
     0
 10
109.343
 20
66.7688
 30
0.0
 11
109.343
 21
67.7679
 31
0.0
  0
LINE
  8
0
 62
     0
 10
109.343
 20
67.7679
 30
0.0
 11
110.144
 21
67.7679
 31
0.0
  0
LINE
  8
0
 62
     0
 10
110.144
 20
67.7679
 30
0.0
 11
110.144
 21
70.8685
 31
0.0
  0
LINE
  8
0
 62
     0
 10
110.144
 20
70.8685
 30
0.0
 11
109.343
 21
70.8685
 31
0.0
  0
LINE
  8
0
 62
     0
 10
109.343
 20
70.8685
 30
0.0
 11
109.343
 21
76.6685
 31
0.0
  0
LINE
  8
0
 62
     0
 10
109.343
 20
76.6685
 30
0.0
 11
110.144
 21
76.6685
 31
0.0
  0
LINE
  8
0
 62
     0
 10
110.144
 20
76.6685
 30
0.0
 11
110.144
 21
79.7676
 31
0.0
  0
LINE
  8
0
 62
     0
 10
110.144
 20
79.7676
 30
0.0
 11
109.343
 21
79.7676
 31
0.0
  0
LINE
  8
0
 62
     0
 10
109.343
 20
79.7676
 30
0.0
 11
109.343
 21
80.7681
 31
0.0
  0
LINE
  8
0
 62
     0
 10
109.343
 20
80.7681
 30
0.0
 11
95.3438
 21
80.7681
 31
0.0
  0
LINE
  8
0
 62
     0
 10
114.394
 20
80.7681
 30
0.0
 11
114.394
 21
79.7676
 31
0.0
  0
LINE
  8
0
 62
     0
 10
114.394
 20
79.7676
 30
0.0
 11
113.593
 21
79.7676
 31
0.0
  0
LINE
  8
0
 62
     0
 10
113.593
 20
79.7676
 30
0.0
 11
113.593
 21
76.6685
 31
0.0
  0
LINE
  8
0
 62
     0
 10
113.593
 20
76.6685
 30
0.0
 11
114.394
 21
76.6685
 31
0.0
  0
LINE
  8
0
 62
     0
 10
114.394
 20
76.6685
 30
0.0
 11
114.394
 21
70.8685
 31
0.0
  0
LINE
  8
0
 62
     0
 10
114.394
 20
70.8685
 30
0.0
 11
113.593
 21
70.8685
 31
0.0
  0
LINE
  8
0
 62
     0
 10
113.593
 20
70.8685
 30
0.0
 11
113.593
 21
67.7679
 31
0.0
  0
LINE
  8
0
 62
     0
 10
113.593
 20
67.7679
 30
0.0
 11
114.394
 21
67.7679
 31
0.0
  0
LINE
  8
0
 62
     0
 10
114.394
 20
67.7679
 30
0.0
 11
114.394
 21
66.7688
 31
0.0
  0
LINE
  8
0
 62
     0
 10
114.394
 20
66.7688
 30
0.0
 11
128.393
 21
66.7688
 31
0.0
  0
LINE
  8
0
 62
     0
 10
128.393
 20
66.7688
 30
0.0
 11
128.393
 21
67.7679
 31
0.0
  0
LINE
  8
0
 62
     0
 10
128.393
 20
67.7679
 30
0.0
 11
129.194
 21
67.7679
 31
0.0
  0
LINE
  8
0
 62
     0
 10
129.194
 20
67.7679
 30
0.0
 11
129.194
 21
70.8685
 31
0.0
  0
LINE
  8
0
 62
     0
 10
129.194
 20
70.8685
 30
0.0
 11
128.393
 21
70.8685
 31
0.0
  0
LINE
  8
0
 62
     0
 10
128.393
 20
70.8685
 30
0.0
 11
128.393
 21
76.6685
 31
0.0
  0
LINE
  8
0
 62
     0
 10
128.393
 20
76.6685
 30
0.0
 11
129.194
 21
76.6685
 31
0.0
  0
LINE
  8
0
 62
     0
 10
129.194
 20
76.6685
 30
0.0
 11
129.194
 21
79.7676
 31
0.0
  0
LINE
  8
0
 62
     0
 10
129.194
 20
79.7676
 30
0.0
 11
128.393
 21
79.7676
 31
0.0
  0
LINE
  8
0
 62
     0
 10
128.393
 20
79.7676
 30
0.0
 11
128.393
 21
80.7681
 31
0.0
  0
LINE
  8
0
 62
     0
 10
128.393
 20
80.7681
 30
0.0
 11
114.394
 21
80.7681
 31
0.0
  0
LINE
  8
0
 62
     0
 10
133.444
 20
80.7681
 30
0.0
 11
133.444
 21
79.7676
 31
0.0
  0
LINE
  8
0
 62
     0
 10
133.444
 20
79.7676
 30
0.0
 11
132.643
 21
79.7676
 31
0.0
  0
LINE
  8
0
 62
     0
 10
132.643
 20
79.7676
 30
0.0
 11
132.643
 21
76.6685
 31
0.0
  0
LINE
  8
0
 62
     0
 10
132.643
 20
76.6685
 30
0.0
 11
133.444
 21
76.6685
 31
0.0
  0
LINE
  8
0
 62
     0
 10
133.444
 20
76.6685
 30
0.0
 11
133.444
 21
70.8685
 31
0.0
  0
LINE
  8
0
 62
     0
 10
133.444
 20
70.8685
 30
0.0
 11
132.643
 21
70.8685
 31
0.0
  0
LINE
  8
0
 62
     0
 10
132.643
 20
70.8685
 30
0.0
 11
132.643
 21
67.7679
 31
0.0
  0
LINE
  8
0
 62
     0
 10
132.643
 20
67.7679
 30
0.0
 11
133.444
 21
67.7679
 31
0.0
  0
LINE
  8
0
 62
     0
 10
133.444
 20
67.7679
 30
0.0
 11
133.444
 21
66.7688
 31
0.0
  0
LINE
  8
0
 62
     0
 10
133.444
 20
66.7688
 30
0.0
 11
147.443
 21
66.7688
 31
0.0
  0
LINE
  8
0
 62
     0
 10
147.443
 20
66.7688
 30
0.0
 11
147.443
 21
67.7679
 31
0.0
  0
LINE
  8
0
 62
     0
 10
147.443
 20
67.7679
 30
0.0
 11
148.244
 21
67.7679
 31
0.0
  0
LINE
  8
0
 62
     0
 10
148.244
 20
67.7679
 30
0.0
 11
148.244
 21
70.8685
 31
0.0
  0
LINE
  8
0
 62
     0
 10
148.244
 20
70.8685
 30
0.0
 11
147.443
 21
70.8685
 31
0.0
  0
LINE
  8
0
 62
     0
 10
147.443
 20
70.8685
 30
0.0
 11
147.443
 21
76.6685
 31
0.0
  0
LINE
  8
0
 62
     0
 10
147.443
 20
76.6685
 30
0.0
 11
148.244
 21
76.6685
 31
0.0
  0
LINE
  8
0
 62
     0
 10
148.244
 20
76.6685
 30
0.0
 11
148.244
 21
79.7676
 31
0.0
  0
LINE
  8
0
 62
     0
 10
148.244
 20
79.7676
 30
0.0
 11
147.443
 21
79.7676
 31
0.0
  0
LINE
  8
0
 62
     0
 10
147.443
 20
79.7676
 30
0.0
 11
147.443
 21
80.7681
 31
0.0
  0
LINE
  8
0
 62
     0
 10
147.443
 20
80.7681
 30
0.0
 11
133.444
 21
80.7681
 31
0.0
  0
LINE
  8
0
 62
     0
 10
152.494
 20
80.7681
 30
0.0
 11
152.494
 21
79.7676
 31
0.0
  0
LINE
  8
0
 62
     0
 10
152.494
 20
79.7676
 30
0.0
 11
151.693
 21
79.7676
 31
0.0
  0
LINE
  8
0
 62
     0
 10
151.693
 20
79.7676
 30
0.0
 11
151.693
 21
76.6685
 31
0.0
  0
LINE
  8
0
 62
     0
 10
151.693
 20
76.6685
 30
0.0
 11
152.494
 21
76.6685
 31
0.0
  0
LINE
  8
0
 62
     0
 10
152.494
 20
76.6685
 30
0.0
 11
152.494
 21
70.8685
 31
0.0
  0
LINE
  8
0
 62
     0
 10
152.494
 20
70.8685
 30
0.0
 11
151.693
 21
70.8685
 31
0.0
  0
LINE
  8
0
 62
     0
 10
151.693
 20
70.8685
 30
0.0
 11
151.693
 21
67.7679
 31
0.0
  0
LINE
  8
0
 62
     0
 10
151.693
 20
67.7679
 30
0.0
 11
152.494
 21
67.7679
 31
0.0
  0
LINE
  8
0
 62
     0
 10
152.494
 20
67.7679
 30
0.0
 11
152.494
 21
66.7688
 31
0.0
  0
LINE
  8
0
 62
     0
 10
152.494
 20
66.7688
 30
0.0
 11
166.493
 21
66.7688
 31
0.0
  0
LINE
  8
0
 62
     0
 10
166.493
 20
66.7688
 30
0.0
 11
166.493
 21
67.7679
 31
0.0
  0
LINE
  8
0
 62
     0
 10
166.493
 20
67.7679
 30
0.0
 11
167.294
 21
67.7679
 31
0.0
  0
LINE
  8
0
 62
     0
 10
167.294
 20
67.7679
 30
0.0
 11
167.294
 21
70.8685
 31
0.0
  0
LINE
  8
0
 62
     0
 10
167.294
 20
70.8685
 30
0.0
 11
166.493
 21
70.8685
 31
0.0
  0
LINE
  8
0
 62
     0
 10
166.493
 20
70.8685
 30
0.0
 11
166.493
 21
76.6685
 31
0.0
  0
LINE
  8
0
 62
     0
 10
166.493
 20
76.6685
 30
0.0
 11
167.294
 21
76.6685
 31
0.0
  0
LINE
  8
0
 62
     0
 10
167.294
 20
76.6685
 30
0.0
 11
167.294
 21
79.7676
 31
0.0
  0
LINE
  8
0
 62
     0
 10
167.294
 20
79.7676
 30
0.0
 11
166.493
 21
79.7676
 31
0.0
  0
LINE
  8
0
 62
     0
 10
166.493
 20
79.7676
 30
0.0
 11
166.493
 21
80.7681
 31
0.0
  0
LINE
  8
0
 62
     0
 10
166.493
 20
80.7681
 30
0.0
 11
152.494
 21
80.7681
 31
0.0
  0
LINE
  8
0
 62
     0
 10
171.544
 20
80.7681
 30
0.0
 11
171.544
 21
79.7676
 31
0.0
  0
LINE
  8
0
 62
     0
 10
171.544
 20
79.7676
 30
0.0
 11
170.743
 21
79.7676
 31
0.0
  0
LINE
  8
0
 62
     0
 10
170.743
 20
79.7676
 30
0.0
 11
170.743
 21
76.6685
 31
0.0
  0
LINE
  8
0
 62
     0
 10
170.743
 20
76.6685
 30
0.0
 11
171.544
 21
76.6685
 31
0.0
  0
LINE
  8
0
 62
     0
 10
171.544
 20
76.6685
 30
0.0
 11
171.544
 21
70.8685
 31
0.0
  0
LINE
  8
0
 62
     0
 10
171.544
 20
70.8685
 30
0.0
 11
170.743
 21
70.8685
 31
0.0
  0
LINE
  8
0
 62
     0
 10
170.743
 20
70.8685
 30
0.0
 11
170.743
 21
67.7679
 31
0.0
  0
LINE
  8
0
 62
     0
 10
170.743
 20
67.7679
 30
0.0
 11
171.544
 21
67.7679
 31
0.0
  0
LINE
  8
0
 62
     0
 10
171.544
 20
67.7679
 30
0.0
 11
171.544
 21
66.7688
 31
0.0
  0
LINE
  8
0
 62
     0
 10
171.544
 20
66.7688
 30
0.0
 11
185.543
 21
66.7688
 31
0.0
  0
LINE
  8
0
 62
     0
 10
185.543
 20
66.7688
 30
0.0
 11
185.543
 21
67.7679
 31
0.0
  0
LINE
  8
0
 62
     0
 10
185.543
 20
67.7679
 30
0.0
 11
186.344
 21
67.7679
 31
0.0
  0
LINE
  8
0
 62
     0
 10
186.344
 20
67.7679
 30
0.0
 11
186.344
 21
70.8685
 31
0.0
  0
LINE
  8
0
 62
     0
 10
186.344
 20
70.8685
 30
0.0
 11
185.543
 21
70.8685
 31
0.0
  0
LINE
  8
0
 62
     0
 10
185.543
 20
70.8685
 30
0.0
 11
185.543
 21
76.6685
 31
0.0
  0
LINE
  8
0
 62
     0
 10
185.543
 20
76.6685
 30
0.0
 11
186.344
 21
76.6685
 31
0.0
  0
LINE
  8
0
 62
     0
 10
186.344
 20
76.6685
 30
0.0
 11
186.344
 21
79.7676
 31
0.0
  0
LINE
  8
0
 62
     0
 10
186.344
 20
79.7676
 30
0.0
 11
185.543
 21
79.7676
 31
0.0
  0
LINE
  8
0
 62
     0
 10
185.543
 20
79.7676
 30
0.0
 11
185.543
 21
80.7681
 31
0.0
  0
LINE
  8
0
 62
     0
 10
185.543
 20
80.7681
 30
0.0
 11
171.544
 21
80.7681
 31
0.0
  0
LINE
  8
0
 62
     0
 10
190.594
 20
80.7681
 30
0.0
 11
190.594
 21
79.7676
 31
0.0
  0
LINE
  8
0
 62
     0
 10
190.594
 20
79.7676
 30
0.0
 11
189.793
 21
79.7676
 31
0.0
  0
LINE
  8
0
 62
     0
 10
189.793
 20
79.7676
 30
0.0
 11
189.793
 21
76.6685
 31
0.0
  0
LINE
  8
0
 62
     0
 10
189.793
 20
76.6685
 30
0.0
 11
190.594
 21
76.6685
 31
0.0
  0
LINE
  8
0
 62
     0
 10
190.594
 20
76.6685
 30
0.0
 11
190.594
 21
70.8685
 31
0.0
  0
LINE
  8
0
 62
     0
 10
190.594
 20
70.8685
 30
0.0
 11
189.793
 21
70.8685
 31
0.0
  0
LINE
  8
0
 62
     0
 10
189.793
 20
70.8685
 30
0.0
 11
189.793
 21
67.7679
 31
0.0
  0
LINE
  8
0
 62
     0
 10
189.793
 20
67.7679
 30
0.0
 11
190.594
 21
67.7679
 31
0.0
  0
LINE
  8
0
 62
     0
 10
190.594
 20
67.7679
 30
0.0
 11
190.594
 21
66.7688
 31
0.0
  0
LINE
  8
0
 62
     0
 10
190.594
 20
66.7688
 30
0.0
 11
204.593
 21
66.7688
 31
0.0
  0
LINE
  8
0
 62
     0
 10
204.593
 20
66.7688
 30
0.0
 11
204.593
 21
67.7679
 31
0.0
  0
LINE
  8
0
 62
     0
 10
204.593
 20
67.7679
 30
0.0
 11
205.394
 21
67.7679
 31
0.0
  0
LINE
  8
0
 62
     0
 10
205.394
 20
67.7679
 30
0.0
 11
205.394
 21
70.8685
 31
0.0
  0
LINE
  8
0
 62
     0
 10
205.394
 20
70.8685
 30
0.0
 11
204.593
 21
70.8685
 31
0.0
  0
LINE
  8
0
 62
     0
 10
204.593
 20
70.8685
 30
0.0
 11
204.593
 21
76.6685
 31
0.0
  0
LINE
  8
0
 62
     0
 10
204.593
 20
76.6685
 30
0.0
 11
205.394
 21
76.6685
 31
0.0
  0
LINE
  8
0
 62
     0
 10
205.394
 20
76.6685
 30
0.0
 11
205.394
 21
79.7676
 31
0.0
  0
LINE
  8
0
 62
     0
 10
205.394
 20
79.7676
 30
0.0
 11
204.593
 21
79.7676
 31
0.0
  0
LINE
  8
0
 62
     0
 10
204.593
 20
79.7676
 30
0.0
 11
204.593
 21
80.7681
 31
0.0
  0
LINE
  8
0
 62
     0
 10
204.593
 20
80.7681
 30
0.0
 11
190.594
 21
80.7681
 31
0.0
  0
LINE
  8
0
 62
     0
 10
209.644
 20
80.7681
 30
0.0
 11
209.644
 21
79.7676
 31
0.0
  0
LINE
  8
0
 62
     0
 10
209.644
 20
79.7676
 30
0.0
 11
208.843
 21
79.7676
 31
0.0
  0
LINE
  8
0
 62
     0
 10
208.843
 20
79.7676
 30
0.0
 11
208.843
 21
76.6685
 31
0.0
  0
LINE
  8
0
 62
     0
 10
208.843
 20
76.6685
 30
0.0
 11
209.644
 21
76.6685
 31
0.0
  0
LINE
  8
0
 62
     0
 10
209.644
 20
76.6685
 30
0.0
 11
209.644
 21
70.8685
 31
0.0
  0
LINE
  8
0
 62
     0
 10
209.644
 20
70.8685
 30
0.0
 11
208.843
 21
70.8685
 31
0.0
  0
LINE
  8
0
 62
     0
 10
208.843
 20
70.8685
 30
0.0
 11
208.843
 21
67.7679
 31
0.0
  0
LINE
  8
0
 62
     0
 10
208.843
 20
67.7679
 30
0.0
 11
209.644
 21
67.7679
 31
0.0
  0
LINE
  8
0
 62
     0
 10
209.644
 20
67.7679
 30
0.0
 11
209.644
 21
66.7688
 31
0.0
  0
LINE
  8
0
 62
     0
 10
209.644
 20
66.7688
 30
0.0
 11
223.643
 21
66.7688
 31
0.0
  0
LINE
  8
0
 62
     0
 10
223.643
 20
66.7688
 30
0.0
 11
223.643
 21
67.7679
 31
0.0
  0
LINE
  8
0
 62
     0
 10
223.643
 20
67.7679
 30
0.0
 11
224.444
 21
67.7679
 31
0.0
  0
LINE
  8
0
 62
     0
 10
224.444
 20
67.7679
 30
0.0
 11
224.444
 21
70.8685
 31
0.0
  0
LINE
  8
0
 62
     0
 10
224.444
 20
70.8685
 30
0.0
 11
223.643
 21
70.8685
 31
0.0
  0
LINE
  8
0
 62
     0
 10
223.643
 20
70.8685
 30
0.0
 11
223.643
 21
76.6685
 31
0.0
  0
LINE
  8
0
 62
     0
 10
223.643
 20
76.6685
 30
0.0
 11
224.444
 21
76.6685
 31
0.0
  0
LINE
  8
0
 62
     0
 10
224.444
 20
76.6685
 30
0.0
 11
224.444
 21
79.7676
 31
0.0
  0
LINE
  8
0
 62
     0
 10
224.444
 20
79.7676
 30
0.0
 11
223.643
 21
79.7676
 31
0.0
  0
LINE
  8
0
 62
     0
 10
223.643
 20
79.7676
 30
0.0
 11
223.643
 21
80.7681
 31
0.0
  0
LINE
  8
0
 62
     0
 10
223.643
 20
80.7681
 30
0.0
 11
209.644
 21
80.7681
 31
0.0
  0
LINE
  8
0
 62
     0
 10
228.694
 20
80.7681
 30
0.0
 11
228.694
 21
79.7676
 31
0.0
  0
LINE
  8
0
 62
     0
 10
228.694
 20
79.7676
 30
0.0
 11
227.893
 21
79.7676
 31
0.0
  0
LINE
  8
0
 62
     0
 10
227.893
 20
79.7676
 30
0.0
 11
227.893
 21
76.6685
 31
0.0
  0
LINE
  8
0
 62
     0
 10
227.893
 20
76.6685
 30
0.0
 11
228.694
 21
76.6685
 31
0.0
  0
LINE
  8
0
 62
     0
 10
228.694
 20
76.6685
 30
0.0
 11
228.694
 21
70.8685
 31
0.0
  0
LINE
  8
0
 62
     0
 10
228.694
 20
70.8685
 30
0.0
 11
227.893
 21
70.8685
 31
0.0
  0
LINE
  8
0
 62
     0
 10
227.893
 20
70.8685
 30
0.0
 11
227.893
 21
67.7679
 31
0.0
  0
LINE
  8
0
 62
     0
 10
227.893
 20
67.7679
 30
0.0
 11
228.694
 21
67.7679
 31
0.0
  0
LINE
  8
0
 62
     0
 10
228.694
 20
67.7679
 30
0.0
 11
228.694
 21
66.7688
 31
0.0
  0
LINE
  8
0
 62
     0
 10
228.694
 20
66.7688
 30
0.0
 11
242.693
 21
66.7688
 31
0.0
  0
LINE
  8
0
 62
     0
 10
242.693
 20
66.7688
 30
0.0
 11
242.693
 21
67.7679
 31
0.0
  0
LINE
  8
0
 62
     0
 10
242.693
 20
67.7679
 30
0.0
 11
243.494
 21
67.7679
 31
0.0
  0
LINE
  8
0
 62
     0
 10
243.494
 20
67.7679
 30
0.0
 11
243.494
 21
70.8685
 31
0.0
  0
LINE
  8
0
 62
     0
 10
243.494
 20
70.8685
 30
0.0
 11
242.693
 21
70.8685
 31
0.0
  0
LINE
  8
0
 62
     0
 10
242.693
 20
70.8685
 30
0.0
 11
242.693
 21
76.6685
 31
0.0
  0
LINE
  8
0
 62
     0
 10
242.693
 20
76.6685
 30
0.0
 11
243.494
 21
76.6685
 31
0.0
  0
LINE
  8
0
 62
     0
 10
243.494
 20
76.6685
 30
0.0
 11
243.494
 21
79.7676
 31
0.0
  0
LINE
  8
0
 62
     0
 10
243.494
 20
79.7676
 30
0.0
 11
242.693
 21
79.7676
 31
0.0
  0
LINE
  8
0
 62
     0
 10
242.693
 20
79.7676
 30
0.0
 11
242.693
 21
80.7681
 31
0.0
  0
LINE
  8
0
 62
     0
 10
242.693
 20
80.7681
 30
0.0
 11
228.694
 21
80.7681
 31
0.0
  0
LINE
  8
0
 62
     0
 10
247.744
 20
80.7681
 30
0.0
 11
247.744
 21
79.7676
 31
0.0
  0
LINE
  8
0
 62
     0
 10
247.744
 20
79.7676
 30
0.0
 11
246.943
 21
79.7676
 31
0.0
  0
LINE
  8
0
 62
     0
 10
246.943
 20
79.7676
 30
0.0
 11
246.943
 21
76.6685
 31
0.0
  0
LINE
  8
0
 62
     0
 10
246.943
 20
76.6685
 30
0.0
 11
247.744
 21
76.6685
 31
0.0
  0
LINE
  8
0
 62
     0
 10
247.744
 20
76.6685
 30
0.0
 11
247.744
 21
70.8685
 31
0.0
  0
LINE
  8
0
 62
     0
 10
247.744
 20
70.8685
 30
0.0
 11
246.943
 21
70.8685
 31
0.0
  0
LINE
  8
0
 62
     0
 10
246.943
 20
70.8685
 30
0.0
 11
246.943
 21
67.7679
 31
0.0
  0
LINE
  8
0
 62
     0
 10
246.943
 20
67.7679
 30
0.0
 11
247.744
 21
67.7679
 31
0.0
  0
LINE
  8
0
 62
     0
 10
247.744
 20
67.7679
 30
0.0
 11
247.744
 21
66.7688
 31
0.0
  0
LINE
  8
0
 62
     0
 10
247.744
 20
66.7688
 30
0.0
 11
261.743
 21
66.7688
 31
0.0
  0
LINE
  8
0
 62
     0
 10
261.743
 20
66.7688
 30
0.0
 11
261.743
 21
67.7679
 31
0.0
  0
LINE
  8
0
 62
     0
 10
261.743
 20
67.7679
 30
0.0
 11
262.544
 21
67.7679
 31
0.0
  0
LINE
  8
0
 62
     0
 10
262.544
 20
67.7679
 30
0.0
 11
262.544
 21
70.8685
 31
0.0
  0
LINE
  8
0
 62
     0
 10
262.544
 20
70.8685
 30
0.0
 11
261.743
 21
70.8685
 31
0.0
  0
LINE
  8
0
 62
     0
 10
261.743
 20
70.8685
 30
0.0
 11
261.743
 21
76.6685
 31
0.0
  0
LINE
  8
0
 62
     0
 10
261.743
 20
76.6685
 30
0.0
 11
262.544
 21
76.6685
 31
0.0
  0
LINE
  8
0
 62
     0
 10
262.544
 20
76.6685
 30
0.0
 11
262.544
 21
79.7676
 31
0.0
  0
LINE
  8
0
 62
     0
 10
262.544
 20
79.7676
 30
0.0
 11
261.743
 21
79.7676
 31
0.0
  0
LINE
  8
0
 62
     0
 10
261.743
 20
79.7676
 30
0.0
 11
261.743
 21
80.7681
 31
0.0
  0
LINE
  8
0
 62
     0
 10
261.743
 20
80.7681
 30
0.0
 11
247.744
 21
80.7681
 31
0.0
  0
LINE
  8
0
 62
     0
 10
271.556
 20
80.7681
 30
0.0
 11
271.556
 21
79.7676
 31
0.0
  0
LINE
  8
0
 62
     0
 10
271.556
 20
79.7676
 30
0.0
 11
270.756
 21
79.7676
 31
0.0
  0
LINE
  8
0
 62
     0
 10
270.756
 20
79.7676
 30
0.0
 11
270.756
 21
76.6685
 31
0.0
  0
LINE
  8
0
 62
     0
 10
270.756
 20
76.6685
 30
0.0
 11
271.556
 21
76.6685
 31
0.0
  0
LINE
  8
0
 62
     0
 10
271.556
 20
76.6685
 30
0.0
 11
271.556
 21
70.8685
 31
0.0
  0
LINE
  8
0
 62
     0
 10
271.556
 20
70.8685
 30
0.0
 11
270.756
 21
70.8685
 31
0.0
  0
LINE
  8
0
 62
     0
 10
270.756
 20
70.8685
 30
0.0
 11
270.756
 21
67.7679
 31
0.0
  0
LINE
  8
0
 62
     0
 10
270.756
 20
67.7679
 30
0.0
 11
271.556
 21
67.7679
 31
0.0
  0
LINE
  8
0
 62
     0
 10
271.556
 20
67.7679
 30
0.0
 11
271.556
 21
66.7688
 31
0.0
  0
LINE
  8
0
 62
     0
 10
271.556
 20
66.7688
 30
0.0
 11
285.556
 21
66.7688
 31
0.0
  0
LINE
  8
0
 62
     0
 10
285.556
 20
66.7688
 30
0.0
 11
285.556
 21
67.7679
 31
0.0
  0
LINE
  8
0
 62
     0
 10
285.556
 20
67.7679
 30
0.0
 11
286.356
 21
67.7679
 31
0.0
  0
LINE
  8
0
 62
     0
 10
286.356
 20
67.7679
 30
0.0
 11
286.356
 21
70.8685
 31
0.0
  0
LINE
  8
0
 62
     0
 10
286.356
 20
70.8685
 30
0.0
 11
285.556
 21
70.8685
 31
0.0
  0
LINE
  8
0
 62
     0
 10
285.556
 20
70.8685
 30
0.0
 11
285.556
 21
76.6685
 31
0.0
  0
LINE
  8
0
 62
     0
 10
285.556
 20
76.6685
 30
0.0
 11
286.356
 21
76.6685
 31
0.0
  0
LINE
  8
0
 62
     0
 10
286.356
 20
76.6685
 30
0.0
 11
286.356
 21
79.7676
 31
0.0
  0
LINE
  8
0
 62
     0
 10
286.356
 20
79.7676
 30
0.0
 11
285.556
 21
79.7676
 31
0.0
  0
LINE
  8
0
 62
     0
 10
285.556
 20
79.7676
 30
0.0
 11
285.556
 21
80.7681
 31
0.0
  0
LINE
  8
0
 62
     0
 10
285.556
 20
80.7681
 30
0.0
 11
271.556
 21
80.7681
 31
0.0
  0
LINE
  8
0
 62
     0
 10
295.369
 20
80.7681
 30
0.0
 11
295.369
 21
79.7676
 31
0.0
  0
LINE
  8
0
 62
     0
 10
295.369
 20
79.7676
 30
0.0
 11
294.568
 21
79.7676
 31
0.0
  0
LINE
  8
0
 62
     0
 10
294.568
 20
79.7676
 30
0.0
 11
294.568
 21
76.6685
 31
0.0
  0
LINE
  8
0
 62
     0
 10
294.568
 20
76.6685
 30
0.0
 11
295.369
 21
76.6685
 31
0.0
  0
LINE
  8
0
 62
     0
 10
295.369
 20
76.6685
 30
0.0
 11
295.369
 21
70.8685
 31
0.0
  0
LINE
  8
0
 62
     0
 10
295.369
 20
70.8685
 30
0.0
 11
294.568
 21
70.8685
 31
0.0
  0
LINE
  8
0
 62
     0
 10
294.568
 20
70.8685
 30
0.0
 11
294.568
 21
67.7679
 31
0.0
  0
LINE
  8
0
 62
     0
 10
294.568
 20
67.7679
 30
0.0
 11
295.369
 21
67.7679
 31
0.0
  0
LINE
  8
0
 62
     0
 10
295.369
 20
67.7679
 30
0.0
 11
295.369
 21
66.7688
 31
0.0
  0
LINE
  8
0
 62
     0
 10
295.369
 20
66.7688
 30
0.0
 11
309.368
 21
66.7688
 31
0.0
  0
LINE
  8
0
 62
     0
 10
309.368
 20
66.7688
 30
0.0
 11
309.368
 21
67.7679
 31
0.0
  0
LINE
  8
0
 62
     0
 10
309.368
 20
67.7679
 30
0.0
 11
310.169
 21
67.7679
 31
0.0
  0
LINE
  8
0
 62
     0
 10
310.169
 20
67.7679
 30
0.0
 11
310.169
 21
70.8685
 31
0.0
  0
LINE
  8
0
 62
     0
 10
310.169
 20
70.8685
 30
0.0
 11
309.368
 21
70.8685
 31
0.0
  0
LINE
  8
0
 62
     0
 10
309.368
 20
70.8685
 30
0.0
 11
309.368
 21
76.6685
 31
0.0
  0
LINE
  8
0
 62
     0
 10
309.368
 20
76.6685
 30
0.0
 11
310.169
 21
76.6685
 31
0.0
  0
LINE
  8
0
 62
     0
 10
310.169
 20
76.6685
 30
0.0
 11
310.169
 21
79.7676
 31
0.0
  0
LINE
  8
0
 62
     0
 10
310.169
 20
79.7676
 30
0.0
 11
309.368
 21
79.7676
 31
0.0
  0
LINE
  8
0
 62
     0
 10
309.368
 20
79.7676
 30
0.0
 11
309.368
 21
80.7681
 31
0.0
  0
LINE
  8
0
 62
     0
 10
309.368
 20
80.7681
 30
0.0
 11
295.369
 21
80.7681
 31
0.0
  0
LINE
  8
0
 62
     0
 10
9.61732
 20
99.8195
 30
0.0
 11
9.61732
 21
98.8191
 31
0.0
  0
LINE
  8
0
 62
     0
 10
9.61732
 20
98.8191
 30
0.0
 11
8.81807
 21
98.8191
 31
0.0
  0
LINE
  8
0
 62
     0
 10
8.81807
 20
98.8191
 30
0.0
 11
8.81807
 21
95.7185
 31
0.0
  0
LINE
  8
0
 62
     0
 10
8.81807
 20
95.7185
 30
0.0
 11
9.61732
 21
95.7185
 31
0.0
  0
LINE
  8
0
 62
     0
 10
9.61732
 20
95.7185
 30
0.0
 11
9.61732
 21
89.9199
 31
0.0
  0
LINE
  8
0
 62
     0
 10
9.61732
 20
89.9199
 30
0.0
 11
8.81807
 21
89.9199
 31
0.0
  0
LINE
  8
0
 62
     0
 10
8.81807
 20
89.9199
 30
0.0
 11
8.81807
 21
86.8179
 31
0.0
  0
LINE
  8
0
 62
     0
 10
8.81807
 20
86.8179
 30
0.0
 11
9.61732
 21
86.8179
 31
0.0
  0
LINE
  8
0
 62
     0
 10
9.61732
 20
86.8179
 30
0.0
 11
9.61732
 21
85.8188
 31
0.0
  0
LINE
  8
0
 62
     0
 10
9.61732
 20
85.8188
 30
0.0
 11
23.6182
 21
85.8188
 31
0.0
  0
LINE
  8
0
 62
     0
 10
23.6182
 20
85.8188
 30
0.0
 11
23.6182
 21
86.8179
 31
0.0
  0
LINE
  8
0
 62
     0
 10
23.6182
 20
86.8179
 30
0.0
 11
24.4189
 21
86.8179
 31
0.0
  0
LINE
  8
0
 62
     0
 10
24.4189
 20
86.8179
 30
0.0
 11
24.4189
 21
89.9199
 31
0.0
  0
LINE
  8
0
 62
     0
 10
24.4189
 20
89.9199
 30
0.0
 11
23.6182
 21
89.9199
 31
0.0
  0
LINE
  8
0
 62
     0
 10
23.6182
 20
89.9199
 30
0.0
 11
23.6182
 21
95.7185
 31
0.0
  0
LINE
  8
0
 62
     0
 10
23.6182
 20
95.7185
 30
0.0
 11
24.4189
 21
95.7185
 31
0.0
  0
LINE
  8
0
 62
     0
 10
24.4189
 20
95.7185
 30
0.0
 11
24.4189
 21
98.8191
 31
0.0
  0
LINE
  8
0
 62
     0
 10
24.4189
 20
98.8191
 30
0.0
 11
23.6182
 21
98.8191
 31
0.0
  0
LINE
  8
0
 62
     0
 10
23.6182
 20
98.8191
 30
0.0
 11
23.6182
 21
99.8195
 31
0.0
  0
LINE
  8
0
 62
     0
 10
23.6182
 20
99.8195
 30
0.0
 11
9.61732
 21
99.8195
 31
0.0
  0
LINE
  8
0
 62
     0
 10
28.6687
 20
99.8195
 30
0.0
 11
28.6687
 21
98.8191
 31
0.0
  0
LINE
  8
0
 62
     0
 10
28.6687
 20
98.8191
 30
0.0
 11
27.8681
 21
98.8191
 31
0.0
  0
LINE
  8
0
 62
     0
 10
27.8681
 20
98.8191
 30
0.0
 11
27.8681
 21
95.7185
 31
0.0
  0
LINE
  8
0
 62
     0
 10
27.8681
 20
95.7185
 30
0.0
 11
28.6687
 21
95.7185
 31
0.0
  0
LINE
  8
0
 62
     0
 10
28.6687
 20
95.7185
 30
0.0
 11
28.6687
 21
89.9199
 31
0.0
  0
LINE
  8
0
 62
     0
 10
28.6687
 20
89.9199
 30
0.0
 11
27.8681
 21
89.9199
 31
0.0
  0
LINE
  8
0
 62
     0
 10
27.8681
 20
89.9199
 30
0.0
 11
27.8681
 21
86.8179
 31
0.0
  0
LINE
  8
0
 62
     0
 10
27.8681
 20
86.8179
 30
0.0
 11
28.6687
 21
86.8179
 31
0.0
  0
LINE
  8
0
 62
     0
 10
28.6687
 20
86.8179
 30
0.0
 11
28.6687
 21
85.8188
 31
0.0
  0
LINE
  8
0
 62
     0
 10
28.6687
 20
85.8188
 30
0.0
 11
42.6681
 21
85.8188
 31
0.0
  0
LINE
  8
0
 62
     0
 10
42.6681
 20
85.8188
 30
0.0
 11
42.6681
 21
86.8179
 31
0.0
  0
LINE
  8
0
 62
     0
 10
42.6681
 20
86.8179
 30
0.0
 11
43.4689
 21
86.8179
 31
0.0
  0
LINE
  8
0
 62
     0
 10
43.4689
 20
86.8179
 30
0.0
 11
43.4689
 21
89.9199
 31
0.0
  0
LINE
  8
0
 62
     0
 10
43.4689
 20
89.9199
 30
0.0
 11
42.6681
 21
89.9199
 31
0.0
  0
LINE
  8
0
 62
     0
 10
42.6681
 20
89.9199
 30
0.0
 11
42.6681
 21
95.7185
 31
0.0
  0
LINE
  8
0
 62
     0
 10
42.6681
 20
95.7185
 30
0.0
 11
43.4689
 21
95.7185
 31
0.0
  0
LINE
  8
0
 62
     0
 10
43.4689
 20
95.7185
 30
0.0
 11
43.4689
 21
98.8191
 31
0.0
  0
LINE
  8
0
 62
     0
 10
43.4689
 20
98.8191
 30
0.0
 11
42.6681
 21
98.8191
 31
0.0
  0
LINE
  8
0
 62
     0
 10
42.6681
 20
98.8191
 30
0.0
 11
42.6681
 21
99.8195
 31
0.0
  0
LINE
  8
0
 62
     0
 10
42.6681
 20
99.8195
 30
0.0
 11
28.6687
 21
99.8195
 31
0.0
  0
LINE
  8
0
 62
     0
 10
47.7188
 20
99.8195
 30
0.0
 11
47.7188
 21
98.8191
 31
0.0
  0
LINE
  8
0
 62
     0
 10
47.7188
 20
98.8191
 30
0.0
 11
46.918
 21
98.8191
 31
0.0
  0
LINE
  8
0
 62
     0
 10
46.918
 20
98.8191
 30
0.0
 11
46.918
 21
95.7185
 31
0.0
  0
LINE
  8
0
 62
     0
 10
46.918
 20
95.7185
 30
0.0
 11
47.7188
 21
95.7185
 31
0.0
  0
LINE
  8
0
 62
     0
 10
47.7188
 20
95.7185
 30
0.0
 11
47.7188
 21
89.9199
 31
0.0
  0
LINE
  8
0
 62
     0
 10
47.7188
 20
89.9199
 30
0.0
 11
46.918
 21
89.9199
 31
0.0
  0
LINE
  8
0
 62
     0
 10
46.918
 20
89.9199
 30
0.0
 11
46.918
 21
86.8179
 31
0.0
  0
LINE
  8
0
 62
     0
 10
46.918
 20
86.8179
 30
0.0
 11
47.7188
 21
86.8179
 31
0.0
  0
LINE
  8
0
 62
     0
 10
47.7188
 20
86.8179
 30
0.0
 11
47.7188
 21
85.8188
 31
0.0
  0
LINE
  8
0
 62
     0
 10
47.7188
 20
85.8188
 30
0.0
 11
61.7181
 21
85.8188
 31
0.0
  0
LINE
  8
0
 62
     0
 10
61.7181
 20
85.8188
 30
0.0
 11
61.7181
 21
86.8179
 31
0.0
  0
LINE
  8
0
 62
     0
 10
61.7181
 20
86.8179
 30
0.0
 11
62.5189
 21
86.8179
 31
0.0
  0
LINE
  8
0
 62
     0
 10
62.5189
 20
86.8179
 30
0.0
 11
62.5189
 21
89.9199
 31
0.0
  0
LINE
  8
0
 62
     0
 10
62.5189
 20
89.9199
 30
0.0
 11
61.7181
 21
89.9199
 31
0.0
  0
LINE
  8
0
 62
     0
 10
61.7181
 20
89.9199
 30
0.0
 11
61.7181
 21
95.7185
 31
0.0
  0
LINE
  8
0
 62
     0
 10
61.7181
 20
95.7185
 30
0.0
 11
62.5189
 21
95.7185
 31
0.0
  0
LINE
  8
0
 62
     0
 10
62.5189
 20
95.7185
 30
0.0
 11
62.5189
 21
98.8191
 31
0.0
  0
LINE
  8
0
 62
     0
 10
62.5189
 20
98.8191
 30
0.0
 11
61.7181
 21
98.8191
 31
0.0
  0
LINE
  8
0
 62
     0
 10
61.7181
 20
98.8191
 30
0.0
 11
61.7181
 21
99.8195
 31
0.0
  0
LINE
  8
0
 62
     0
 10
61.7181
 20
99.8195
 30
0.0
 11
47.7188
 21
99.8195
 31
0.0
  0
LINE
  8
0
 62
     0
 10
66.7688
 20
99.8195
 30
0.0
 11
66.7688
 21
98.8191
 31
0.0
  0
LINE
  8
0
 62
     0
 10
66.7688
 20
98.8191
 30
0.0
 11
65.968
 21
98.8191
 31
0.0
  0
LINE
  8
0
 62
     0
 10
65.968
 20
98.8191
 30
0.0
 11
65.968
 21
95.7185
 31
0.0
  0
LINE
  8
0
 62
     0
 10
65.968
 20
95.7185
 30
0.0
 11
66.7688
 21
95.7185
 31
0.0
  0
LINE
  8
0
 62
     0
 10
66.7688
 20
95.7185
 30
0.0
 11
66.7688
 21
89.9199
 31
0.0
  0
LINE
  8
0
 62
     0
 10
66.7688
 20
89.9199
 30
0.0
 11
65.968
 21
89.9199
 31
0.0
  0
LINE
  8
0
 62
     0
 10
65.968
 20
89.9199
 30
0.0
 11
65.968
 21
86.8179
 31
0.0
  0
LINE
  8
0
 62
     0
 10
65.968
 20
86.8179
 30
0.0
 11
66.7688
 21
86.8179
 31
0.0
  0
LINE
  8
0
 62
     0
 10
66.7688
 20
86.8179
 30
0.0
 11
66.7688
 21
85.8188
 31
0.0
  0
LINE
  8
0
 62
     0
 10
66.7688
 20
85.8188
 30
0.0
 11
80.7681
 21
85.8188
 31
0.0
  0
LINE
  8
0
 62
     0
 10
80.7681
 20
85.8188
 30
0.0
 11
80.7681
 21
86.8179
 31
0.0
  0
LINE
  8
0
 62
     0
 10
80.7681
 20
86.8179
 30
0.0
 11
81.5689
 21
86.8179
 31
0.0
  0
LINE
  8
0
 62
     0
 10
81.5689
 20
86.8179
 30
0.0
 11
81.5689
 21
89.9199
 31
0.0
  0
LINE
  8
0
 62
     0
 10
81.5689
 20
89.9199
 30
0.0
 11
80.7681
 21
89.9199
 31
0.0
  0
LINE
  8
0
 62
     0
 10
80.7681
 20
89.9199
 30
0.0
 11
80.7681
 21
95.7185
 31
0.0
  0
LINE
  8
0
 62
     0
 10
80.7681
 20
95.7185
 30
0.0
 11
81.5689
 21
95.7185
 31
0.0
  0
LINE
  8
0
 62
     0
 10
81.5689
 20
95.7185
 30
0.0
 11
81.5689
 21
98.8191
 31
0.0
  0
LINE
  8
0
 62
     0
 10
81.5689
 20
98.8191
 30
0.0
 11
80.7681
 21
98.8191
 31
0.0
  0
LINE
  8
0
 62
     0
 10
80.7681
 20
98.8191
 30
0.0
 11
80.7681
 21
99.8195
 31
0.0
  0
LINE
  8
0
 62
     0
 10
80.7681
 20
99.8195
 30
0.0
 11
66.7688
 21
99.8195
 31
0.0
  0
LINE
  8
0
 62
     0
 10
85.8188
 20
99.8195
 30
0.0
 11
85.8188
 21
98.8191
 31
0.0
  0
LINE
  8
0
 62
     0
 10
85.8188
 20
98.8191
 30
0.0
 11
85.018
 21
98.8191
 31
0.0
  0
LINE
  8
0
 62
     0
 10
85.018
 20
98.8191
 30
0.0
 11
85.018
 21
95.7185
 31
0.0
  0
LINE
  8
0
 62
     0
 10
85.018
 20
95.7185
 30
0.0
 11
85.8188
 21
95.7185
 31
0.0
  0
LINE
  8
0
 62
     0
 10
85.8188
 20
95.7185
 30
0.0
 11
85.8188
 21
89.9199
 31
0.0
  0
LINE
  8
0
 62
     0
 10
85.8188
 20
89.9199
 30
0.0
 11
85.018
 21
89.9199
 31
0.0
  0
LINE
  8
0
 62
     0
 10
85.018
 20
89.9199
 30
0.0
 11
85.018
 21
86.8179
 31
0.0
  0
LINE
  8
0
 62
     0
 10
85.018
 20
86.8179
 30
0.0
 11
85.8188
 21
86.8179
 31
0.0
  0
LINE
  8
0
 62
     0
 10
85.8188
 20
86.8179
 30
0.0
 11
85.8188
 21
85.8188
 31
0.0
  0
LINE
  8
0
 62
     0
 10
85.8188
 20
85.8188
 30
0.0
 11
99.8181
 21
85.8188
 31
0.0
  0
LINE
  8
0
 62
     0
 10
99.8181
 20
85.8188
 30
0.0
 11
99.8181
 21
86.8179
 31
0.0
  0
LINE
  8
0
 62
     0
 10
99.8181
 20
86.8179
 30
0.0
 11
100.618
 21
86.8179
 31
0.0
  0
LINE
  8
0
 62
     0
 10
100.618
 20
86.8179
 30
0.0
 11
100.618
 21
89.9199
 31
0.0
  0
LINE
  8
0
 62
     0
 10
100.618
 20
89.9199
 30
0.0
 11
99.8181
 21
89.9199
 31
0.0
  0
LINE
  8
0
 62
     0
 10
99.8181
 20
89.9199
 30
0.0
 11
99.8181
 21
95.7185
 31
0.0
  0
LINE
  8
0
 62
     0
 10
99.8181
 20
95.7185
 30
0.0
 11
100.618
 21
95.7185
 31
0.0
  0
LINE
  8
0
 62
     0
 10
100.618
 20
95.7185
 30
0.0
 11
100.618
 21
98.8191
 31
0.0
  0
LINE
  8
0
 62
     0
 10
100.618
 20
98.8191
 30
0.0
 11
99.8181
 21
98.8191
 31
0.0
  0
LINE
  8
0
 62
     0
 10
99.8181
 20
98.8191
 30
0.0
 11
99.8181
 21
99.8195
 31
0.0
  0
LINE
  8
0
 62
     0
 10
99.8181
 20
99.8195
 30
0.0
 11
85.8188
 21
99.8195
 31
0.0
  0
LINE
  8
0
 62
     0
 10
104.867
 20
99.8195
 30
0.0
 11
104.867
 21
98.8191
 31
0.0
  0
LINE
  8
0
 62
     0
 10
104.867
 20
98.8191
 30
0.0
 11
104.068
 21
98.8191
 31
0.0
  0
LINE
  8
0
 62
     0
 10
104.068
 20
98.8191
 30
0.0
 11
104.068
 21
95.7185
 31
0.0
  0
LINE
  8
0
 62
     0
 10
104.068
 20
95.7185
 30
0.0
 11
104.867
 21
95.7185
 31
0.0
  0
LINE
  8
0
 62
     0
 10
104.867
 20
95.7185
 30
0.0
 11
104.867
 21
89.9199
 31
0.0
  0
LINE
  8
0
 62
     0
 10
104.867
 20
89.9199
 30
0.0
 11
104.068
 21
89.9199
 31
0.0
  0
LINE
  8
0
 62
     0
 10
104.068
 20
89.9199
 30
0.0
 11
104.068
 21
86.8179
 31
0.0
  0
LINE
  8
0
 62
     0
 10
104.068
 20
86.8179
 30
0.0
 11
104.867
 21
86.8179
 31
0.0
  0
LINE
  8
0
 62
     0
 10
104.867
 20
86.8179
 30
0.0
 11
104.867
 21
85.8188
 31
0.0
  0
LINE
  8
0
 62
     0
 10
104.867
 20
85.8188
 30
0.0
 11
118.868
 21
85.8188
 31
0.0
  0
LINE
  8
0
 62
     0
 10
118.868
 20
85.8188
 30
0.0
 11
118.868
 21
86.8179
 31
0.0
  0
LINE
  8
0
 62
     0
 10
118.868
 20
86.8179
 30
0.0
 11
119.668
 21
86.8179
 31
0.0
  0
LINE
  8
0
 62
     0
 10
119.668
 20
86.8179
 30
0.0
 11
119.668
 21
89.9199
 31
0.0
  0
LINE
  8
0
 62
     0
 10
119.668
 20
89.9199
 30
0.0
 11
118.868
 21
89.9199
 31
0.0
  0
LINE
  8
0
 62
     0
 10
118.868
 20
89.9199
 30
0.0
 11
118.868
 21
95.7185
 31
0.0
  0
LINE
  8
0
 62
     0
 10
118.868
 20
95.7185
 30
0.0
 11
119.668
 21
95.7185
 31
0.0
  0
LINE
  8
0
 62
     0
 10
119.668
 20
95.7185
 30
0.0
 11
119.668
 21
98.8191
 31
0.0
  0
LINE
  8
0
 62
     0
 10
119.668
 20
98.8191
 30
0.0
 11
118.868
 21
98.8191
 31
0.0
  0
LINE
  8
0
 62
     0
 10
118.868
 20
98.8191
 30
0.0
 11
118.868
 21
99.8195
 31
0.0
  0
LINE
  8
0
 62
     0
 10
118.868
 20
99.8195
 30
0.0
 11
104.867
 21
99.8195
 31
0.0
  0
LINE
  8
0
 62
     0
 10
123.917
 20
99.8195
 30
0.0
 11
123.917
 21
98.8191
 31
0.0
  0
LINE
  8
0
 62
     0
 10
123.917
 20
98.8191
 30
0.0
 11
123.118
 21
98.8191
 31
0.0
  0
LINE
  8
0
 62
     0
 10
123.118
 20
98.8191
 30
0.0
 11
123.118
 21
95.7185
 31
0.0
  0
LINE
  8
0
 62
     0
 10
123.118
 20
95.7185
 30
0.0
 11
123.917
 21
95.7185
 31
0.0
  0
LINE
  8
0
 62
     0
 10
123.917
 20
95.7185
 30
0.0
 11
123.917
 21
89.9199
 31
0.0
  0
LINE
  8
0
 62
     0
 10
123.917
 20
89.9199
 30
0.0
 11
123.118
 21
89.9199
 31
0.0
  0
LINE
  8
0
 62
     0
 10
123.118
 20
89.9199
 30
0.0
 11
123.118
 21
86.8179
 31
0.0
  0
LINE
  8
0
 62
     0
 10
123.118
 20
86.8179
 30
0.0
 11
123.917
 21
86.8179
 31
0.0
  0
LINE
  8
0
 62
     0
 10
123.917
 20
86.8179
 30
0.0
 11
123.917
 21
85.8188
 31
0.0
  0
LINE
  8
0
 62
     0
 10
123.917
 20
85.8188
 30
0.0
 11
137.918
 21
85.8188
 31
0.0
  0
LINE
  8
0
 62
     0
 10
137.918
 20
85.8188
 30
0.0
 11
137.918
 21
86.8179
 31
0.0
  0
LINE
  8
0
 62
     0
 10
137.918
 20
86.8179
 30
0.0
 11
138.719
 21
86.8179
 31
0.0
  0
LINE
  8
0
 62
     0
 10
138.719
 20
86.8179
 30
0.0
 11
138.719
 21
89.9199
 31
0.0
  0
LINE
  8
0
 62
     0
 10
138.719
 20
89.9199
 30
0.0
 11
137.918
 21
89.9199
 31
0.0
  0
LINE
  8
0
 62
     0
 10
137.918
 20
89.9199
 30
0.0
 11
137.918
 21
95.7185
 31
0.0
  0
LINE
  8
0
 62
     0
 10
137.918
 20
95.7185
 30
0.0
 11
138.719
 21
95.7185
 31
0.0
  0
LINE
  8
0
 62
     0
 10
138.719
 20
95.7185
 30
0.0
 11
138.719
 21
98.8191
 31
0.0
  0
LINE
  8
0
 62
     0
 10
138.719
 20
98.8191
 30
0.0
 11
137.918
 21
98.8191
 31
0.0
  0
LINE
  8
0
 62
     0
 10
137.918
 20
98.8191
 30
0.0
 11
137.918
 21
99.8195
 31
0.0
  0
LINE
  8
0
 62
     0
 10
137.918
 20
99.8195
 30
0.0
 11
123.917
 21
99.8195
 31
0.0
  0
LINE
  8
0
 62
     0
 10
142.969
 20
99.8195
 30
0.0
 11
142.969
 21
98.8191
 31
0.0
  0
LINE
  8
0
 62
     0
 10
142.969
 20
98.8191
 30
0.0
 11
142.168
 21
98.8191
 31
0.0
  0
LINE
  8
0
 62
     0
 10
142.168
 20
98.8191
 30
0.0
 11
142.168
 21
95.7185
 31
0.0
  0
LINE
  8
0
 62
     0
 10
142.168
 20
95.7185
 30
0.0
 11
142.969
 21
95.7185
 31
0.0
  0
LINE
  8
0
 62
     0
 10
142.969
 20
95.7185
 30
0.0
 11
142.969
 21
89.9199
 31
0.0
  0
LINE
  8
0
 62
     0
 10
142.969
 20
89.9199
 30
0.0
 11
142.168
 21
89.9199
 31
0.0
  0
LINE
  8
0
 62
     0
 10
142.168
 20
89.9199
 30
0.0
 11
142.168
 21
86.8179
 31
0.0
  0
LINE
  8
0
 62
     0
 10
142.168
 20
86.8179
 30
0.0
 11
142.969
 21
86.8179
 31
0.0
  0
LINE
  8
0
 62
     0
 10
142.969
 20
86.8179
 30
0.0
 11
142.969
 21
85.8188
 31
0.0
  0
LINE
  8
0
 62
     0
 10
142.969
 20
85.8188
 30
0.0
 11
156.968
 21
85.8188
 31
0.0
  0
LINE
  8
0
 62
     0
 10
156.968
 20
85.8188
 30
0.0
 11
156.968
 21
86.8179
 31
0.0
  0
LINE
  8
0
 62
     0
 10
156.968
 20
86.8179
 30
0.0
 11
157.769
 21
86.8179
 31
0.0
  0
LINE
  8
0
 62
     0
 10
157.769
 20
86.8179
 30
0.0
 11
157.769
 21
89.9199
 31
0.0
  0
LINE
  8
0
 62
     0
 10
157.769
 20
89.9199
 30
0.0
 11
156.968
 21
89.9199
 31
0.0
  0
LINE
  8
0
 62
     0
 10
156.968
 20
89.9199
 30
0.0
 11
156.968
 21
95.7185
 31
0.0
  0
LINE
  8
0
 62
     0
 10
156.968
 20
95.7185
 30
0.0
 11
157.769
 21
95.7185
 31
0.0
  0
LINE
  8
0
 62
     0
 10
157.769
 20
95.7185
 30
0.0
 11
157.769
 21
98.8191
 31
0.0
  0
LINE
  8
0
 62
     0
 10
157.769
 20
98.8191
 30
0.0
 11
156.968
 21
98.8191
 31
0.0
  0
LINE
  8
0
 62
     0
 10
156.968
 20
98.8191
 30
0.0
 11
156.968
 21
99.8195
 31
0.0
  0
LINE
  8
0
 62
     0
 10
156.968
 20
99.8195
 30
0.0
 11
142.969
 21
99.8195
 31
0.0
  0
LINE
  8
0
 62
     0
 10
162.019
 20
99.8195
 30
0.0
 11
162.019
 21
98.8191
 31
0.0
  0
LINE
  8
0
 62
     0
 10
162.019
 20
98.8191
 30
0.0
 11
161.218
 21
98.8191
 31
0.0
  0
LINE
  8
0
 62
     0
 10
161.218
 20
98.8191
 30
0.0
 11
161.218
 21
95.7185
 31
0.0
  0
LINE
  8
0
 62
     0
 10
161.218
 20
95.7185
 30
0.0
 11
162.019
 21
95.7185
 31
0.0
  0
LINE
  8
0
 62
     0
 10
162.019
 20
95.7185
 30
0.0
 11
162.019
 21
89.9199
 31
0.0
  0
LINE
  8
0
 62
     0
 10
162.019
 20
89.9199
 30
0.0
 11
161.218
 21
89.9199
 31
0.0
  0
LINE
  8
0
 62
     0
 10
161.218
 20
89.9199
 30
0.0
 11
161.218
 21
86.8179
 31
0.0
  0
LINE
  8
0
 62
     0
 10
161.218
 20
86.8179
 30
0.0
 11
162.019
 21
86.8179
 31
0.0
  0
LINE
  8
0
 62
     0
 10
162.019
 20
86.8179
 30
0.0
 11
162.019
 21
85.8188
 31
0.0
  0
LINE
  8
0
 62
     0
 10
162.019
 20
85.8188
 30
0.0
 11
176.018
 21
85.8188
 31
0.0
  0
LINE
  8
0
 62
     0
 10
176.018
 20
85.8188
 30
0.0
 11
176.018
 21
86.8179
 31
0.0
  0
LINE
  8
0
 62
     0
 10
176.018
 20
86.8179
 30
0.0
 11
176.819
 21
86.8179
 31
0.0
  0
LINE
  8
0
 62
     0
 10
176.819
 20
86.8179
 30
0.0
 11
176.819
 21
89.9199
 31
0.0
  0
LINE
  8
0
 62
     0
 10
176.819
 20
89.9199
 30
0.0
 11
176.018
 21
89.9199
 31
0.0
  0
LINE
  8
0
 62
     0
 10
176.018
 20
89.9199
 30
0.0
 11
176.018
 21
95.7185
 31
0.0
  0
LINE
  8
0
 62
     0
 10
176.018
 20
95.7185
 30
0.0
 11
176.819
 21
95.7185
 31
0.0
  0
LINE
  8
0
 62
     0
 10
176.819
 20
95.7185
 30
0.0
 11
176.819
 21
98.8191
 31
0.0
  0
LINE
  8
0
 62
     0
 10
176.819
 20
98.8191
 30
0.0
 11
176.018
 21
98.8191
 31
0.0
  0
LINE
  8
0
 62
     0
 10
176.018
 20
98.8191
 30
0.0
 11
176.018
 21
99.8195
 31
0.0
  0
LINE
  8
0
 62
     0
 10
176.018
 20
99.8195
 30
0.0
 11
162.019
 21
99.8195
 31
0.0
  0
LINE
  8
0
 62
     0
 10
181.069
 20
99.8195
 30
0.0
 11
181.069
 21
98.8191
 31
0.0
  0
LINE
  8
0
 62
     0
 10
181.069
 20
98.8191
 30
0.0
 11
180.268
 21
98.8191
 31
0.0
  0
LINE
  8
0
 62
     0
 10
180.268
 20
98.8191
 30
0.0
 11
180.268
 21
95.7185
 31
0.0
  0
LINE
  8
0
 62
     0
 10
180.268
 20
95.7185
 30
0.0
 11
181.069
 21
95.7185
 31
0.0
  0
LINE
  8
0
 62
     0
 10
181.069
 20
95.7185
 30
0.0
 11
181.069
 21
89.9199
 31
0.0
  0
LINE
  8
0
 62
     0
 10
181.069
 20
89.9199
 30
0.0
 11
180.268
 21
89.9199
 31
0.0
  0
LINE
  8
0
 62
     0
 10
180.268
 20
89.9199
 30
0.0
 11
180.268
 21
86.8179
 31
0.0
  0
LINE
  8
0
 62
     0
 10
180.268
 20
86.8179
 30
0.0
 11
181.069
 21
86.8179
 31
0.0
  0
LINE
  8
0
 62
     0
 10
181.069
 20
86.8179
 30
0.0
 11
181.069
 21
85.8188
 31
0.0
  0
LINE
  8
0
 62
     0
 10
181.069
 20
85.8188
 30
0.0
 11
195.068
 21
85.8188
 31
0.0
  0
LINE
  8
0
 62
     0
 10
195.068
 20
85.8188
 30
0.0
 11
195.068
 21
86.8179
 31
0.0
  0
LINE
  8
0
 62
     0
 10
195.068
 20
86.8179
 30
0.0
 11
195.869
 21
86.8179
 31
0.0
  0
LINE
  8
0
 62
     0
 10
195.869
 20
86.8179
 30
0.0
 11
195.869
 21
89.9199
 31
0.0
  0
LINE
  8
0
 62
     0
 10
195.869
 20
89.9199
 30
0.0
 11
195.068
 21
89.9199
 31
0.0
  0
LINE
  8
0
 62
     0
 10
195.068
 20
89.9199
 30
0.0
 11
195.068
 21
95.7185
 31
0.0
  0
LINE
  8
0
 62
     0
 10
195.068
 20
95.7185
 30
0.0
 11
195.869
 21
95.7185
 31
0.0
  0
LINE
  8
0
 62
     0
 10
195.869
 20
95.7185
 30
0.0
 11
195.869
 21
98.8191
 31
0.0
  0
LINE
  8
0
 62
     0
 10
195.869
 20
98.8191
 30
0.0
 11
195.068
 21
98.8191
 31
0.0
  0
LINE
  8
0
 62
     0
 10
195.068
 20
98.8191
 30
0.0
 11
195.068
 21
99.8195
 31
0.0
  0
LINE
  8
0
 62
     0
 10
195.068
 20
99.8195
 30
0.0
 11
181.069
 21
99.8195
 31
0.0
  0
LINE
  8
0
 62
     0
 10
200.119
 20
99.8195
 30
0.0
 11
200.119
 21
98.8191
 31
0.0
  0
LINE
  8
0
 62
     0
 10
200.119
 20
98.8191
 30
0.0
 11
199.318
 21
98.8191
 31
0.0
  0
LINE
  8
0
 62
     0
 10
199.318
 20
98.8191
 30
0.0
 11
199.318
 21
95.7185
 31
0.0
  0
LINE
  8
0
 62
     0
 10
199.318
 20
95.7185
 30
0.0
 11
200.119
 21
95.7185
 31
0.0
  0
LINE
  8
0
 62
     0
 10
200.119
 20
95.7185
 30
0.0
 11
200.119
 21
89.9199
 31
0.0
  0
LINE
  8
0
 62
     0
 10
200.119
 20
89.9199
 30
0.0
 11
199.318
 21
89.9199
 31
0.0
  0
LINE
  8
0
 62
     0
 10
199.318
 20
89.9199
 30
0.0
 11
199.318
 21
86.8179
 31
0.0
  0
LINE
  8
0
 62
     0
 10
199.318
 20
86.8179
 30
0.0
 11
200.119
 21
86.8179
 31
0.0
  0
LINE
  8
0
 62
     0
 10
200.119
 20
86.8179
 30
0.0
 11
200.119
 21
85.8188
 31
0.0
  0
LINE
  8
0
 62
     0
 10
200.119
 20
85.8188
 30
0.0
 11
214.118
 21
85.8188
 31
0.0
  0
LINE
  8
0
 62
     0
 10
214.118
 20
85.8188
 30
0.0
 11
214.118
 21
86.8179
 31
0.0
  0
LINE
  8
0
 62
     0
 10
214.118
 20
86.8179
 30
0.0
 11
214.919
 21
86.8179
 31
0.0
  0
LINE
  8
0
 62
     0
 10
214.919
 20
86.8179
 30
0.0
 11
214.919
 21
89.9199
 31
0.0
  0
LINE
  8
0
 62
     0
 10
214.919
 20
89.9199
 30
0.0
 11
214.118
 21
89.9199
 31
0.0
  0
LINE
  8
0
 62
     0
 10
214.118
 20
89.9199
 30
0.0
 11
214.118
 21
95.7185
 31
0.0
  0
LINE
  8
0
 62
     0
 10
214.118
 20
95.7185
 30
0.0
 11
214.919
 21
95.7185
 31
0.0
  0
LINE
  8
0
 62
     0
 10
214.919
 20
95.7185
 30
0.0
 11
214.919
 21
98.8191
 31
0.0
  0
LINE
  8
0
 62
     0
 10
214.919
 20
98.8191
 30
0.0
 11
214.118
 21
98.8191
 31
0.0
  0
LINE
  8
0
 62
     0
 10
214.118
 20
98.8191
 30
0.0
 11
214.118
 21
99.8195
 31
0.0
  0
LINE
  8
0
 62
     0
 10
214.118
 20
99.8195
 30
0.0
 11
200.119
 21
99.8195
 31
0.0
  0
LINE
  8
0
 62
     0
 10
219.169
 20
99.8195
 30
0.0
 11
219.169
 21
98.8191
 31
0.0
  0
LINE
  8
0
 62
     0
 10
219.169
 20
98.8191
 30
0.0
 11
218.368
 21
98.8191
 31
0.0
  0
LINE
  8
0
 62
     0
 10
218.368
 20
98.8191
 30
0.0
 11
218.368
 21
95.7185
 31
0.0
  0
LINE
  8
0
 62
     0
 10
218.368
 20
95.7185
 30
0.0
 11
219.169
 21
95.7185
 31
0.0
  0
LINE
  8
0
 62
     0
 10
219.169
 20
95.7185
 30
0.0
 11
219.169
 21
89.9199
 31
0.0
  0
LINE
  8
0
 62
     0
 10
219.169
 20
89.9199
 30
0.0
 11
218.368
 21
89.9199
 31
0.0
  0
LINE
  8
0
 62
     0
 10
218.368
 20
89.9199
 30
0.0
 11
218.368
 21
86.8179
 31
0.0
  0
LINE
  8
0
 62
     0
 10
218.368
 20
86.8179
 30
0.0
 11
219.169
 21
86.8179
 31
0.0
  0
LINE
  8
0
 62
     0
 10
219.169
 20
86.8179
 30
0.0
 11
219.169
 21
85.8188
 31
0.0
  0
LINE
  8
0
 62
     0
 10
219.169
 20
85.8188
 30
0.0
 11
233.168
 21
85.8188
 31
0.0
  0
LINE
  8
0
 62
     0
 10
233.168
 20
85.8188
 30
0.0
 11
233.168
 21
86.8179
 31
0.0
  0
LINE
  8
0
 62
     0
 10
233.168
 20
86.8179
 30
0.0
 11
233.969
 21
86.8179
 31
0.0
  0
LINE
  8
0
 62
     0
 10
233.969
 20
86.8179
 30
0.0
 11
233.969
 21
89.9199
 31
0.0
  0
LINE
  8
0
 62
     0
 10
233.969
 20
89.9199
 30
0.0
 11
233.168
 21
89.9199
 31
0.0
  0
LINE
  8
0
 62
     0
 10
233.168
 20
89.9199
 30
0.0
 11
233.168
 21
95.7185
 31
0.0
  0
LINE
  8
0
 62
     0
 10
233.168
 20
95.7185
 30
0.0
 11
233.969
 21
95.7185
 31
0.0
  0
LINE
  8
0
 62
     0
 10
233.969
 20
95.7185
 30
0.0
 11
233.969
 21
98.8191
 31
0.0
  0
LINE
  8
0
 62
     0
 10
233.969
 20
98.8191
 30
0.0
 11
233.168
 21
98.8191
 31
0.0
  0
LINE
  8
0
 62
     0
 10
233.168
 20
98.8191
 30
0.0
 11
233.168
 21
99.8195
 31
0.0
  0
LINE
  8
0
 62
     0
 10
233.168
 20
99.8195
 30
0.0
 11
219.169
 21
99.8195
 31
0.0
  0
LINE
  8
0
 62
     0
 10
238.219
 20
99.8195
 30
0.0
 11
238.219
 21
98.8191
 31
0.0
  0
LINE
  8
0
 62
     0
 10
238.219
 20
98.8191
 30
0.0
 11
237.418
 21
98.8191
 31
0.0
  0
LINE
  8
0
 62
     0
 10
237.418
 20
98.8191
 30
0.0
 11
237.418
 21
95.7185
 31
0.0
  0
LINE
  8
0
 62
     0
 10
237.418
 20
95.7185
 30
0.0
 11
238.219
 21
95.7185
 31
0.0
  0
LINE
  8
0
 62
     0
 10
238.219
 20
95.7185
 30
0.0
 11
238.219
 21
89.9199
 31
0.0
  0
LINE
  8
0
 62
     0
 10
238.219
 20
89.9199
 30
0.0
 11
237.418
 21
89.9199
 31
0.0
  0
LINE
  8
0
 62
     0
 10
237.418
 20
89.9199
 30
0.0
 11
237.418
 21
86.8179
 31
0.0
  0
LINE
  8
0
 62
     0
 10
237.418
 20
86.8179
 30
0.0
 11
238.219
 21
86.8179
 31
0.0
  0
LINE
  8
0
 62
     0
 10
238.219
 20
86.8179
 30
0.0
 11
238.219
 21
85.8188
 31
0.0
  0
LINE
  8
0
 62
     0
 10
238.219
 20
85.8188
 30
0.0
 11
252.218
 21
85.8188
 31
0.0
  0
LINE
  8
0
 62
     0
 10
252.218
 20
85.8188
 30
0.0
 11
252.218
 21
86.8179
 31
0.0
  0
LINE
  8
0
 62
     0
 10
252.218
 20
86.8179
 30
0.0
 11
253.019
 21
86.8179
 31
0.0
  0
LINE
  8
0
 62
     0
 10
253.019
 20
86.8179
 30
0.0
 11
253.019
 21
89.9199
 31
0.0
  0
LINE
  8
0
 62
     0
 10
253.019
 20
89.9199
 30
0.0
 11
252.218
 21
89.9199
 31
0.0
  0
LINE
  8
0
 62
     0
 10
252.218
 20
89.9199
 30
0.0
 11
252.218
 21
95.7185
 31
0.0
  0
LINE
  8
0
 62
     0
 10
252.218
 20
95.7185
 30
0.0
 11
253.019
 21
95.7185
 31
0.0
  0
LINE
  8
0
 62
     0
 10
253.019
 20
95.7185
 30
0.0
 11
253.019
 21
98.8191
 31
0.0
  0
LINE
  8
0
 62
     0
 10
253.019
 20
98.8191
 30
0.0
 11
252.218
 21
98.8191
 31
0.0
  0
LINE
  8
0
 62
     0
 10
252.218
 20
98.8191
 30
0.0
 11
252.218
 21
99.8195
 31
0.0
  0
LINE
  8
0
 62
     0
 10
252.218
 20
99.8195
 30
0.0
 11
238.219
 21
99.8195
 31
0.0
  0
LINE
  8
0
 62
     0
 10
257.269
 20
99.8195
 30
0.0
 11
257.269
 21
98.8191
 31
0.0
  0
LINE
  8
0
 62
     0
 10
257.269
 20
98.8191
 30
0.0
 11
256.468
 21
98.8191
 31
0.0
  0
LINE
  8
0
 62
     0
 10
256.468
 20
98.8191
 30
0.0
 11
256.468
 21
95.7185
 31
0.0
  0
LINE
  8
0
 62
     0
 10
256.468
 20
95.7185
 30
0.0
 11
257.269
 21
95.7185
 31
0.0
  0
LINE
  8
0
 62
     0
 10
257.269
 20
95.7185
 30
0.0
 11
257.269
 21
89.9199
 31
0.0
  0
LINE
  8
0
 62
     0
 10
257.269
 20
89.9199
 30
0.0
 11
256.468
 21
89.9199
 31
0.0
  0
LINE
  8
0
 62
     0
 10
256.468
 20
89.9199
 30
0.0
 11
256.468
 21
86.8179
 31
0.0
  0
LINE
  8
0
 62
     0
 10
256.468
 20
86.8179
 30
0.0
 11
257.269
 21
86.8179
 31
0.0
  0
LINE
  8
0
 62
     0
 10
257.269
 20
86.8179
 30
0.0
 11
257.269
 21
85.8188
 31
0.0
  0
LINE
  8
0
 62
     0
 10
257.269
 20
85.8188
 30
0.0
 11
271.268
 21
85.8188
 31
0.0
  0
LINE
  8
0
 62
     0
 10
271.268
 20
85.8188
 30
0.0
 11
271.268
 21
86.8179
 31
0.0
  0
LINE
  8
0
 62
     0
 10
271.268
 20
86.8179
 30
0.0
 11
272.069
 21
86.8179
 31
0.0
  0
LINE
  8
0
 62
     0
 10
272.069
 20
86.8179
 30
0.0
 11
272.069
 21
89.9199
 31
0.0
  0
LINE
  8
0
 62
     0
 10
272.069
 20
89.9199
 30
0.0
 11
271.268
 21
89.9199
 31
0.0
  0
LINE
  8
0
 62
     0
 10
271.268
 20
89.9199
 30
0.0
 11
271.268
 21
95.7185
 31
0.0
  0
LINE
  8
0
 62
     0
 10
271.268
 20
95.7185
 30
0.0
 11
272.069
 21
95.7185
 31
0.0
  0
LINE
  8
0
 62
     0
 10
272.069
 20
95.7185
 30
0.0
 11
272.069
 21
98.8191
 31
0.0
  0
LINE
  8
0
 62
     0
 10
272.069
 20
98.8191
 30
0.0
 11
271.268
 21
98.8191
 31
0.0
  0
LINE
  8
0
 62
     0
 10
271.268
 20
98.8191
 30
0.0
 11
271.268
 21
99.8195
 31
0.0
  0
LINE
  8
0
 62
     0
 10
271.268
 20
99.8195
 30
0.0
 11
257.269
 21
99.8195
 31
0.0
  0
LINE
  8
0
 62
     0
 10
276.319
 20
99.8195
 30
0.0
 11
276.319
 21
98.8191
 31
0.0
  0
LINE
  8
0
 62
     0
 10
276.319
 20
98.8191
 30
0.0
 11
275.518
 21
98.8191
 31
0.0
  0
LINE
  8
0
 62
     0
 10
275.518
 20
98.8191
 30
0.0
 11
275.518
 21
95.7185
 31
0.0
  0
LINE
  8
0
 62
     0
 10
275.518
 20
95.7185
 30
0.0
 11
276.319
 21
95.7185
 31
0.0
  0
LINE
  8
0
 62
     0
 10
276.319
 20
95.7185
 30
0.0
 11
276.319
 21
89.9199
 31
0.0
  0
LINE
  8
0
 62
     0
 10
276.319
 20
89.9199
 30
0.0
 11
275.518
 21
89.9199
 31
0.0
  0
LINE
  8
0
 62
     0
 10
275.518
 20
89.9199
 30
0.0
 11
275.518
 21
86.8179
 31
0.0
  0
LINE
  8
0
 62
     0
 10
275.518
 20
86.8179
 30
0.0
 11
276.319
 21
86.8179
 31
0.0
  0
LINE
  8
0
 62
     0
 10
276.319
 20
86.8179
 30
0.0
 11
276.319
 21
85.8188
 31
0.0
  0
LINE
  8
0
 62
     0
 10
276.319
 20
85.8188
 30
0.0
 11
290.318
 21
85.8188
 31
0.0
  0
LINE
  8
0
 62
     0
 10
290.318
 20
85.8188
 30
0.0
 11
290.318
 21
86.8179
 31
0.0
  0
LINE
  8
0
 62
     0
 10
290.318
 20
86.8179
 30
0.0
 11
291.119
 21
86.8179
 31
0.0
  0
LINE
  8
0
 62
     0
 10
291.119
 20
86.8179
 30
0.0
 11
291.119
 21
89.9199
 31
0.0
  0
LINE
  8
0
 62
     0
 10
291.119
 20
89.9199
 30
0.0
 11
290.318
 21
89.9199
 31
0.0
  0
LINE
  8
0
 62
     0
 10
290.318
 20
89.9199
 30
0.0
 11
290.318
 21
95.7185
 31
0.0
  0
LINE
  8
0
 62
     0
 10
290.318
 20
95.7185
 30
0.0
 11
291.119
 21
95.7185
 31
0.0
  0
LINE
  8
0
 62
     0
 10
291.119
 20
95.7185
 30
0.0
 11
291.119
 21
98.8191
 31
0.0
  0
LINE
  8
0
 62
     0
 10
291.119
 20
98.8191
 30
0.0
 11
290.318
 21
98.8191
 31
0.0
  0
LINE
  8
0
 62
     0
 10
290.318
 20
98.8191
 30
0.0
 11
290.318
 21
99.8195
 31
0.0
  0
LINE
  8
0
 62
     0
 10
290.318
 20
99.8195
 30
0.0
 11
276.319
 21
99.8195
 31
0.0
  0
LINE
  8
0
 62
     0
 10
295.369
 20
99.8195
 30
0.0
 11
295.369
 21
98.8191
 31
0.0
  0
LINE
  8
0
 62
     0
 10
295.369
 20
98.8191
 30
0.0
 11
294.568
 21
98.8191
 31
0.0
  0
LINE
  8
0
 62
     0
 10
294.568
 20
98.8191
 30
0.0
 11
294.568
 21
95.7185
 31
0.0
  0
LINE
  8
0
 62
     0
 10
294.568
 20
95.7185
 30
0.0
 11
295.369
 21
95.7185
 31
0.0
  0
LINE
  8
0
 62
     0
 10
295.369
 20
95.7185
 30
0.0
 11
295.369
 21
89.9199
 31
0.0
  0
LINE
  8
0
 62
     0
 10
295.369
 20
89.9199
 30
0.0
 11
294.568
 21
89.9199
 31
0.0
  0
LINE
  8
0
 62
     0
 10
294.568
 20
89.9199
 30
0.0
 11
294.568
 21
86.8179
 31
0.0
  0
LINE
  8
0
 62
     0
 10
294.568
 20
86.8179
 30
0.0
 11
295.369
 21
86.8179
 31
0.0
  0
LINE
  8
0
 62
     0
 10
295.369
 20
86.8179
 30
0.0
 11
295.369
 21
85.8188
 31
0.0
  0
LINE
  8
0
 62
     0
 10
295.369
 20
85.8188
 30
0.0
 11
309.368
 21
85.8188
 31
0.0
  0
LINE
  8
0
 62
     0
 10
309.368
 20
85.8188
 30
0.0
 11
309.368
 21
86.8179
 31
0.0
  0
LINE
  8
0
 62
     0
 10
309.368
 20
86.8179
 30
0.0
 11
310.169
 21
86.8179
 31
0.0
  0
LINE
  8
0
 62
     0
 10
310.169
 20
86.8179
 30
0.0
 11
310.169
 21
89.9199
 31
0.0
  0
LINE
  8
0
 62
     0
 10
310.169
 20
89.9199
 30
0.0
 11
309.368
 21
89.9199
 31
0.0
  0
LINE
  8
0
 62
     0
 10
309.368
 20
89.9199
 30
0.0
 11
309.368
 21
95.7185
 31
0.0
  0
LINE
  8
0
 62
     0
 10
309.368
 20
95.7185
 30
0.0
 11
310.169
 21
95.7185
 31
0.0
  0
LINE
  8
0
 62
     0
 10
310.169
 20
95.7185
 30
0.0
 11
310.169
 21
98.8191
 31
0.0
  0
LINE
  8
0
 62
     0
 10
310.169
 20
98.8191
 30
0.0
 11
309.368
 21
98.8191
 31
0.0
  0
LINE
  8
0
 62
     0
 10
309.368
 20
98.8191
 30
0.0
 11
309.368
 21
99.8195
 31
0.0
  0
LINE
  8
0
 62
     0
 10
309.368
 20
99.8195
 30
0.0
 11
295.369
 21
99.8195
 31
0.0
  0
LINE
  8
0
 62
     0
 10
315.084
 20
106.795
 30
0.0
 11
314.807
 21
106.653
 31
0.0
  0
LINE
  8
0
 62
     0
 10
314.807
 20
106.653
 30
0.0
 11
314.584
 21
106.431
 31
0.0
  0
LINE
  8
0
 62
     0
 10
314.584
 20
106.431
 30
0.0
 11
314.442
 21
106.154
 31
0.0
  0
LINE
  8
0
 62
     0
 10
314.442
 20
106.154
 30
0.0
 11
314.395
 21
105.844
 31
0.0
  0
LINE
  8
0
 62
     0
 10
314.395
 20
105.844
 30
0.0
 11
314.442
 21
105.536
 31
0.0
  0
LINE
  8
0
 62
     0
 10
314.442
 20
105.536
 30
0.0
 11
314.584
 21
105.256
 31
0.0
  0
LINE
  8
0
 62
     0
 10
314.584
 20
105.256
 30
0.0
 11
314.807
 21
105.035
 31
0.0
  0
LINE
  8
0
 62
     0
 10
314.807
 20
105.035
 30
0.0
 11
315.084
 21
104.892
 31
0.0
  0
LINE
  8
0
 62
     0
 10
315.084
 20
104.892
 30
0.0
 11
315.394
 21
104.844
 31
0.0
  0
LINE
  8
0
 62
     0
 10
315.394
 20
104.844
 30
0.0
 11
315.704
 21
104.892
 31
0.0
  0
LINE
  8
0
 62
     0
 10
315.704
 20
104.892
 30
0.0
 11
315.981
 21
105.035
 31
0.0
  0
LINE
  8
0
 62
     0
 10
315.981
 20
105.035
 30
0.0
 11
316.203
 21
105.256
 31
0.0
  0
LINE
  8
0
 62
     0
 10
316.203
 20
105.256
 30
0.0
 11
316.345
 21
105.536
 31
0.0
  0
LINE
  8
0
 62
     0
 10
316.345
 20
105.536
 30
0.0
 11
316.395
 21
105.843
 31
0.0
  0
LINE
  8
0
 62
     0
 10
316.395
 20
105.843
 30
0.0
 11
316.345
 21
106.154
 31
0.0
  0
LINE
  8
0
 62
     0
 10
316.345
 20
106.154
 30
0.0
 11
316.203
 21
106.431
 31
0.0
  0
LINE
  8
0
 62
     0
 10
316.203
 20
106.431
 30
0.0
 11
315.981
 21
106.653
 31
0.0
  0
LINE
  8
0
 62
     0
 10
315.981
 20
106.653
 30
0.0
 11
315.704
 21
106.795
 31
0.0
  0
LINE
  8
0
 62
     0
 10
315.704
 20
106.795
 30
0.0
 11
315.394
 21
106.843
 31
0.0
  0
LINE
  8
0
 62
     0
 10
315.394
 20
106.843
 30
0.0
 11
315.084
 21
106.795
 31
0.0
  0
LINE
  8
0
 62
     0
 10
3.28249
 20
106.795
 30
0.0
 11
3.0055
 21
106.653
 31
0.0
  0
LINE
  8
0
 62
     0
 10
3.0055
 20
106.653
 30
0.0
 11
2.78364
 21
106.431
 31
0.0
  0
LINE
  8
0
 62
     0
 10
2.78364
 20
106.431
 30
0.0
 11
2.6417
 21
106.154
 31
0.0
  0
LINE
  8
0
 62
     0
 10
2.6417
 20
106.154
 30
0.0
 11
2.59209
 21
105.844
 31
0.0
  0
LINE
  8
0
 62
     0
 10
2.59209
 20
105.844
 30
0.0
 11
2.6417
 21
105.536
 31
0.0
  0
LINE
  8
0
 62
     0
 10
2.6417
 20
105.536
 30
0.0
 11
2.78364
 21
105.256
 31
0.0
  0
LINE
  8
0
 62
     0
 10
2.78364
 20
105.256
 30
0.0
 11
3.0055
 21
105.035
 31
0.0
  0
LINE
  8
0
 62
     0
 10
3.0055
 20
105.035
 30
0.0
 11
3.28249
 21
104.892
 31
0.0
  0
LINE
  8
0
 62
     0
 10
3.28249
 20
104.892
 30
0.0
 11
3.59255
 21
104.844
 31
0.0
  0
LINE
  8
0
 62
     0
 10
3.59255
 20
104.844
 30
0.0
 11
3.9026
 21
104.892
 31
0.0
  0
LINE
  8
0
 62
     0
 10
3.9026
 20
104.892
 30
0.0
 11
4.18098
 21
105.035
 31
0.0
  0
LINE
  8
0
 62
     0
 10
4.18098
 20
105.035
 30
0.0
 11
4.40284
 21
105.256
 31
0.0
  0
LINE
  8
0
 62
     0
 10
4.40284
 20
105.256
 30
0.0
 11
4.54477
 21
105.536
 31
0.0
  0
LINE
  8
0
 62
     0
 10
4.54477
 20
105.536
 30
0.0
 11
4.59437
 21
105.843
 31
0.0
  0
LINE
  8
0
 62
     0
 10
4.59437
 20
105.843
 30
0.0
 11
4.54477
 21
106.154
 31
0.0
  0
LINE
  8
0
 62
     0
 10
4.54477
 20
106.154
 30
0.0
 11
4.40284
 21
106.431
 31
0.0
  0
LINE
  8
0
 62
     0
 10
4.40284
 20
106.431
 30
0.0
 11
4.18098
 21
106.653
 31
0.0
  0
LINE
  8
0
 62
     0
 10
4.18098
 20
106.653
 30
0.0
 11
3.9026
 21
106.795
 31
0.0
  0
LINE
  8
0
 62
     0
 10
3.9026
 20
106.795
 30
0.0
 11
3.59392
 21
106.843
 31
0.0
  0
LINE
  8
0
 62
     0
 10
3.59392
 20
106.843
 30
0.0
 11
3.28249
 21
106.795
 31
0.0
  0
ENDSEC
  0
EOF
