  0
SECTION
  2
HEADER
  9
$ACADVER
  1
AC1009
  9
$EXTMIN
 10
0.0
 20
0.0
 30
0.0
  9
$EXTMAX
 10
1000.0
 20
1000.0
 30
0.0
  9
$FILLMODE
 70
 0
  9
$SPLFRAME
 70
 1
  0
ENDSEC
  0
SECTION
  2
TABLES
  0
TABLE
  2
LAYER
 70
1
  0
LAYER
  2
0
 70
     0
 62
     7
  6
CONTINUOUS
  0
ENDTAB
  0
ENDSEC
  0
SECTION
  2
ENTITIES
  0
LINE
  8
0
 62
     0
 10
0.0937066
 20
109.343
 30
0.0
 11
318.895
 21
109.343
 31
0.0
  0
LINE
  8
0
 62
     0
 10
318.895
 20
109.343
 30
0.0
 11
318.895
 21
0.0937066
 31
0.0
  0
LINE
  8
0
 62
     0
 10
318.895
 20
0.0937066
 30
0.0
 11
0.0937066
 21
0.0937066
 31
0.0
  0
LINE
  8
0
 62
     0
 10
0.0937066
 20
0.0937066
 30
0.0
 11
0.0937066
 21
109.343
 31
0.0
  0
LINE
  8
0
 62
     0
 10
315.084
 20
4.54477
 30
0.0
 11
314.807
 21
4.40422
 31
0.0
  0
LINE
  8
0
 62
     0
 10
314.807
 20
4.40422
 30
0.0
 11
314.584
 21
4.17961
 31
0.0
  0
LINE
  8
0
 62
     0
 10
314.584
 20
4.17961
 30
0.0
 11
314.442
 21
3.90398
 31
0.0
  0
LINE
  8
0
 62
     0
 10
314.442
 20
3.90398
 30
0.0
 11
314.395
 21
3.59255
 31
0.0
  0
LINE
  8
0
 62
     0
 10
314.395
 20
3.59255
 30
0.0
 11
314.442
 21
3.28249
 31
0.0
  0
LINE
  8
0
 62
     0
 10
314.442
 20
3.28249
 30
0.0
 11
314.584
 21
3.0055
 31
0.0
  0
LINE
  8
0
 62
     0
 10
314.584
 20
3.0055
 30
0.0
 11
314.807
 21
2.78364
 31
0.0
  0
LINE
  8
0
 62
     0
 10
314.807
 20
2.78364
 30
0.0
 11
315.084
 21
2.6417
 31
0.0
  0
LINE
  8
0
 62
     0
 10
315.084
 20
2.6417
 30
0.0
 11
315.394
 21
2.59347
 31
0.0
  0
LINE
  8
0
 62
     0
 10
315.394
 20
2.59347
 30
0.0
 11
315.704
 21
2.6417
 31
0.0
  0
LINE
  8
0
 62
     0
 10
315.704
 20
2.6417
 30
0.0
 11
315.981
 21
2.78364
 31
0.0
  0
LINE
  8
0
 62
     0
 10
315.981
 20
2.78364
 30
0.0
 11
316.203
 21
3.0055
 31
0.0
  0
LINE
  8
0
 62
     0
 10
316.203
 20
3.0055
 30
0.0
 11
316.345
 21
3.28249
 31
0.0
  0
LINE
  8
0
 62
     0
 10
316.345
 20
3.28249
 30
0.0
 11
316.395
 21
3.59255
 31
0.0
  0
LINE
  8
0
 62
     0
 10
316.395
 20
3.59255
 30
0.0
 11
316.345
 21
3.90398
 31
0.0
  0
LINE
  8
0
 62
     0
 10
316.345
 20
3.90398
 30
0.0
 11
316.203
 21
4.17961
 31
0.0
  0
LINE
  8
0
 62
     0
 10
316.203
 20
4.17961
 30
0.0
 11
315.981
 21
4.40422
 31
0.0
  0
LINE
  8
0
 62
     0
 10
315.981
 20
4.40422
 30
0.0
 11
315.704
 21
4.54477
 31
0.0
  0
LINE
  8
0
 62
     0
 10
315.704
 20
4.54477
 30
0.0
 11
315.394
 21
4.59299
 31
0.0
  0
LINE
  8
0
 62
     0
 10
315.394
 20
4.59299
 30
0.0
 11
315.084
 21
4.54477
 31
0.0
  0
LINE
  8
0
 62
     0
 10
3.28249
 20
4.54477
 30
0.0
 11
3.0055
 21
4.40422
 31
0.0
  0
LINE
  8
0
 62
     0
 10
3.0055
 20
4.40422
 30
0.0
 11
2.78364
 21
4.17961
 31
0.0
  0
LINE
  8
0
 62
     0
 10
2.78364
 20
4.17961
 30
0.0
 11
2.6417
 21
3.90398
 31
0.0
  0
LINE
  8
0
 62
     0
 10
2.6417
 20
3.90398
 30
0.0
 11
2.59209
 21
3.59255
 31
0.0
  0
LINE
  8
0
 62
     0
 10
2.59209
 20
3.59255
 30
0.0
 11
2.6417
 21
3.28249
 31
0.0
  0
LINE
  8
0
 62
     0
 10
2.6417
 20
3.28249
 30
0.0
 11
2.78364
 21
3.0055
 31
0.0
  0
LINE
  8
0
 62
     0
 10
2.78364
 20
3.0055
 30
0.0
 11
3.0055
 21
2.78364
 31
0.0
  0
LINE
  8
0
 62
     0
 10
3.0055
 20
2.78364
 30
0.0
 11
3.28249
 21
2.6417
 31
0.0
  0
LINE
  8
0
 62
     0
 10
3.28249
 20
2.6417
 30
0.0
 11
3.59255
 21
2.59347
 31
0.0
  0
LINE
  8
0
 62
     0
 10
3.59255
 20
2.59347
 30
0.0
 11
3.9026
 21
2.6417
 31
0.0
  0
LINE
  8
0
 62
     0
 10
3.9026
 20
2.6417
 30
0.0
 11
4.18098
 21
2.78364
 31
0.0
  0
LINE
  8
0
 62
     0
 10
4.18098
 20
2.78364
 30
0.0
 11
4.40284
 21
3.0055
 31
0.0
  0
LINE
  8
0
 62
     0
 10
4.40284
 20
3.0055
 30
0.0
 11
4.54477
 21
3.28249
 31
0.0
  0
LINE
  8
0
 62
     0
 10
4.54477
 20
3.28249
 30
0.0
 11
4.59437
 21
3.59255
 31
0.0
  0
LINE
  8
0
 62
     0
 10
4.59437
 20
3.59255
 30
0.0
 11
4.54477
 21
3.90398
 31
0.0
  0
LINE
  8
0
 62
     0
 10
4.54477
 20
3.90398
 30
0.0
 11
4.40284
 21
4.17961
 31
0.0
  0
LINE
  8
0
 62
     0
 10
4.40284
 20
4.17961
 30
0.0
 11
4.18098
 21
4.40422
 31
0.0
  0
LINE
  8
0
 62
     0
 10
4.18098
 20
4.40422
 30
0.0
 11
3.9026
 21
4.54477
 31
0.0
  0
LINE
  8
0
 62
     0
 10
3.9026
 20
4.54477
 30
0.0
 11
3.59392
 21
4.59299
 31
0.0
  0
LINE
  8
0
 62
     0
 10
3.59392
 20
4.59299
 30
0.0
 11
3.28249
 21
4.54477
 31
0.0
  0
LINE
  8
0
 62
     0
 10
7.09415
 20
102.344
 30
0.0
 11
311.894
 21
102.344
 31
0.0
  0
LINE
  8
0
 62
     0
 10
311.894
 20
102.344
 30
0.0
 11
311.894
 21
7.09415
 31
0.0
  0
LINE
  8
0
 62
     0
 10
311.894
 20
7.09415
 30
0.0
 11
7.09415
 21
7.09415
 31
0.0
  0
LINE
  8
0
 62
     0
 10
7.09415
 20
7.09415
 30
0.0
 11
7.09415
 21
102.344
 31
0.0
  0
LINE
  8
0
 62
     0
 10
315.084
 20
106.795
 30
0.0
 11
314.807
 21
106.653
 31
0.0
  0
LINE
  8
0
 62
     0
 10
314.807
 20
106.653
 30
0.0
 11
314.584
 21
106.431
 31
0.0
  0
LINE
  8
0
 62
     0
 10
314.584
 20
106.431
 30
0.0
 11
314.442
 21
106.154
 31
0.0
  0
LINE
  8
0
 62
     0
 10
314.442
 20
106.154
 30
0.0
 11
314.395
 21
105.844
 31
0.0
  0
LINE
  8
0
 62
     0
 10
314.395
 20
105.844
 30
0.0
 11
314.442
 21
105.536
 31
0.0
  0
LINE
  8
0
 62
     0
 10
314.442
 20
105.536
 30
0.0
 11
314.584
 21
105.256
 31
0.0
  0
LINE
  8
0
 62
     0
 10
314.584
 20
105.256
 30
0.0
 11
314.807
 21
105.035
 31
0.0
  0
LINE
  8
0
 62
     0
 10
314.807
 20
105.035
 30
0.0
 11
315.084
 21
104.892
 31
0.0
  0
LINE
  8
0
 62
     0
 10
315.084
 20
104.892
 30
0.0
 11
315.394
 21
104.844
 31
0.0
  0
LINE
  8
0
 62
     0
 10
315.394
 20
104.844
 30
0.0
 11
315.704
 21
104.892
 31
0.0
  0
LINE
  8
0
 62
     0
 10
315.704
 20
104.892
 30
0.0
 11
315.981
 21
105.035
 31
0.0
  0
LINE
  8
0
 62
     0
 10
315.981
 20
105.035
 30
0.0
 11
316.203
 21
105.256
 31
0.0
  0
LINE
  8
0
 62
     0
 10
316.203
 20
105.256
 30
0.0
 11
316.345
 21
105.536
 31
0.0
  0
LINE
  8
0
 62
     0
 10
316.345
 20
105.536
 30
0.0
 11
316.395
 21
105.843
 31
0.0
  0
LINE
  8
0
 62
     0
 10
316.395
 20
105.843
 30
0.0
 11
316.345
 21
106.154
 31
0.0
  0
LINE
  8
0
 62
     0
 10
316.345
 20
106.154
 30
0.0
 11
316.203
 21
106.431
 31
0.0
  0
LINE
  8
0
 62
     0
 10
316.203
 20
106.431
 30
0.0
 11
315.981
 21
106.653
 31
0.0
  0
LINE
  8
0
 62
     0
 10
315.981
 20
106.653
 30
0.0
 11
315.704
 21
106.795
 31
0.0
  0
LINE
  8
0
 62
     0
 10
315.704
 20
106.795
 30
0.0
 11
315.394
 21
106.843
 31
0.0
  0
LINE
  8
0
 62
     0
 10
315.394
 20
106.843
 30
0.0
 11
315.084
 21
106.795
 31
0.0
  0
LINE
  8
0
 62
     0
 10
3.28249
 20
106.795
 30
0.0
 11
3.0055
 21
106.653
 31
0.0
  0
LINE
  8
0
 62
     0
 10
3.0055
 20
106.653
 30
0.0
 11
2.78364
 21
106.431
 31
0.0
  0
LINE
  8
0
 62
     0
 10
2.78364
 20
106.431
 30
0.0
 11
2.6417
 21
106.154
 31
0.0
  0
LINE
  8
0
 62
     0
 10
2.6417
 20
106.154
 30
0.0
 11
2.59209
 21
105.844
 31
0.0
  0
LINE
  8
0
 62
     0
 10
2.59209
 20
105.844
 30
0.0
 11
2.6417
 21
105.536
 31
0.0
  0
LINE
  8
0
 62
     0
 10
2.6417
 20
105.536
 30
0.0
 11
2.78364
 21
105.256
 31
0.0
  0
LINE
  8
0
 62
     0
 10
2.78364
 20
105.256
 30
0.0
 11
3.0055
 21
105.035
 31
0.0
  0
LINE
  8
0
 62
     0
 10
3.0055
 20
105.035
 30
0.0
 11
3.28249
 21
104.892
 31
0.0
  0
LINE
  8
0
 62
     0
 10
3.28249
 20
104.892
 30
0.0
 11
3.59255
 21
104.844
 31
0.0
  0
LINE
  8
0
 62
     0
 10
3.59255
 20
104.844
 30
0.0
 11
3.9026
 21
104.892
 31
0.0
  0
LINE
  8
0
 62
     0
 10
3.9026
 20
104.892
 30
0.0
 11
4.18098
 21
105.035
 31
0.0
  0
LINE
  8
0
 62
     0
 10
4.18098
 20
105.035
 30
0.0
 11
4.40284
 21
105.256
 31
0.0
  0
LINE
  8
0
 62
     0
 10
4.40284
 20
105.256
 30
0.0
 11
4.54477
 21
105.536
 31
0.0
  0
LINE
  8
0
 62
     0
 10
4.54477
 20
105.536
 30
0.0
 11
4.59437
 21
105.843
 31
0.0
  0
LINE
  8
0
 62
     0
 10
4.59437
 20
105.843
 30
0.0
 11
4.54477
 21
106.154
 31
0.0
  0
LINE
  8
0
 62
     0
 10
4.54477
 20
106.154
 30
0.0
 11
4.40284
 21
106.431
 31
0.0
  0
LINE
  8
0
 62
     0
 10
4.40284
 20
106.431
 30
0.0
 11
4.18098
 21
106.653
 31
0.0
  0
LINE
  8
0
 62
     0
 10
4.18098
 20
106.653
 30
0.0
 11
3.9026
 21
106.795
 31
0.0
  0
LINE
  8
0
 62
     0
 10
3.9026
 20
106.795
 30
0.0
 11
3.59392
 21
106.843
 31
0.0
  0
LINE
  8
0
 62
     0
 10
3.59392
 20
106.843
 30
0.0
 11
3.28249
 21
106.795
 31
0.0
  0
ENDSEC
  0
EOF
